SplineFontDB: 3.0
FontName: Judson-Bold
FullName: Judson Bold
FamilyName: Judson
Weight: Bold
Copyright: Copyright (c) 2009, 2010, 2011 Daniel Johnson (<il.basso.buffo@gmail.com>).\n
Version: 20110907
ItalicAngle: 0
UnderlinePosition: -205
UnderlineWidth: 102
Ascent: 1638
Descent: 410
LayerCount: 2
Layer: 0 1 "Back"  1
Layer: 1 1 "Fore"  0
NeedsXUIDChange: 1
XUID: [1021 288 713564382 13136151]
FSType: 0
OS2Version: 2
OS2_WeightWidthSlopeOnly: 0
OS2_UseTypoMetrics: 1
CreationTime: 1282656651
ModificationTime: 1315423321
PfmFamily: 17
TTFWeight: 700
TTFWidth: 5
LineGap: 0
VLineGap: 0
Panose: 2 0 8 3 0 0 0 0 0 0
OS2TypoAscent: 1638
OS2TypoAOffset: 0
OS2TypoDescent: -523
OS2TypoDOffset: 0
OS2TypoLinegap: 0
OS2WinAscent: 1860
OS2WinAOffset: 0
OS2WinDescent: 523
OS2WinDOffset: 0
HheadAscent: 1860
HheadAOffset: 0
HheadDescent: -523
HheadDOffset: 0
OS2SubXSize: 1331
OS2SubYSize: 1432
OS2SubXOff: 0
OS2SubYOff: 287
OS2SupXSize: 1331
OS2SupYSize: 1432
OS2SupXOff: 0
OS2SupYOff: 981
OS2StrikeYSize: 100
OS2StrikeYPos: 528
OS2Vendor: 'PfEd'
OS2CodePages: 00000093.00000000
OS2UnicodeRanges: a00000ff.5000000b.00000000.00000000
Lookup: 260 0 0 "'abvm' Above Base Mark lookup 0"  {"'abvm' Above Base Mark lookup 0 subtable"  } ['abvm' ('DFLT' <'dflt' > 'grek' <'dflt' > 'latn' <'dflt' > ) ]
Lookup: 260 0 0 "'blwm' Below Base Mark lookup 1"  {"'blwm' Below Base Mark lookup 1 subtable"  } ['blwm' ('DFLT' <'dflt' > 'grek' <'dflt' > 'latn' <'dflt' > ) ]
Lookup: 260 0 0 "'mark' Mark Positioning lookup 2"  {"'mark' Mark Positioning lookup 2 subtable"  } ['mark' ('DFLT' <'dflt' > 'grek' <'dflt' > 'latn' <'dflt' > ) ]
Lookup: 262 0 0 "'mkmk' Mark to Mark lookup 3"  {"'mkmk' Mark to Mark lookup 3 subtable"  } ['mkmk' ('DFLT' <'dflt' > 'grek' <'dflt' > 'latn' <'dflt' > ) ]
Lookup: 258 0 0 "'kern' Horizontal Kerning in Latin lookup 4"  {"'kern' Horizontal Kerning in Latin lookup 4 per glyph data 0"  "'kern' Horizontal Kerning in Latin lookup 4 kerning class 1"  } ['kern' ('latn' <'dflt' > ) ]

StartChar: .notdef
Encoding: 65536 -1 0
Width: 1052
Flags: HW
LayerCount: 2
Fore
SplineSet
117 0 m 1,0,-1
 117 1092 l 1,1,-1
 936 1092 l 1,2,-1
 936 0 l 1,3,-1
 117 0 l 1,0,-1
219 102 m 1,4,-1
 834 102 l 1,5,-1
 834 989 l 1,6,-1
 219 989 l 1,7,-1
 219 102 l 1,4,-1
EndSplineSet
EndChar

StartChar: exclam
Encoding: 33 33 4
Width: 481
GlyphClass: 2
Flags: HW
LayerCount: 2
Fore
SplineSet
146.5 14 m 128,-1,1
 100 48 100 48 100 107 c 128,-1,2
 100 166 100 166 142.5 202 c 128,-1,3
 185 238 185 238 237 238 c 128,-1,4
 289 238 289 238 336 204 c 128,-1,5
 383 170 383 170 383 111.5 c 128,-1,6
 383 53 383 53 340 16.5 c 128,-1,7
 297 -20 297 -20 245 -20 c 128,-1,0
 193 -20 193 -20 146.5 14 c 128,-1,1
240 422 m 128,-1,9
 216 422 216 422 193.5 475.5 c 128,-1,10
 171 529 171 529 158 627 c 0,11,12
 104 1018 104 1018 104 1151 c 0,13,14
 104 1220 104 1220 147 1255 c 128,-1,15
 190 1290 190 1290 240 1290 c 128,-1,16
 290 1290 290 1290 332.5 1255 c 128,-1,17
 375 1220 375 1220 375 1149 c 128,-1,18
 375 1078 375 1078 353 883.5 c 128,-1,19
 331 689 331 689 320 609 c 128,-1,20
 309 529 309 529 286.5 475.5 c 128,-1,8
 264 422 264 422 240 422 c 128,-1,9
EndSplineSet
EndChar

StartChar: quotedbl
Encoding: 34 34 5
Width: 727
GlyphClass: 2
Flags: HW
LayerCount: 2
Fore
SplineSet
543 766 m 128,-1,1
 512 766 512 766 466 969 c 128,-1,2
 420 1172 420 1172 420 1270 c 0,3,4
 420 1314 420 1314 458 1338 c 128,-1,5
 496 1362 496 1362 543 1362 c 128,-1,6
 590 1362 590 1362 628 1338 c 128,-1,7
 666 1314 666 1314 666 1270 c 0,8,9
 666 1171 666 1171 620 968.5 c 128,-1,0
 574 766 574 766 543 766 c 128,-1,1
184 766 m 128,-1,11
 153 766 153 766 107 969 c 128,-1,12
 61 1172 61 1172 61 1270 c 0,13,14
 61 1314 61 1314 99 1338 c 128,-1,15
 137 1362 137 1362 184 1362 c 128,-1,16
 231 1362 231 1362 269 1338 c 128,-1,17
 307 1314 307 1314 307 1270 c 0,18,19
 307 1171 307 1171 261 968.5 c 128,-1,10
 215 766 215 766 184 766 c 128,-1,11
EndSplineSet
EndChar

StartChar: numbersign
Encoding: 35 35 6
Width: 1024
GlyphClass: 2
Flags: HW
LayerCount: 2
Fore
SplineSet
932 471 m 1,0,-1
 932 401 l 1,1,-1
 707 401 l 1,2,-1
 651 0 l 1,3,-1
 528 0 l 1,4,-1
 584 401 l 1,5,-1
 369 401 l 1,6,-1
 313 0 l 1,7,-1
 190 0 l 1,8,-1
 246 401 l 1,9,-1
 61 401 l 1,10,-1
 61 471 l 1,11,-1
 256 471 l 1,12,-1
 293 729 l 1,13,-1
 92 729 l 1,14,-1
 92 799 l 1,15,-1
 303 799 l 1,16,-1
 358 1198 l 1,17,-1
 481 1198 l 1,18,-1
 426 799 l 1,19,-1
 641 799 l 1,20,-1
 696 1198 l 1,21,-1
 819 1198 l 1,22,-1
 764 799 l 1,23,-1
 963 799 l 1,24,-1
 963 729 l 1,25,-1
 754 729 l 1,26,-1
 717 471 l 1,27,-1
 932 471 l 1,0,-1
379 471 m 1,28,-1
 594 471 l 1,29,-1
 631 729 l 1,30,-1
 416 729 l 1,31,-1
 379 471 l 1,28,-1
EndSplineSet
EndChar

StartChar: dollar
Encoding: 36 36 7
Width: 907
GlyphClass: 2
Flags: HW
LayerCount: 2
Fore
SplineSet
94 115 m 1,0,-1
 94 324 l 1,1,-1
 139 324 l 1,2,3
 151 251 151 251 199 189.5 c 0,4,5
 287.26873385 76.4056847545 287.26873385 76.4056847545 416 53 c 1,6,-1
 416 489 l 1,7,-1
 352 532 l 1,8,9
 96 707.68627451 96 707.68627451 96 901 c 0,10,11
 96 1021 96 1021 194.5 1118.5 c 128,-1,12
 293 1216 293 1216 416 1219 c 1,13,-1
 416 1290 l 1,14,-1
 498 1290 l 1,15,-1
 498 1212 l 1,16,17
 557 1202 557 1202 613 1178 c 128,-1,18
 669 1154 669 1154 695 1134 c 2,19,-1
 721 1114 l 1,20,-1
 737 889 l 1,21,-1
 692 889 l 1,22,23
 683 954 683 954 624.5 1025.5 c 128,-1,24
 566 1097 566 1097 498 1130 c 1,25,-1
 498 739 l 1,26,-1
 557 700 l 2,27,28
 725.874019382 588.543147208 725.874019382 588.543147208 787.5 495.5 c 0,29,30
 846 407.176470588 846 407.176470588 846 318.588235294 c 128,-1,31
 846 230 846 230 815 169.5 c 128,-1,32
 784 109 784 109 733 70.5 c 0,33,34
 629.360796741 -7.73743775464 629.360796741 -7.73743775464 498 -18 c 1,35,-1
 498 -86 l 1,36,-1
 416 -86 l 1,37,-1
 416 -18 l 1,38,39
 254.960674157 -8.08988764045 254.960674157 -8.08988764045 141.5 72 c 0,40,41
 113.898876404 91.4831460674 113.898876404 91.4831460674 94 115 c 1,0,-1
416 793 m 1,42,-1
 416 1149 l 1,43,44
 338 1145 338 1145 298 1087 c 128,-1,45
 258 1029 258 1029 258 977.5 c 128,-1,46
 258 926 258 926 299.5 884.5 c 128,-1,47
 341 843 341 843 416 793 c 1,42,-1
498 436 m 1,48,-1
 498 53 l 1,49,50
 570 65 570 65 613.5 117.5 c 128,-1,51
 657 170 657 170 657 232 c 128,-1,52
 657 294 657 294 615.5 339 c 128,-1,53
 574 384 574 384 498 436 c 1,48,-1
EndSplineSet
EndChar

StartChar: percent
Encoding: 37 37 8
Width: 1105
GlyphClass: 2
Flags: HW
LayerCount: 2
Fore
SplineSet
940 1157 m 1,0,-1
 250 41 l 1,1,-1
 168 41 l 1,2,-1
 858 1157 l 1,3,-1
 940 1157 l 1,0,-1
231 954 m 128,-1,5
 231 882 231 882 253 828 c 128,-1,6
 275 774 275 774 309 774 c 128,-1,7
 343 774 343 774 365 828.5 c 128,-1,8
 387 883 387 883 387 954.5 c 0,9,10
 387 1026 387 1026 365 1080.5 c 128,-1,11
 343 1135 343 1135 309 1135 c 128,-1,12
 275 1135 275 1135 253 1080.5 c 128,-1,4
 231 1026 231 1026 231 954 c 128,-1,5
59 954 m 128,-1,14
 59 1055 59 1055 139 1129.5 c 128,-1,15
 219 1204 219 1204 309 1204 c 128,-1,16
 399 1204 399 1204 479 1129.5 c 128,-1,17
 559 1055 559 1055 559 954 c 128,-1,18
 559 853 559 853 479 779 c 128,-1,19
 399 705 399 705 309 705 c 128,-1,20
 219 705 219 705 139 779 c 128,-1,13
 59 853 59 853 59 954 c 128,-1,14
719 244 m 128,-1,22
 719 172 719 172 741 117.5 c 128,-1,23
 763 63 763 63 797 63 c 128,-1,24
 831 63 831 63 852.5 117.5 c 128,-1,25
 874 172 874 172 874 244 c 128,-1,26
 874 316 874 316 852.5 370 c 128,-1,27
 831 424 831 424 797 424 c 128,-1,28
 763 424 763 424 741 370 c 128,-1,21
 719 316 719 316 719 244 c 128,-1,22
547 244 m 128,-1,30
 547 345 547 345 627 419.5 c 128,-1,31
 707 494 707 494 797 494 c 128,-1,32
 887 494 887 494 967 419.5 c 128,-1,33
 1047 345 1047 345 1047 244 c 128,-1,34
 1047 143 1047 143 967 68.5 c 128,-1,35
 887 -6 887 -6 797 -6 c 128,-1,36
 707 -6 707 -6 627 68.5 c 128,-1,29
 547 143 547 143 547 244 c 128,-1,30
EndSplineSet
EndChar

StartChar: ampersand
Encoding: 38 38 9
Width: 1243
GlyphClass: 2
Flags: HW
LayerCount: 2
Fore
SplineSet
664.5 1092 m 128,-1,1
 639 1147 639 1147 597 1147 c 128,-1,2
 555 1147 555 1147 519 1092 c 128,-1,3
 483 1037 483 1037 483 952 c 128,-1,4
 483 867 483 867 532 731 c 1,5,6
 690 842 690 842 690 961 c 0,7,0
 690 1037 690 1037 664.5 1092 c 128,-1,1
1188 707 m 1,8,-1
 1188 664 l 1,9,10
 1070.18181818 664 1070.18181818 664 1059 623 c 1,11,12
 964 330 964 330 846 178 c 1,13,14
 928 90 928 90 995.5 90 c 128,-1,15
 1063 90 1063 90 1094 105 c 128,-1,16
 1125 120 1125 120 1157 166 c 1,17,-1
 1182 145 l 1,18,19
 1135.8 22.9 1135.8 22.9 1053 -7 c 0,20,21
 1017 -20 1017 -20 971 -20 c 0,22,23
 858 -20 858 -20 737 70 c 1,24,25
 616 -20 616 -20 469 -20 c 0,26,27
 39 -20 39 -20 39 260 c 0,28,29
 39 423.24 39 423.24 260.5 565 c 0,30,31
 298 589 298 589 356 623 c 1,32,33
 266 839 266 839 266 971 c 0,34,35
 266 1036 266 1036 288.5 1084 c 128,-1,36
 311 1132 311 1132 341.5 1157 c 128,-1,37
 372 1182 372 1182 415 1197 c 0,38,39
 478.066666667 1219 478.066666667 1219 565.033333333 1219 c 128,-1,40
 652 1219 652 1219 714 1148.5 c 128,-1,41
 776 1078 776 1078 776 985 c 0,42,43
 776 870.650793651 776 870.650793651 712.5 788 c 0,44,45
 657.56152513 716.492778741 657.56152513 716.492778741 565 649 c 1,46,47
 657 422 657 422 795 240 c 1,48,49
 906 402 906 402 965 625 c 1,50,51
 948 664 948 664 836 664 c 1,52,-1
 836 707 l 1,53,-1
 1188 707 l 1,8,-1
682 117 m 1,54,55
 526 264 526 264 397 528 c 1,56,57
 335 479 335 479 307 431.5 c 128,-1,58
 279 384 279 384 279 315 c 0,59,60
 279 195 279 195 359 130.5 c 128,-1,61
 439 66 439 66 527.5 66 c 128,-1,62
 616 66 616 66 682 117 c 1,54,55
EndSplineSet
EndChar

StartChar: quotesingle
Encoding: 39 39 10
Width: 368
GlyphClass: 2
Flags: HW
LayerCount: 2
Fore
SplineSet
184 766 m 128,-1,1
 153 766 153 766 107 969 c 128,-1,2
 61 1172 61 1172 61 1270 c 0,3,4
 61 1314 61 1314 99 1338 c 128,-1,5
 137 1362 137 1362 184 1362 c 128,-1,6
 231 1362 231 1362 269 1338 c 128,-1,7
 307 1314 307 1314 307 1270 c 0,8,9
 307 1171 307 1171 261 968.5 c 128,-1,0
 215 766 215 766 184 766 c 128,-1,1
EndSplineSet
EndChar

StartChar: parenleft
Encoding: 40 40 11
Width: 514
GlyphClass: 2
Flags: HW
LayerCount: 2
Fore
SplineSet
432 -80 m 0,0,1
 432 -102 432 -102 409 -102 c 128,-1,2
 386 -102 386 -102 343 -55 c 128,-1,3
 300 -8 300 -8 238 88.5 c 128,-1,4
 176 185 176 185 118.5 340.5 c 128,-1,5
 61 496 61 496 61 644.5 c 128,-1,6
 61 793 61 793 119 948.5 c 128,-1,7
 177 1104 177 1104 239.5 1201 c 0,8,9
 363.211340206 1393 363.211340206 1393 414 1393 c 0,10,11
 432 1393 432 1393 432 1370 c 0,12,13
 432 1368 432 1368 424 1354.5 c 0,14,15
 366.08376194 1256.76634827 366.08376194 1256.76634827 330.54188097 1031.88317414 c 128,-1,16
 295 807 295 807 295 645 c 128,-1,17
 295 483 295 483 322.5 309.5 c 128,-1,18
 350 136 350 136 371 69 c 128,-1,19
 392 2 392 2 404 -24.5 c 128,-1,20
 416 -51 416 -51 424 -64.5 c 128,-1,21
 432 -78 432 -78 432 -80 c 0,0,1
EndSplineSet
EndChar

StartChar: parenright
Encoding: 41 41 12
Width: 512
GlyphClass: 2
Flags: HW
LayerCount: 2
Fore
SplineSet
80 1370 m 0,0,1
 80 1393 80 1393 98 1393 c 0,2,3
 148.203389831 1393 148.203389831 1393 242.101694915 1249 c 0,4,5
 451 928.63898917 451 928.63898917 451 645 c 0,6,7
 451 497 451 497 393 341.5 c 128,-1,8
 335 186 335 186 272.5 89 c 0,9,10
 149.432989691 -102 149.432989691 -102 98 -102 c 0,11,12
 80 -102 80 -102 80 -80 c 0,13,14
 80 -78 80 -78 88 -64.5 c 0,15,16
 145.636587165 32.7617408409 145.636587165 32.7617408409 181.318293582 257.88087042 c 128,-1,17
 217 483 217 483 217 645 c 128,-1,18
 217 807 217 807 189.5 981 c 128,-1,19
 162 1155 162 1155 141 1222 c 128,-1,20
 120 1289 120 1289 108 1315 c 128,-1,21
 96 1341 96 1341 88 1354.5 c 128,-1,22
 80 1368 80 1368 80 1370 c 0,0,1
EndSplineSet
EndChar

StartChar: asterisk
Encoding: 42 42 13
Width: 720
GlyphClass: 2
Flags: HW
LayerCount: 2
Fore
SplineSet
325.5 824 m 128,-1,1
 317 773 317 773 301.5 753 c 128,-1,2
 286 733 286 733 251.5 733 c 128,-1,3
 217 733 217 733 183.5 763 c 128,-1,4
 150 793 150 793 150 820.5 c 128,-1,5
 150 848 150 848 162 865.5 c 128,-1,6
 174 883 174 883 237.5 913.5 c 128,-1,7
 301 944 301 944 324 946 c 1,8,9
 305 962 305 962 305 974.5 c 128,-1,10
 305 987 305 987 306 991 c 128,-1,11
 307 995 307 995 307 997 c 1,12,13
 290 987 290 987 233.5 975 c 128,-1,14
 177 963 177 963 146 963 c 128,-1,15
 115 963 115 963 98.5 984 c 128,-1,16
 82 1005 82 1005 82 1040 c 128,-1,17
 82 1075 82 1075 107 1108 c 128,-1,18
 132 1141 132 1141 164 1141 c 0,19,20
 194.396039604 1141 194.396039604 1141 247.698019802 1085.5 c 128,-1,21
 301 1030 301 1030 309 1008 c 1,22,23
 322 1034 322 1034 354 1038 c 1,24,25
 337 1050 337 1050 302.5 1114 c 128,-1,26
 268 1178 268 1178 268 1204.5 c 128,-1,27
 268 1231 268 1231 293.5 1250.5 c 128,-1,28
 319 1270 319 1270 357.5 1270 c 128,-1,29
 396 1270 396 1270 422.5 1250.5 c 128,-1,30
 449 1231 449 1231 449 1204.5 c 128,-1,31
 449 1178 449 1178 414 1114 c 128,-1,32
 379 1050 379 1050 362 1038 c 1,33,34
 395 1035 395 1035 408 1006 c 1,35,36
 413 1025 413 1025 464 1078 c 128,-1,37
 515 1131 515 1131 533 1136 c 128,-1,38
 551 1141 551 1141 557 1141 c 0,39,40
 588 1141 588 1141 612.5 1109 c 128,-1,41
 637 1077 637 1077 637 1042 c 128,-1,42
 637 1007 637 1007 620 985 c 128,-1,43
 603 963 603 963 571 963 c 128,-1,44
 539 963 539 963 481 975 c 128,-1,45
 423 987 423 987 410 997 c 1,46,47
 412 993 412 993 412 979 c 128,-1,48
 412 965 412 965 393 946 c 1,49,50
 416 946 416 946 481.5 914.5 c 128,-1,51
 547 883 547 883 559 865.5 c 128,-1,52
 571 848 571 848 571 821.5 c 128,-1,53
 571 795 571 795 536 764 c 128,-1,54
 501 733 501 733 465.5 733 c 128,-1,55
 430 733 430 733 416 753 c 128,-1,56
 402 773 402 773 393.5 826.5 c 128,-1,57
 385 880 385 880 385 908 c 128,-1,58
 385 936 385 936 387 940 c 1,59,60
 376 932 376 932 360 932 c 128,-1,61
 344 932 344 932 332 938 c 1,62,63
 334 932 334 932 334 903.5 c 128,-1,0
 334 875 334 875 325.5 824 c 128,-1,1
EndSplineSet
EndChar

StartChar: plus
Encoding: 43 43 14
Width: 827
GlyphClass: 2
Flags: HW
LayerCount: 2
Fore
SplineSet
467 598 m 1,0,-1
 467 309 l 1,1,-1
 360 309 l 1,2,-1
 360 598 l 1,3,-1
 72 598 l 1,4,-1
 72 705 l 1,5,-1
 360 705 l 1,6,-1
 360 993 l 1,7,-1
 467 993 l 1,8,-1
 467 705 l 1,9,-1
 756 705 l 1,10,-1
 756 598 l 1,11,-1
 467 598 l 1,0,-1
EndSplineSet
EndChar

StartChar: comma
Encoding: 44 44 15
Width: 458
GlyphClass: 2
Flags: HW
LayerCount: 2
Fore
SplineSet
227.5 -13.5 m 128,-1,1
 213 -20 213 -20 179.5 -20 c 128,-1,2
 146 -20 146 -20 115 10 c 128,-1,3
 84 40 84 40 84 94.5 c 128,-1,4
 84 149 84 149 126.5 181 c 128,-1,5
 169 213 169 213 209 213 c 0,6,7
 383 213 383 213 383 -12 c 0,8,9
 383 -113 383 -113 299 -190.5 c 128,-1,10
 215 -268 215 -268 113 -274 c 1,11,-1
 113 -201 l 1,12,13
 187 -183 187 -183 231.5 -133.5 c 128,-1,14
 276 -84 276 -84 276 -39 c 128,-1,15
 276 6 276 6 260 6 c 0,16,17
 258 6 258 6 250 -0.5 c 128,-1,0
 242 -7 242 -7 227.5 -13.5 c 128,-1,1
EndSplineSet
EndChar

StartChar: hyphen
Encoding: 45 45 16
Width: 761
GlyphClass: 2
Flags: HW
LayerCount: 2
Fore
SplineSet
111 696 m 1,0,-1
 651 696 l 1,1,-1
 651 606 l 1,2,-1
 111 606 l 1,3,-1
 111 696 l 1,0,-1
EndSplineSet
EndChar

StartChar: period
Encoding: 46 46 17
Width: 450
GlyphClass: 2
Flags: HW
LayerCount: 2
Fore
SplineSet
130 14 m 128,-1,1
 84 48 84 48 84 107 c 128,-1,2
 84 166 84 166 126 202 c 128,-1,3
 168 238 168 238 220 238 c 128,-1,4
 272 238 272 238 319.5 204 c 128,-1,5
 367 170 367 170 367 111.5 c 128,-1,6
 367 53 367 53 323.5 16.5 c 128,-1,7
 280 -20 280 -20 228 -20 c 128,-1,0
 176 -20 176 -20 130 14 c 128,-1,1
EndSplineSet
EndChar

StartChar: slash
Encoding: 47 47 18
Width: 970
GlyphClass: 2
Flags: HW
LayerCount: 2
Fore
SplineSet
37 -20 m 1,0,-1
 834 1253 l 1,1,-1
 934 1217 l 1,2,-1
 137 -57 l 1,3,-1
 37 -20 l 1,0,-1
EndSplineSet
EndChar

StartChar: zero
Encoding: 48 48 19
Width: 1003
GlyphClass: 2
Flags: HW
LayerCount: 2
Fore
SplineSet
333 805.5 m 128,-1,1
 326 715 326 715 326 598.5 c 128,-1,2
 326 482 326 482 333 391 c 128,-1,3
 340 300 340 300 358.5 217 c 128,-1,4
 377 134 377 134 413 88.5 c 128,-1,5
 449 43 449 43 502 43 c 128,-1,6
 555 43 555 43 591 88.5 c 128,-1,7
 627 134 627 134 645.5 217 c 0,8,9
 678 362.810810811 678 362.810810811 678 538.905405405 c 128,-1,10
 678 715 678 715 671 805.5 c 128,-1,11
 664 896 664 896 645.5 980 c 128,-1,12
 627 1064 627 1064 591 1109.5 c 128,-1,13
 555 1155 555 1155 502 1155 c 128,-1,14
 449 1155 449 1155 413 1109.5 c 128,-1,15
 377 1064 377 1064 358.5 980 c 128,-1,0
 340 896 340 896 333 805.5 c 128,-1,1
61 598 m 128,-1,17
 61 765 61 765 112 905 c 128,-1,18
 163 1045 163 1045 265 1132 c 128,-1,19
 367 1219 367 1219 485.5 1219 c 128,-1,20
 604 1219 604 1219 688 1168.5 c 128,-1,21
 772 1118 772 1118 827 1032 c 0,22,23
 942 852.181818182 942 852.181818182 942 598 c 0,24,25
 942 431 942 431 891.5 292 c 128,-1,26
 841 153 841 153 739 66.5 c 128,-1,27
 637 -20 637 -20 502 -20 c 128,-1,28
 367 -20 367 -20 265 66.5 c 128,-1,29
 163 153 163 153 112 292 c 128,-1,16
 61 431 61 431 61 598 c 128,-1,17
EndSplineSet
EndChar

StartChar: one
Encoding: 49 49 20
Width: 1003
GlyphClass: 2
Flags: HW
LayerCount: 2
Fore
SplineSet
692 1198 m 1,0,-1
 692 125 l 2,1,2
 692 81 692 81 760 62 c 128,-1,3
 828 43 828 43 911 43 c 1,4,-1
 911 0 l 1,5,-1
 219 0 l 1,6,-1
 219 43 l 1,7,8
 302 43 302 43 370 62 c 128,-1,9
 438 81 438 81 438 125 c 2,10,-1
 438 891 l 1,11,12
 327 817 327 817 254 762 c 1,13,-1
 240 797 l 1,14,-1
 604 1198 l 1,15,-1
 692 1198 l 1,0,-1
EndSplineSet
EndChar

StartChar: two
Encoding: 50 50 21
Width: 1003
GlyphClass: 2
Flags: HW
LayerCount: 2
Fore
SplineSet
82 0 m 1,0,1
 82 56.3664596273 82 56.3664596273 275.5 271.5 c 0,2,3
 356 361 356 361 436 457.5 c 128,-1,4
 516 554 516 554 572.5 659.5 c 128,-1,5
 629 765 629 765 629 834.5 c 128,-1,6
 629 904 629 904 609.5 960.5 c 128,-1,7
 590 1017 590 1017 550.5 1056.5 c 128,-1,8
 511 1096 511 1096 451 1096 c 128,-1,9
 391 1096 391 1096 332 1075.5 c 128,-1,10
 273 1055 273 1055 238.5 1026.5 c 128,-1,11
 204 998 204 998 180 969 c 128,-1,12
 156 940 156 940 141 919.5 c 128,-1,13
 126 899 126 899 119 899 c 0,14,15
 102 899 102 899 102 917.5 c 128,-1,16
 102 936 102 936 117 969 c 128,-1,17
 132 1002 132 1002 166.5 1045.5 c 128,-1,18
 201 1089 201 1089 247.5 1127.5 c 128,-1,19
 294 1166 294 1166 366 1192.5 c 128,-1,20
 438 1219 438 1219 527.5 1219 c 128,-1,21
 617 1219 617 1219 691 1192.5 c 128,-1,22
 765 1166 765 1166 806.5 1121.5 c 0,23,24
 889 1033.03614458 889 1033.03614458 889 911 c 128,-1,25
 889 788.97260274 889 788.97260274 714 590 c 0,26,27
 641 507 641 507 568 430.5 c 0,28,29
 393 247.109589041 393 247.109589041 393 209 c 1,30,-1
 764 209 l 2,31,32
 812.928571429 209 812.928571429 209 860.5 283 c 0,33,34
 865 290 865 290 881 315 c 1,35,-1
 922 315 l 1,36,-1
 868 0 l 1,37,-1
 82 0 l 1,0,1
EndSplineSet
EndChar

StartChar: three
Encoding: 51 51 22
Width: 1003
GlyphClass: 2
Flags: HW
LayerCount: 2
Fore
SplineSet
434 590 m 2,0,1
 420 590 420 590 407.5 598.5 c 128,-1,2
 395 607 395 607 395 616 c 128,-1,3
 395 625 395 625 410 631 c 1,4,5
 498 658 498 658 550 721 c 128,-1,6
 602 784 602 784 602 883 c 128,-1,7
 602 982 602 982 555 1039 c 128,-1,8
 508 1096 508 1096 416 1096 c 0,9,10
 311 1096 311 1096 254.5 1039.5 c 0,11,12
 225.25 1010.25 225.25 1010.25 201.625 973.125 c 128,-1,13
 178 936 178 936 170 936 c 0,14,15
 154 936 154 936 154 954 c 128,-1,16
 154 972 154 972 164.5 1001.5 c 128,-1,17
 175 1031 175 1031 200.5 1069 c 128,-1,18
 226 1107 226 1107 261 1140 c 0,19,20
 344.787878788 1219 344.787878788 1219 477 1219 c 0,21,22
 670 1219 670 1219 760 1137 c 128,-1,23
 850 1055 850 1055 850 916 c 128,-1,24
 850 777 850 777 664 670 c 1,25,26
 762 644 762 644 833.5 555 c 128,-1,27
 905 466 905 466 905 385.5 c 128,-1,28
 905 305 905 305 895 252.5 c 128,-1,29
 885 200 885 200 856.5 147.5 c 128,-1,30
 828 95 828 95 782 59.5 c 0,31,32
 678.985915493 -20 678.985915493 -20 483 -20 c 0,33,34
 400 -20 400 -20 323.5 0.5 c 128,-1,35
 247 21 247 21 200 49.5 c 128,-1,36
 153 78 153 78 125.5 105 c 128,-1,37
 98 132 98 132 98 147 c 0,38,39
 98 209 98 209 114 233.5 c 128,-1,40
 130 258 130 258 163.5 258 c 128,-1,41
 197 258 197 258 218 242 c 128,-1,42
 239 226 239 226 253.5 202 c 128,-1,43
 268 178 268 178 286.5 150.5 c 128,-1,44
 305 123 305 123 324.5 99 c 0,45,46
 370 43 370 43 455.5 43 c 128,-1,47
 541 43 541 43 602.5 112 c 128,-1,48
 664 181 664 181 664 312.5 c 128,-1,49
 664 444 664 444 620.5 517 c 128,-1,50
 577 590 577 590 494 590 c 2,51,-1
 434 590 l 2,0,1
EndSplineSet
EndChar

StartChar: four
Encoding: 52 52 23
Width: 1003
GlyphClass: 2
Flags: HW
LayerCount: 2
Fore
SplineSet
365 43 m 1,0,1
 477.227272727 43 477.227272727 43 494 84 c 1,2,-1
 494 358 l 1,3,-1
 90 358 l 1,4,-1
 655 1198 l 1,5,-1
 750 1198 l 1,6,-1
 750 420 l 1,7,-1
 915 420 l 1,8,-1
 915 358 l 1,9,-1
 750 358 l 1,10,-1
 750 84 l 1,11,12
 766.772727273 43 766.772727273 43 879 43 c 1,13,-1
 879 0 l 1,14,-1
 365 0 l 1,15,-1
 365 43 l 1,0,1
494 420 m 1,16,-1
 494 846 l 1,17,-1
 205 420 l 1,18,-1
 494 420 l 1,16,-1
EndSplineSet
EndChar

StartChar: five
Encoding: 53 53 24
Width: 1003
GlyphClass: 2
Flags: HW
LayerCount: 2
Fore
SplineSet
293 788 m 1,0,1
 667.072196726 785.249469142 667.072196726 785.249469142 825.5 593 c 0,2,3
 905 496.528089888 905 496.528089888 905 393 c 0,4,5
 905 163.643678161 905 163.643678161 785.5 62 c 0,6,7
 689.094594595 -20 689.094594595 -20 508 -20 c 0,8,9
 296.829787234 -20 296.829787234 -20 163 72.5 c 0,10,11
 98 117.426470588 98 117.426470588 98 147 c 0,12,13
 98 209 98 209 114 233.5 c 128,-1,14
 130 258 130 258 161.5 258 c 128,-1,15
 193 258 193 258 211.5 236 c 128,-1,16
 230 214 230 214 249.5 182 c 128,-1,17
 269 150 269 150 295.5 118.5 c 0,18,19
 359.015873016 43 359.015873016 43 479 43 c 0,20,21
 664 43 664 43 664 352 c 0,22,23
 664 411 664 411 657 452.5 c 128,-1,24
 650 494 650 494 623 540.5 c 128,-1,25
 596 587 596 587 548.5 615.5 c 0,26,27
 437.666666667 682 437.666666667 682 209 682 c 1,28,-1
 276 1198 l 1,29,-1
 848 1198 l 1,30,-1
 799 1022 l 1,31,-1
 324 1022 l 1,32,-1
 293 788 l 1,0,1
EndSplineSet
EndChar

StartChar: six
Encoding: 54 54 25
Width: 1003
GlyphClass: 2
Flags: HW
LayerCount: 2
Fore
SplineSet
354 725 m 1,0,1
 426 758 426 758 506 758 c 0,2,3
 926 758 926 758 926 385 c 0,4,5
 926 199 926 199 812.5 89.5 c 128,-1,6
 699 -20 699 -20 507.5 -20 c 128,-1,7
 316 -20 316 -20 197 116 c 128,-1,8
 78 252 78 252 78 459 c 0,9,10
 78 778.5 78 778.5 302 1018.5 c 0,11,12
 412.388316151 1136.77319588 412.388316151 1136.77319588 567 1202 c 0,13,14
 631 1229 631 1229 686 1235 c 1,15,-1
 713 1165 l 1,16,17
 420.995016102 1091.50214691 420.995016102 1091.50214691 354 725 c 1,0,1
344 659 m 1,18,19
 334 583 334 583 334 411 c 128,-1,20
 334 239 334 239 379 142 c 128,-1,21
 424 45 424 45 514 45 c 0,22,23
 670 45 670 45 670 401 c 0,24,25
 670 519.909090909 670 519.909090909 661 553.454545455 c 128,-1,26
 652 587 652 587 640 613 c 128,-1,27
 628 639 628 639 611.5 653.5 c 0,28,29
 572.24137931 688 572.24137931 688 488.120689655 688 c 128,-1,30
 404 688 404 688 344 659 c 1,18,19
EndSplineSet
EndChar

StartChar: seven
Encoding: 55 55 26
Width: 1003
GlyphClass: 2
Flags: HW
LayerCount: 2
Fore
SplineSet
356 33 m 0,0,1
 356 116 356 116 407.5 271.5 c 128,-1,2
 459 427 459 427 521 568.5 c 0,3,4
 686 945.072580645 686 945.072580645 686 1004 c 1,5,-1
 281 1004 l 2,6,7
 255 1004 255 1004 218 965 c 128,-1,8
 181 926 181 926 160 872 c 1,9,-1
 119 872 l 1,10,-1
 197 1198 l 1,11,-1
 885 1198 l 1,12,13
 885 1159.06766917 885 1159.06766917 708.5 714.5 c 0,14,15
 642 547 642 547 587 350 c 128,-1,16
 532 153 532 153 532 33 c 0,17,18
 532 14 532 14 507 -3 c 128,-1,19
 482 -20 482 -20 442 -20 c 128,-1,20
 402 -20 402 -20 379 -2.5 c 128,-1,21
 356 15 356 15 356 33 c 0,0,1
EndSplineSet
EndChar

StartChar: eight
Encoding: 56 56 27
Width: 1003
GlyphClass: 2
Flags: HW
LayerCount: 2
Fore
SplineSet
586 698 m 1,0,1
 719 789 719 789 719 979 c 0,2,3
 719 1061 719 1061 658 1106 c 128,-1,4
 597 1151 597 1151 524 1151 c 0,5,6
 319 1151 319 1151 319 985 c 0,7,8
 319 906.909090909 319 906.909090909 435 812 c 0,9,10
 500.225352113 758.633802817 500.225352113 758.633802817 586 698 c 1,0,1
666 639 m 1,11,12
 777 555 777 555 841 472 c 128,-1,13
 905 389 905 389 905 282.5 c 128,-1,14
 905 176 905 176 787.5 78 c 128,-1,15
 670 -20 670 -20 493.5 -20 c 128,-1,16
 317 -20 317 -20 199.5 66.5 c 128,-1,17
 82 153 82 153 82 283 c 0,18,19
 82 478 82 478 334 614 c 1,20,21
 226 696 226 696 165 776.5 c 128,-1,22
 104 857 104 857 104 958.5 c 128,-1,23
 104 1060 104 1060 209 1134 c 128,-1,24
 314 1208 314 1208 485 1208 c 0,25,26
 885 1208 885 1208 885 963 c 0,27,28
 885 857 885 857 822.5 776 c 128,-1,29
 760 695 760 695 666 639 c 1,11,12
412 555 m 1,30,31
 250 467 250 467 250 266 c 0,32,33
 250 203 250 203 285.5 153 c 0,34,35
 353.66 57 353.66 57 463 57 c 0,36,37
 587.790697674 57 587.790697674 57 642 112.5 c 0,38,39
 690 161.642857143 690 161.642857143 690 260 c 0,40,41
 690 308.571428571 690 308.571428571 661 343.785714286 c 128,-1,42
 632 379 632 379 616 396.5 c 128,-1,43
 600 414 600 414 562 444 c 0,44,45
 494.941176471 496.941176471 494.941176471 496.941176471 412 555 c 1,30,31
EndSplineSet
EndChar

StartChar: nine
Encoding: 57 57 28
Width: 1003
GlyphClass: 2
Flags: HW
LayerCount: 2
Fore
SplineSet
649 473 m 1,0,1
 578 440 578 440 498 440 c 0,2,3
 78 440 78 440 78 813 c 0,4,5
 78 999 78 999 191 1109 c 128,-1,6
 304 1219 304 1219 495.5 1219 c 128,-1,7
 687 1219 687 1219 806.5 1082.5 c 128,-1,8
 926 946 926 946 926 739 c 0,9,10
 926 601 926 601 883 476 c 128,-1,11
 840 351 840 351 773 263.5 c 128,-1,12
 706 176 706 176 623.5 108.5 c 0,13,14
 467.652427184 -19.0116504854 467.652427184 -19.0116504854 317 -37 c 1,15,-1
 291 33 l 1,16,17
 583 106 583 106 649 473 c 1,0,1
659 539 m 1,18,19
 670 623 670 623 670 739 c 0,20,21
 670 959 670 959 624.5 1056 c 128,-1,22
 579 1153 579 1153 489 1153 c 0,23,24
 334 1153 334 1153 334 797 c 0,25,26
 334 678.090909091 334 678.090909091 343 644.545454545 c 128,-1,27
 352 611 352 611 364 585 c 128,-1,28
 376 559 376 559 392.5 544.5 c 0,29,30
 431.75862069 510 431.75862069 510 515.379310345 510 c 128,-1,31
 599 510 599 510 659 539 c 1,18,19
EndSplineSet
EndChar

StartChar: colon
Encoding: 58 58 29
Width: 503
GlyphClass: 2
Flags: HW
LayerCount: 2
Fore
SplineSet
157 14 m 128,-1,1
 111 48 111 48 111 107 c 128,-1,2
 111 166 111 166 153 202 c 128,-1,3
 195 238 195 238 247 238 c 128,-1,4
 299 238 299 238 346 204 c 128,-1,5
 393 170 393 170 393 111.5 c 128,-1,6
 393 53 393 53 350 16.5 c 128,-1,7
 307 -20 307 -20 255 -20 c 128,-1,0
 203 -20 203 -20 157 14 c 128,-1,1
157.5 689.5 m 128,-1,9
 111 724 111 724 111 783 c 128,-1,10
 111 842 111 842 153 877.5 c 128,-1,11
 195 913 195 913 247 913 c 128,-1,12
 299 913 299 913 346 879 c 128,-1,13
 393 845 393 845 393 786.5 c 128,-1,14
 393 728 393 728 350 691.5 c 128,-1,15
 307 655 307 655 255.5 655 c 128,-1,8
 204 655 204 655 157.5 689.5 c 128,-1,9
EndSplineSet
EndChar

StartChar: semicolon
Encoding: 59 59 30
Width: 526
GlyphClass: 2
Flags: HW
LayerCount: 2
Fore
SplineSet
259.5 -13.5 m 128,-1,1
 245 -20 245 -20 211.5 -20 c 128,-1,2
 178 -20 178 -20 147.5 10 c 128,-1,3
 117 40 117 40 117 94.5 c 128,-1,4
 117 149 117 149 159.5 181 c 128,-1,5
 202 213 202 213 242 213 c 0,6,7
 416 213 416 213 416 -12 c 0,8,9
 416 -113 416 -113 331.5 -190.5 c 128,-1,10
 247 -268 247 -268 145 -274 c 1,11,-1
 145 -201 l 1,12,13
 219 -183 219 -183 264 -133.5 c 128,-1,14
 309 -84 309 -84 309 -39 c 128,-1,15
 309 6 309 6 293 6 c 0,16,17
 291 6 291 6 282.5 -0.5 c 128,-1,0
 274 -7 274 -7 259.5 -13.5 c 128,-1,1
163.5 689.5 m 128,-1,19
 117 724 117 724 117 783 c 128,-1,20
 117 842 117 842 159 877.5 c 128,-1,21
 201 913 201 913 253 913 c 128,-1,22
 305 913 305 913 352 879 c 128,-1,23
 399 845 399 845 399 786.5 c 128,-1,24
 399 728 399 728 356 691.5 c 128,-1,25
 313 655 313 655 261.5 655 c 128,-1,18
 210 655 210 655 163.5 689.5 c 128,-1,19
EndSplineSet
EndChar

StartChar: less
Encoding: 60 60 31
Width: 962
GlyphClass: 2
Flags: HW
LayerCount: 2
Fore
SplineSet
59 702 m 1,0,-1
 834 1065 l 1,1,-1
 834 961 l 1,2,-1
 193 651 l 1,3,-1
 834 342 l 1,4,-1
 834 238 l 1,5,-1
 59 600 l 1,6,-1
 59 702 l 1,0,-1
EndSplineSet
EndChar

StartChar: equal
Encoding: 61 61 32
Width: 995
GlyphClass: 2
Flags: HW
LayerCount: 2
Fore
SplineSet
125 584 m 1,0,-1
 870 584 l 1,1,-1
 870 473 l 1,2,-1
 125 473 l 1,3,-1
 125 584 l 1,0,-1
125 829 m 1,4,-1
 870 829 l 1,5,-1
 870 719 l 1,6,-1
 125 719 l 1,7,-1
 125 829 l 1,4,-1
EndSplineSet
EndChar

StartChar: greater
Encoding: 62 62 33
Width: 962
GlyphClass: 2
Flags: HW
LayerCount: 2
Fore
SplineSet
903 600 m 1,0,-1
 129 238 l 1,1,-1
 129 342 l 1,2,-1
 770 651 l 1,3,-1
 129 961 l 1,4,-1
 129 1065 l 1,5,-1
 903 702 l 1,6,-1
 903 600 l 1,0,-1
EndSplineSet
EndChar

StartChar: question
Encoding: 63 63 34
Width: 872
GlyphClass: 2
Flags: HW
LayerCount: 2
Fore
SplineSet
298 14 m 128,-1,1
 252 48 252 48 252 107 c 128,-1,2
 252 166 252 166 294 202 c 128,-1,3
 336 238 336 238 388 238 c 128,-1,4
 440 238 440 238 487.5 204 c 128,-1,5
 535 170 535 170 535 111.5 c 128,-1,6
 535 53 535 53 491.5 16.5 c 128,-1,7
 448 -20 448 -20 396 -20 c 128,-1,0
 344 -20 344 -20 298 14 c 128,-1,1
350 410 m 0,8,9
 350 514.956521739 350 514.956521739 403 591 c 0,10,11
 461.461538462 674.879598662 461.461538462 674.879598662 493.230769231 729.439799331 c 0,12,13
 555 835.52173913 555 835.52173913 555 963.260869565 c 128,-1,14
 555 1091 555 1091 508.5 1160 c 128,-1,15
 462 1229 462 1229 383 1229 c 128,-1,16
 304 1229 304 1229 267.5 1184 c 128,-1,17
 231 1139 231 1139 231 1098.5 c 128,-1,18
 231 1058 231 1058 246.5 1031 c 128,-1,19
 262 1004 262 1004 262 975.5 c 128,-1,20
 262 947 262 947 233.5 919 c 128,-1,21
 205 891 205 891 158.5 891 c 128,-1,22
 112 891 112 891 84.5 924.5 c 128,-1,23
 57 958 57 958 57 1010.5 c 128,-1,24
 57 1063 57 1063 79.5 1110.5 c 128,-1,25
 102 1158 102 1158 144 1198.5 c 0,26,27
 238.888888889 1290 238.888888889 1290 420.444444444 1290 c 128,-1,28
 602 1290 602 1290 706.5 1204 c 128,-1,29
 811 1118 811 1118 811 973 c 0,30,31
 811 857.117647059 811 857.117647059 734 762 c 0,32,33
 673.99318569 687.873935264 673.99318569 687.873935264 604.496592845 630.936967632 c 128,-1,34
 535 574 535 574 501 542 c 0,35,36
 424 469.529411765 424 469.529411765 424 410 c 0,37,38
 424 400 424 400 410 390.5 c 128,-1,39
 396 381 396 381 387 381 c 128,-1,40
 378 381 378 381 364 390.5 c 128,-1,41
 350 400 350 400 350 410 c 0,8,9
EndSplineSet
EndChar

StartChar: at
Encoding: 64 64 35
Width: 1267
GlyphClass: 2
Flags: HW
LayerCount: 2
Fore
SplineSet
664 401 m 1,0,1
 586 326 586 326 505 326 c 128,-1,2
 424 326 424 326 382 385.5 c 128,-1,3
 340 445 340 445 340 532 c 128,-1,4
 340 619 340 619 384 705 c 128,-1,5
 428 791 428 791 495 843 c 128,-1,6
 562 895 562 895 640 895 c 128,-1,7
 718 895 718 895 764 811 c 1,8,-1
 780 872 l 1,9,-1
 920 872 l 1,10,-1
 799 416 l 2,11,12
 793 396 793 396 805.5 384.5 c 128,-1,13
 818 373 818 373 857 373 c 128,-1,14
 896 373 896 373 940 413 c 128,-1,15
 984 453 984 453 1008.5 508.5 c 0,16,17
 1059 622.897959184 1059 622.897959184 1059 712.448979592 c 128,-1,18
 1059 802 1059 802 1036.5 884 c 128,-1,19
 1014 966 1014 966 979 1012.5 c 128,-1,20
 944 1059 944 1059 892.5 1087 c 0,21,22
 807.892857143 1133 807.892857143 1133 697.946428571 1133 c 128,-1,23
 588 1133 588 1133 497 1097.5 c 128,-1,24
 406 1062 406 1062 332.5 996 c 128,-1,25
 259 930 259 930 214.5 824.5 c 128,-1,26
 170 719 170 719 170 605 c 128,-1,27
 170 491 170 491 203 403.5 c 128,-1,28
 236 316 236 316 290 254 c 128,-1,29
 344 192 344 192 411.5 147 c 0,30,31
 543.5 59 543.5 59 686 59 c 0,32,33
 879.428571429 59 879.428571429 59 1004.5 162 c 0,34,35
 1047 197 1047 197 1069.5 219.5 c 128,-1,36
 1092 242 1092 242 1119 282 c 128,-1,37
 1146 322 1146 322 1152 333 c 128,-1,38
 1158 344 1158 344 1174 373 c 1,39,-1
 1206 356 l 1,40,41
 1104.55021588 126.919842313 1104.55021588 126.919842313 985 54.5 c 0,42,43
 862.015873016 -20 862.015873016 -20 674 -20 c 0,44,45
 497.924528302 -20 497.924528302 -20 345.5 87 c 0,46,47
 182.735123166 201.258787711 182.735123166 201.258787711 118.5 380 c 0,48,49
 84 476 84 476 84 588.5 c 128,-1,50
 84 701 84 701 116.5 804 c 128,-1,51
 149 907 149 907 205.5 982 c 128,-1,52
 262 1057 262 1057 337 1111 c 0,53,54
 487 1219 487 1219 678 1219 c 0,55,56
 872.357723577 1219 872.357723577 1219 1005 1093.5 c 0,57,58
 1145 961.038461538 1145 961.038461538 1145 709 c 0,59,60
 1145 590.95 1145 590.95 1062 454 c 0,61,62
 1022 388 1022 388 951.5 343.5 c 128,-1,63
 881 299 881 299 795 299 c 0,64,65
 735.653061224 299 735.653061224 299 701.826530612 331.5 c 128,-1,66
 668 364 668 364 664 401 c 1,0,1
659.5 498 m 128,-1,68
 711 582 711 582 711 698.5 c 128,-1,69
 711 815 711 815 637 815 c 0,70,71
 594 815 594 815 537.5 727.5 c 128,-1,72
 481 640 481 640 481 566.5 c 0,73,74
 481 414 481 414 535 414 c 0,75,67
 608 414 608 414 659.5 498 c 128,-1,68
EndSplineSet
EndChar

StartChar: A
Encoding: 65 65 36
Width: 1159
GlyphClass: 2
Flags: HW
AnchorPoint: "Anchor-5" 508 590 basechar 0
AnchorPoint: "Anchor-4" 524 0 basechar 0
AnchorPoint: "Anchor-3" 1020 0 basechar 0
AnchorPoint: "Anchor-2" 909 0 basechar 0
AnchorPoint: "Anchor-1" 582 1270 basechar 0
LayerCount: 2
Fore
SplineSet
178 80 m 1,0,1
 198.35 43 198.35 43 305 43 c 1,2,-1
 305 0 l 1,3,-1
 -31 0 l 1,4,-1
 -31 43 l 1,5,6
 82.3636363636 43 82.3636363636 43 98 86 c 2,7,-1
 496 1198 l 1,8,-1
 662 1198 l 1,9,-1
 1063 86 l 2,10,11
 1078 43 1078 43 1194 43 c 1,12,-1
 1194 0 l 1,13,-1
 674 0 l 1,14,-1
 674 43 l 1,15,16
 768 43 768 43 793 68 c 1,17,-1
 678 381 l 1,18,-1
 285 381 l 1,19,-1
 178 80 l 1,0,1
479 926 m 1,20,-1
 309 449 l 1,21,-1
 653 449 l 1,22,-1
 479 926 l 1,20,-1
EndSplineSet
EndChar

StartChar: B
Encoding: 66 66 37
Width: 1226
GlyphClass: 2
Flags: HW
AnchorPoint: "Anchor-5" 385 324 basechar 0
AnchorPoint: "Anchor-4" 563 0 basechar 0
AnchorPoint: "Anchor-1" 551 1270 basechar 0
LayerCount: 2
Fore
SplineSet
1079 915 m 0,0,1
 1079 698.692307692 1079 698.692307692 846 627 c 1,2,3
 998 591 998 591 1083.5 512 c 128,-1,4
 1169 433 1169 433 1169 354 c 128,-1,5
 1169 275 1169 275 1140 212.5 c 128,-1,6
 1111 150 1111 150 1052.5 102 c 0,7,8
 928.1875 0 928.1875 0 678 0 c 2,9,-1
 74 0 l 1,10,-1
 74 43 l 1,11,12
 186.227272727 43 186.227272727 43 203 84 c 1,13,-1
 203 1114 l 1,14,15
 186.227272727 1155 186.227272727 1155 74 1155 c 1,16,-1
 74 1198 l 1,17,-1
 563 1198 l 2,18,19
 866.77027027 1198 866.77027027 1198 1002.5 1074 c 0,20,21
 1079 1004.11111111 1079 1004.11111111 1079 915 c 0,0,1
463 1128 m 1,22,-1
 463 653 l 1,23,-1
 557 653 l 2,24,25
 709.547945205 653 709.547945205 653 759.5 724.5 c 0,26,27
 803 786.764705882 803 786.764705882 803 913 c 0,28,29
 803 1128 803 1128 492 1128 c 2,30,-1
 463 1128 l 1,22,-1
463 594 m 1,31,-1
 463 70 l 1,32,-1
 606 70 l 2,33,34
 763 70 763 70 828 144 c 128,-1,35
 893 218 893 218 893 348 c 0,36,37
 893 525.428571429 893 525.428571429 709 578 c 0,38,39
 653 594 653 594 582 594 c 2,40,-1
 463 594 l 1,31,-1
EndSplineSet
EndChar

StartChar: C
Encoding: 67 67 38
Width: 1150
GlyphClass: 2
Flags: HW
AnchorPoint: "Anchor-4" 700 0 basechar 0
AnchorPoint: "Anchor-2" 700 0 basechar 0
AnchorPoint: "Anchor-1" 705 1270 basechar 0
LayerCount: 2
Fore
SplineSet
717 1149 m 0,0,1
 546 1149 546 1149 452 1007 c 128,-1,2
 358 865 358 865 358 607 c 128,-1,3
 358 349 358 349 459 199 c 128,-1,4
 560 49 560 49 725 49 c 0,5,6
 825 49 825 49 908 117.5 c 128,-1,7
 991 186 991 186 1022 270 c 1,8,-1
 1106 246 l 1,9,10
 1063.49193548 142.766129032 1063.49193548 142.766129032 971.5 67.5 c 0,11,12
 864.555555556 -20 864.555555556 -20 684 -20 c 0,13,14
 356.342105263 -20 356.342105263 -20 179.5 236 c 0,15,16
 74 388.723809524 74 388.723809524 74 582 c 0,17,18
 74 726 74 726 128.5 848 c 128,-1,19
 183 970 183 970 273.5 1050 c 0,20,21
 464.68125 1219 464.68125 1219 715 1219 c 0,22,23
 775 1219 775 1219 863.5 1188 c 128,-1,24
 952 1157 952 1157 963 1157 c 0,25,26
 987 1157 987 1157 987 1198 c 1,27,-1
 1034 1198 l 1,28,-1
 1051 909 l 1,29,-1
 1006 909 l 1,30,31
 994 993 994 993 899.5 1071 c 128,-1,32
 805 1149 805 1149 717 1149 c 0,0,1
EndSplineSet
EndChar

StartChar: D
Encoding: 68 68 39
Width: 1255
GlyphClass: 2
Flags: HW
AnchorPoint: "Anchor-5" 383 586 basechar 0
AnchorPoint: "Anchor-4" 510 0 basechar 0
AnchorPoint: "Anchor-2" 510 0 basechar 0
AnchorPoint: "Anchor-1" 567 1270 basechar 0
LayerCount: 2
Fore
SplineSet
203 1112 m 1,0,1
 186.227272727 1153 186.227272727 1153 74 1153 c 1,2,-1
 74 1196 l 1,3,-1
 545 1196 l 2,4,5
 727 1196 727 1196 871.5 1121 c 128,-1,6
 1016 1046 1016 1046 1098 909.5 c 128,-1,7
 1180 773 1180 773 1180 599.5 c 128,-1,8
 1180 426 1180 426 1098.5 287.5 c 128,-1,9
 1017 149 1017 149 878 73.5 c 128,-1,10
 739 -2 739 -2 569 -2 c 2,11,-1
 74 -2 l 1,12,-1
 74 41 l 1,13,14
 186.227272727 41 186.227272727 41 203 82 c 1,15,-1
 203 1112 l 1,0,1
463 1137 m 1,16,-1
 463 68 l 1,17,-1
 569 68 l 2,18,19
 739.133333333 68 739.133333333 68 833 244 c 0,20,21
 903 375.25 903 375.25 903 598 c 0,22,23
 903 995.64 903 995.64 680.5 1106 c 0,24,25
 618 1137 618 1137 545 1137 c 2,26,-1
 463 1137 l 1,16,-1
EndSplineSet
EndChar

StartChar: E
Encoding: 69 69 40
Width: 1030
GlyphClass: 2
Flags: HW
AnchorPoint: "Anchor-5" 334 336 basechar 0
AnchorPoint: "Anchor-4" 571 0 basechar 0
AnchorPoint: "Anchor-3" 819 0 basechar 0
AnchorPoint: "Anchor-2" 571 0 basechar 0
AnchorPoint: "Anchor-1" 567 1270 basechar 0
LayerCount: 2
Fore
SplineSet
739 459 m 1,0,1
 739 571.227272727 739 571.227272727 698 588 c 1,2,-1
 463 588 l 1,3,-1
 463 70 l 1,4,-1
 879 70 l 1,5,6
 928 90 928 90 971 199 c 1,7,-1
 1012 199 l 1,8,-1
 963 0 l 1,9,-1
 74 0 l 1,10,-1
 74 43 l 1,11,12
 186.227272727 43 186.227272727 43 203 84 c 1,13,-1
 203 1114 l 1,14,15
 186.227272727 1155 186.227272727 1155 74 1155 c 1,16,-1
 74 1198 l 1,17,-1
 920 1198 l 1,18,-1
 920 999 l 1,19,-1
 877 999 l 1,20,21
 877 1111.22727273 877 1111.22727273 836 1128 c 1,22,-1
 463 1128 l 1,23,-1
 463 657 l 1,24,-1
 698 657 l 1,25,26
 739 673.772727273 739 673.772727273 739 786 c 1,27,-1
 782 786 l 1,28,-1
 782 459 l 1,29,-1
 739 459 l 1,0,1
EndSplineSet
EndChar

StartChar: F
Encoding: 70 70 41
Width: 956
GlyphClass: 2
Flags: HW
AnchorPoint: "Anchor-1" 567 1270 basechar 0
LayerCount: 2
Fore
SplineSet
463 84 m 1,0,1
 479.772727273 43 479.772727273 43 592 43 c 1,2,-1
 592 0 l 1,3,-1
 74 0 l 1,4,-1
 74 43 l 1,5,6
 186.227272727 43 186.227272727 43 203 84 c 1,7,-1
 203 1114 l 1,8,9
 186.227272727 1155 186.227272727 1155 74 1155 c 1,10,-1
 74 1198 l 1,11,-1
 920 1198 l 1,12,-1
 920 999 l 1,13,-1
 877 999 l 1,14,15
 877 1111.22727273 877 1111.22727273 836 1128 c 1,16,-1
 463 1128 l 1,17,-1
 463 657 l 1,18,-1
 698 657 l 1,19,20
 739 673.772727273 739 673.772727273 739 786 c 1,21,-1
 782 786 l 1,22,-1
 782 459 l 1,23,-1
 739 459 l 1,24,25
 739 571.227272727 739 571.227272727 698 588 c 1,26,-1
 463 588 l 1,27,-1
 463 84 l 1,0,1
EndSplineSet
EndChar

StartChar: G
Encoding: 71 71 42
Width: 1275
GlyphClass: 2
Flags: HW
AnchorPoint: "Anchor-5" 1006 362 basechar 0
AnchorPoint: "Anchor-4" 696 0 basechar 0
AnchorPoint: "Anchor-2" 696 0 basechar 0
AnchorPoint: "Anchor-1" 735 1270 basechar 0
LayerCount: 2
Fore
SplineSet
997 1157 m 0,0,1
 1022 1157 1022 1157 1022 1198 c 1,2,-1
 1069 1198 l 1,3,-1
 1090 901 l 1,4,-1
 1044 901 l 1,5,6
 1032 984 1032 984 929.5 1066.5 c 128,-1,7
 827 1149 827 1149 727 1149 c 128,-1,8
 627 1149 627 1149 537.5 1073 c 128,-1,9
 448 997 448 997 400 869 c 128,-1,10
 352 741 352 741 352 592 c 128,-1,11
 352 443 352 443 383 335.5 c 128,-1,12
 414 228 414 228 467 167.5 c 0,13,14
 570.809917355 49 570.809917355 49 713 49 c 0,15,16
 794 49 794 49 868 68 c 1,17,-1
 868 508 l 1,18,19
 851.227272727 549 851.227272727 549 739 549 c 1,20,-1
 739 592 l 1,21,-1
 1257 592 l 1,22,-1
 1257 549 l 1,23,24
 1144.77272727 549 1144.77272727 549 1128 508 c 1,25,-1
 1128 164 l 1,26,27
 1096.66666667 107.6 1096.66666667 107.6 1022.83333333 63.3 c 0,28,29
 884 -20 884 -20 727 -20 c 128,-1,30
 570 -20 570 -20 448.5 30.5 c 128,-1,31
 327 81 327 81 245 164.5 c 128,-1,32
 163 248 163 248 115.5 357 c 128,-1,33
 68 466 68 466 68 581.5 c 128,-1,34
 68 697 68 697 106.5 800 c 128,-1,35
 145 903 145 903 211.5 978 c 128,-1,36
 278 1053 278 1053 363.5 1108.5 c 0,37,38
 533.72972973 1219 533.72972973 1219 739 1219 c 0,39,40
 799 1219 799 1219 892.5 1188 c 128,-1,41
 986 1157 986 1157 997 1157 c 0,0,1
EndSplineSet
EndChar

StartChar: H
Encoding: 72 72 43
Width: 1378
GlyphClass: 2
Flags: HW
AnchorPoint: "Anchor-5" 682 860 basechar 0
AnchorPoint: "Anchor-4" 684 0 basechar 0
AnchorPoint: "Anchor-2" 684 0 basechar 0
AnchorPoint: "Anchor-1" 686 1270 basechar 0
LayerCount: 2
Fore
SplineSet
463 84 m 1,0,1
 479.772727273 43 479.772727273 43 592 43 c 1,2,-1
 592 0 l 1,3,-1
 74 0 l 1,4,-1
 74 43 l 1,5,6
 186.227272727 43 186.227272727 43 203 84 c 1,7,-1
 203 1114 l 1,8,9
 186.227272727 1155 186.227272727 1155 74 1155 c 1,10,-1
 74 1198 l 1,11,-1
 592 1198 l 1,12,-1
 592 1155 l 1,13,14
 479.772727273 1155 479.772727273 1155 463 1114 c 1,15,-1
 463 657 l 1,16,-1
 915 657 l 1,17,-1
 915 1114 l 1,18,19
 898.227272727 1155 898.227272727 1155 786 1155 c 1,20,-1
 786 1198 l 1,21,-1
 1305 1198 l 1,22,-1
 1305 1155 l 1,23,24
 1192.77272727 1155 1192.77272727 1155 1176 1114 c 1,25,-1
 1176 84 l 1,26,27
 1192.77272727 43 1192.77272727 43 1305 43 c 1,28,-1
 1305 0 l 1,29,-1
 786 0 l 1,30,-1
 786 43 l 1,31,32
 898.227272727 43 898.227272727 43 915 84 c 1,33,-1
 915 588 l 1,34,-1
 463 588 l 1,35,-1
 463 84 l 1,0,1
EndSplineSet
EndChar

StartChar: I
Encoding: 73 73 44
Width: 665
GlyphClass: 2
Flags: HW
AnchorPoint: "Anchor-5" 350 602 basechar 0
AnchorPoint: "Anchor-4" 342 0 basechar 0
AnchorPoint: "Anchor-3" 449 0 basechar 0
AnchorPoint: "Anchor-2" 344 0 basechar 0
AnchorPoint: "Anchor-1" 342 1270 basechar 0
LayerCount: 2
Fore
SplineSet
463 84 m 1,0,1
 479.772727273 43 479.772727273 43 592 43 c 1,2,-1
 592 0 l 1,3,-1
 74 0 l 1,4,-1
 74 43 l 1,5,6
 186.227272727 43 186.227272727 43 203 84 c 1,7,-1
 203 1114 l 1,8,9
 186.227272727 1155 186.227272727 1155 74 1155 c 1,10,-1
 74 1198 l 1,11,-1
 592 1198 l 1,12,-1
 592 1155 l 1,13,14
 479.772727273 1155 479.772727273 1155 463 1114 c 1,15,-1
 463 84 l 1,0,1
EndSplineSet
EndChar

StartChar: J
Encoding: 74 74 45
Width: 868
GlyphClass: 2
Flags: HW
AnchorPoint: "Anchor-1" 578 1270 basechar 0
LayerCount: 2
Fore
SplineSet
829 1155 m 1,0,1
 716.772727273 1155 716.772727273 1155 700 1114 c 1,2,-1
 700 446 l 2,3,4
 700 209 700 209 604.5 94.5 c 128,-1,5
 509 -20 509 -20 309 -20 c 0,6,7
 164 -20 164 -20 83 38 c 128,-1,8
 2 96 2 96 2 164 c 0,9,10
 2 211 2 211 31.5 249 c 128,-1,11
 61 287 61 287 98 287 c 128,-1,12
 135 287 135 287 169 259 c 128,-1,13
 203 231 203 231 203 195 c 0,14,15
 203 125 203 125 152 109 c 1,16,17
 153 108 153 108 160.5 98.5 c 128,-1,18
 168 89 168 89 175.5 83 c 128,-1,19
 183 77 183 77 197 69 c 0,20,21
 225 53 225 53 280.5 53 c 128,-1,22
 336 53 336 53 366 81.5 c 128,-1,23
 396 110 396 110 412 173 c 0,24,25
 440 283.25 440 283.25 440 520 c 2,26,-1
 440 1114 l 1,27,28
 423.227272727 1155 423.227272727 1155 311 1155 c 1,29,-1
 311 1198 l 1,30,-1
 829 1198 l 1,31,-1
 829 1155 l 1,0,1
EndSplineSet
EndChar

StartChar: K
Encoding: 75 75 46
Width: 1284
GlyphClass: 2
Flags: HW
AnchorPoint: "Anchor-5" 379 946 basechar 0
AnchorPoint: "Anchor-4" 709 0 basechar 0
AnchorPoint: "Anchor-2" 709 0 basechar 0
AnchorPoint: "Anchor-1" 727 1270 basechar 0
LayerCount: 2
Fore
SplineSet
459 84 m 1,0,1
 475.772727273 43 475.772727273 43 588 43 c 1,2,-1
 588 0 l 1,3,-1
 74 0 l 1,4,-1
 74 43 l 1,5,6
 186.227272727 43 186.227272727 43 203 84 c 1,7,-1
 203 1114 l 1,8,9
 186.227272727 1155 186.227272727 1155 74 1155 c 1,10,-1
 74 1198 l 1,11,-1
 588 1198 l 1,12,-1
 588 1155 l 1,13,14
 475.772727273 1155 475.772727273 1155 459 1114 c 1,15,-1
 459 84 l 1,0,1
860 0 m 1,16,-1
 860 43 l 1,17,18
 909 43 909 43 936 49 c 1,19,-1
 469 643 l 1,20,-1
 971 1141 l 1,21,22
 943 1155 943 1155 866 1155 c 1,23,-1
 866 1198 l 1,24,-1
 1188 1198 l 1,25,-1
 1188 1155 l 1,26,27
 1123.5 1155 1123.5 1155 1103.25 1141.5 c 128,-1,28
 1083 1128 1083 1128 1080 1125.5 c 0,29,30
 1071 1118 1071 1118 1061 1108 c 2,31,-1
 688 741 l 1,32,-1
 1202 76 l 2,33,34
 1228 43 1228 43 1331 43 c 1,35,-1
 1331 0 l 1,36,-1
 860 0 l 1,16,-1
EndSplineSet
EndChar

StartChar: L
Encoding: 76 76 47
Width: 1019
GlyphClass: 2
Flags: HW
AnchorPoint: "Anchor-5" 338 698 basechar 0
AnchorPoint: "Anchor-4" 569 0 basechar 0
AnchorPoint: "Anchor-2" 569 0 basechar 0
AnchorPoint: "Anchor-1" 334 1270 basechar 0
LayerCount: 2
Fore
SplineSet
592 1155 m 1,0,1
 479.772727273 1155 479.772727273 1155 463 1114 c 1,2,-1
 463 70 l 1,3,-1
 889 70 l 1,4,5
 938 90 938 90 981 199 c 1,6,-1
 1022 199 l 1,7,-1
 973 0 l 1,8,-1
 74 0 l 1,9,-1
 74 43 l 1,10,11
 186.227272727 43 186.227272727 43 203 84 c 1,12,-1
 203 1114 l 1,13,14
 186.227272727 1155 186.227272727 1155 74 1155 c 1,15,-1
 74 1198 l 1,16,-1
 592 1198 l 1,17,-1
 592 1155 l 1,0,1
EndSplineSet
EndChar

StartChar: M
Encoding: 77 77 48
Width: 1765
GlyphClass: 2
Flags: HW
AnchorPoint: "Anchor-4" 793 0 basechar 0
AnchorPoint: "Anchor-2" 793 0 basechar 0
AnchorPoint: "Anchor-1" 858 1270 basechar 0
LayerCount: 2
Fore
SplineSet
272 84 m 1,0,1
 288.772727273 43 288.772727273 43 401 43 c 1,2,-1
 401 0 l 1,3,-1
 74 0 l 1,4,-1
 74 43 l 1,5,6
 186.227272727 43 186.227272727 43 203 84 c 1,7,-1
 203 1114 l 1,8,9
 186.227272727 1155 186.227272727 1155 74 1155 c 1,10,-1
 74 1198 l 1,11,-1
 444 1198 l 1,12,-1
 881 246 l 1,13,-1
 1317 1198 l 1,14,-1
 1692 1198 l 1,15,-1
 1692 1155 l 1,16,17
 1579.77272727 1155 1579.77272727 1155 1563 1114 c 1,18,-1
 1563 84 l 1,19,20
 1579.77272727 43 1579.77272727 43 1692 43 c 1,21,-1
 1692 0 l 1,22,-1
 1174 0 l 1,23,-1
 1174 43 l 1,24,25
 1286.22727273 43 1286.22727273 43 1303 84 c 1,26,-1
 1303 1004 l 1,27,-1
 844 0 l 1,28,-1
 741 0 l 1,29,-1
 272 1016 l 1,30,-1
 272 84 l 1,0,1
EndSplineSet
EndChar

StartChar: N
Encoding: 78 78 49
Width: 1275
GlyphClass: 2
Flags: HW
AnchorPoint: "Anchor-5" 662 676 basechar 0
AnchorPoint: "Anchor-4" 639 0 basechar 0
AnchorPoint: "Anchor-2" 639 0 basechar 0
AnchorPoint: "Anchor-1" 639 1270 basechar 0
LayerCount: 2
Fore
SplineSet
272 84 m 1,0,1
 288.772727273 43 288.772727273 43 401 43 c 1,2,-1
 401 0 l 1,3,-1
 74 0 l 1,4,-1
 74 43 l 1,5,6
 186.227272727 43 186.227272727 43 203 84 c 1,7,-1
 203 1114 l 1,8,9
 186.227272727 1155 186.227272727 1155 74 1155 c 1,10,-1
 74 1198 l 1,11,-1
 420 1198 l 1,12,-1
 1026 369 l 1,13,-1
 1026 1114 l 1,14,15
 1009.22727273 1155 1009.22727273 1155 897 1155 c 1,16,-1
 897 1198 l 1,17,-1
 1225 1198 l 1,18,-1
 1225 1155 l 1,19,20
 1112.77272727 1155 1112.77272727 1155 1096 1114 c 1,21,-1
 1096 0 l 1,22,-1
 1006 0 l 1,23,-1
 272 1014 l 1,24,-1
 272 84 l 1,0,1
EndSplineSet
EndChar

StartChar: O
Encoding: 79 79 50
Width: 1359
GlyphClass: 2
Flags: HW
AnchorPoint: "Anchor-5" 700 602 basechar 0
AnchorPoint: "Anchor-4" 690 0 basechar 0
AnchorPoint: "Anchor-3" 750 0 basechar 0
AnchorPoint: "Anchor-2" 690 0 basechar 0
AnchorPoint: "Anchor-1" 688 1270 basechar 0
AnchorPoint: "Anchor-0" 1081 901 basechar 0
LayerCount: 2
Fore
SplineSet
357 761.5 m 128,-1,1
 348 691 348 691 348 612.5 c 128,-1,2
 348 534 348 534 358.5 458 c 128,-1,3
 369 382 369 382 394.5 306.5 c 128,-1,4
 420 231 420 231 457.5 175 c 128,-1,5
 495 119 495 119 554.5 84 c 128,-1,6
 614 49 614 49 696.5 49 c 128,-1,7
 779 49 779 49 845.5 97.5 c 128,-1,8
 912 146 912 146 946.5 227.5 c 0,9,10
 1012 382.231884058 1012 382.231884058 1012 582 c 0,11,12
 1012 789.263157895 1012 789.263157895 937 959 c 0,13,14
 899 1045 899 1045 830.5 1097 c 128,-1,15
 762 1149 762 1149 680 1149 c 128,-1,16
 598 1149 598 1149 540 1115.5 c 128,-1,17
 482 1082 482 1082 447 1029.5 c 128,-1,18
 412 977 412 977 389 904.5 c 128,-1,0
 366 832 366 832 357 761.5 c 128,-1,1
152 291 m 128,-1,20
 72 433 72 433 72 577 c 128,-1,21
 72 721 72 721 120 835.5 c 128,-1,22
 168 950 168 950 249 1034 c 128,-1,23
 330 1118 330 1118 443 1168.5 c 128,-1,24
 556 1219 556 1219 680 1219 c 128,-1,25
 804 1219 804 1219 917 1168.5 c 128,-1,26
 1030 1118 1030 1118 1111 1034 c 128,-1,27
 1192 950 1192 950 1240 835.5 c 128,-1,28
 1288 721 1288 721 1288 577.5 c 128,-1,29
 1288 434 1288 434 1206.5 291.5 c 128,-1,30
 1125 149 1125 149 984.5 64.5 c 128,-1,31
 844 -20 844 -20 678.5 -20 c 128,-1,32
 513 -20 513 -20 372.5 64.5 c 128,-1,19
 232 149 232 149 152 291 c 128,-1,20
EndSplineSet
EndChar

StartChar: P
Encoding: 80 80 51
Width: 1157
GlyphClass: 2
Flags: HW
AnchorPoint: "Anchor-5" 340 328 basechar 0
AnchorPoint: "Anchor-4" 334 0 basechar 0
AnchorPoint: "Anchor-2" 334 0 basechar 0
AnchorPoint: "Anchor-1" 522 1270 basechar 0
LayerCount: 2
Fore
SplineSet
463 84 m 1,0,1
 479.772727273 43 479.772727273 43 592 43 c 1,2,-1
 592 0 l 1,3,-1
 74 0 l 1,4,-1
 74 43 l 1,5,6
 186.227272727 43 186.227272727 43 203 84 c 1,7,-1
 203 1114 l 1,8,9
 186.227272727 1155 186.227272727 1155 74 1155 c 1,10,-1
 74 1198 l 1,11,-1
 618 1198 l 2,12,13
 749 1198 749 1198 852.5 1169 c 128,-1,14
 956 1140 956 1140 1015.5 1093.5 c 0,15,16
 1135 1000.1092437 1135 1000.1092437 1135 887 c 0,17,18
 1135 733 1135 733 1012 639 c 128,-1,19
 889 545 889 545 643 545 c 2,20,-1
 463 545 l 1,21,-1
 463 84 l 1,0,1
463 1128 m 1,22,-1
 463 614 l 1,23,-1
 571 614 l 2,24,25
 728 614 728 614 793 677 c 128,-1,26
 858 740 858 740 858 885 c 0,27,28
 858 1128 858 1128 547 1128 c 2,29,-1
 463 1128 l 1,22,-1
EndSplineSet
EndChar

StartChar: Q
Encoding: 81 81 52
Width: 1359
GlyphClass: 2
Flags: HW
LayerCount: 2
Fore
SplineSet
1120 -135 m 0,0,1
 1221.33333333 -135 1221.33333333 -135 1284 -41 c 1,2,-1
 1315 -63 l 1,3,4
 1309.36363636 -79.9090909091 1309.36363636 -79.9090909091 1288.68181818 -109.454545455 c 128,-1,5
 1268 -139 1268 -139 1247 -158 c 0,6,7
 1156.63072011 -239.762681802 1156.63072011 -239.762681802 991.5 -193 c 0,8,9
 863.01179302 -156.613959085 863.01179302 -156.613959085 788 -10 c 1,10,11
 730 -20 730 -20 680 -20 c 0,12,13
 513 -20 513 -20 372.5 64.5 c 128,-1,14
 232 149 232 149 152 291 c 128,-1,15
 72 433 72 433 72 577 c 128,-1,16
 72 721 72 721 120 835.5 c 128,-1,17
 168 950 168 950 249 1034 c 128,-1,18
 330 1118 330 1118 443 1168.5 c 128,-1,19
 556 1219 556 1219 680 1219 c 128,-1,20
 804 1219 804 1219 917 1168.5 c 128,-1,21
 1030 1118 1030 1118 1111 1034 c 128,-1,22
 1192 950 1192 950 1240 835.5 c 128,-1,23
 1288 721 1288 721 1288 575 c 128,-1,24
 1288 429 1288 429 1201 283.5 c 128,-1,25
 1114 138 1114 138 971 57 c 1,26,27
 976 45 976 45 987.5 15.5 c 128,-1,28
 999 -14 999 -14 1004 -26 c 128,-1,29
 1009 -38 1009 -38 1020 -60 c 128,-1,30
 1031 -82 1031 -82 1039.5 -91.5 c 128,-1,31
 1048 -101 1048 -101 1060.5 -113.5 c 0,32,33
 1082 -135 1082 -135 1120 -135 c 0,0,1
758 57 m 1,34,35
 712.941176471 158.382352941 712.941176471 158.382352941 693.970588235 174.191176471 c 0,36,37
 652.2 209 652.2 209 612 209 c 0,38,39
 530 209 530 209 465 166 c 1,40,41
 551 49 551 49 688 49 c 0,42,43
 731 49 731 49 758 57 c 1,34,35
911 168 m 1,44,45
 1012 313 1012 313 1012 582 c 0,46,47
 1012 789.263157895 1012 789.263157895 937 959 c 0,48,49
 899 1045 899 1045 830.5 1097 c 128,-1,50
 762 1149 762 1149 680 1149 c 128,-1,51
 598 1149 598 1149 540 1115.5 c 128,-1,52
 482 1082 482 1082 447 1029.5 c 128,-1,53
 412 977 412 977 389 904.5 c 0,54,55
 348 775.260869565 348 775.260869565 348 614 c 0,56,57
 348 380 348 380 432 219 c 1,58,59
 512 299 512 299 625 299 c 0,60,61
 817 299 817 299 911 168 c 1,44,45
EndSplineSet
EndChar

StartChar: R
Encoding: 82 82 53
Width: 1206
GlyphClass: 2
Flags: HW
AnchorPoint: "Anchor-5" 340 328 basechar 0
AnchorPoint: "Anchor-4" 690 0 basechar 0
AnchorPoint: "Anchor-2" 690 0 basechar 0
AnchorPoint: "Anchor-1" 612 1270 basechar 0
LayerCount: 2
Fore
SplineSet
463 84 m 1,0,1
 479.772727273 43 479.772727273 43 592 43 c 1,2,-1
 592 0 l 1,3,-1
 74 0 l 1,4,-1
 74 43 l 1,5,6
 186.227272727 43 186.227272727 43 203 84 c 1,7,-1
 203 1114 l 1,8,9
 186.227272727 1155 186.227272727 1155 74 1155 c 1,10,-1
 74 1198 l 1,11,-1
 578 1198 l 2,12,13
 843.076923077 1198 843.076923077 1198 974.5 1097.5 c 0,14,15
 1094 1006.11764706 1094 1006.11764706 1094 894.058823529 c 128,-1,16
 1094 782 1094 782 1026.5 696.5 c 128,-1,17
 959 611 959 611 825 573 c 1,18,-1
 1098 86 l 1,19,20
 1119 43 1119 43 1233 43 c 1,21,-1
 1233 0 l 1,22,-1
 1145 0 l 2,23,24
 983 0 983 0 906.5 18.5 c 128,-1,25
 830 37 830 37 791 106 c 2,26,-1
 543 545 l 1,27,-1
 463 545 l 1,28,-1
 463 84 l 1,0,1
463 1128 m 1,29,-1
 463 614 l 1,30,-1
 530 614 l 2,31,32
 668 614 668 614 742.5 676.5 c 128,-1,33
 817 739 817 739 817 893 c 0,34,35
 817 1012 817 1012 734 1070 c 128,-1,36
 651 1128 651 1128 506 1128 c 2,37,-1
 463 1128 l 1,29,-1
EndSplineSet
EndChar

StartChar: S
Encoding: 83 83 54
Width: 962
GlyphClass: 2
Flags: HW
AnchorPoint: "Anchor-5" 506 602 basechar 0
AnchorPoint: "Anchor-4" 496 0 basechar 0
AnchorPoint: "Anchor-2" 496 0 basechar 0
AnchorPoint: "Anchor-1" 471 1270 basechar 0
LayerCount: 2
Fore
SplineSet
702 1157 m 0,0,1
 727 1157 727 1157 727 1198 c 1,2,-1
 774 1198 l 1,3,-1
 795 889 l 1,4,-1
 750 889 l 1,5,6
 738 974 738 974 639.5 1061.5 c 128,-1,7
 541 1149 541 1149 467 1149 c 128,-1,8
 393 1149 393 1149 348.5 1117 c 0,9,10
 270 1060.5505618 270 1060.5505618 270 967 c 0,11,12
 270 893.016949153 270 893.016949153 450.5 789 c 0,13,14
 648.005444646 675.183303085 648.005444646 675.183303085 706.502722323 630.091651543 c 128,-1,15
 765 585 765 585 810.5 536.5 c 0,16,17
 903 437.901098901 903 437.901098901 903 303 c 0,18,19
 903 225 903 225 867 161.5 c 128,-1,20
 831 98 831 98 772.5 59.5 c 0,21,22
 651.701298701 -20 651.701298701 -20 500 -20 c 0,23,24
 372.161290323 -20 372.161290323 -20 243 25.5 c 0,25,26
 199 41 199 41 186 41 c 128,-1,27
 173 41 173 41 157 29 c 128,-1,28
 141 17 141 17 141 0 c 1,29,-1
 94 0 l 1,30,-1
 94 324 l 1,31,-1
 139 324 l 1,32,33
 151 261 151 261 191 207 c 128,-1,34
 231 153 231 153 282.5 120 c 0,35,36
 393.303030303 49 393.303030303 49 491.151515152 49 c 128,-1,37
 589 49 589 49 652 103 c 128,-1,38
 715 157 715 157 715 246 c 0,39,40
 715 307.047619048 715 307.047619048 635 368 c 0,41,42
 571.235546039 416.582441113 571.235546039 416.582441113 486.117773019 466.291220557 c 128,-1,43
 401 516 401 516 375 532 c 0,44,45
 96 704 96 704 96 901 c 0,46,47
 96 980 96 980 147 1054 c 128,-1,48
 198 1128 198 1128 281.5 1173.5 c 128,-1,49
 365 1219 365 1219 440 1219 c 128,-1,50
 515 1219 515 1219 603 1188 c 128,-1,51
 691 1157 691 1157 702 1157 c 0,0,1
EndSplineSet
EndChar

StartChar: T
Encoding: 84 84 55
Width: 1112
GlyphClass: 2
Flags: HW
AnchorPoint: "Anchor-5" 559 647 basechar 0
AnchorPoint: "Anchor-4" 561 0 basechar 0
AnchorPoint: "Anchor-2" 561 0 basechar 0
AnchorPoint: "Anchor-1" 561 1270 basechar 0
LayerCount: 2
Fore
SplineSet
297 43 m 1,0,1
 409.227272727 43 409.227272727 43 426 84 c 1,2,-1
 426 1128 l 1,3,-1
 141 1128 l 1,4,5
 70 1099 70 1099 70 999 c 1,6,-1
 27 999 l 1,7,-1
 27 1198 l 1,8,-1
 1085 1198 l 1,9,-1
 1085 999 l 1,10,-1
 1042 999 l 1,11,12
 1042 1099 1042 1099 971 1128 c 1,13,-1
 686 1128 l 1,14,-1
 686 84 l 1,15,16
 702.772727273 43 702.772727273 43 815 43 c 1,17,-1
 815 0 l 1,18,-1
 297 0 l 1,19,-1
 297 43 l 1,0,1
EndSplineSet
EndChar

StartChar: U
Encoding: 85 85 56
Width: 1236
GlyphClass: 2
Flags: HW
AnchorPoint: "Anchor-5" 707 694 basechar 0
AnchorPoint: "Anchor-4" 662 0 basechar 0
AnchorPoint: "Anchor-3" 662 0 basechar 0
AnchorPoint: "Anchor-2" 662 0 basechar 0
AnchorPoint: "Anchor-1" 719 1270 basechar 0
LayerCount: 2
Fore
SplineSet
555 1155 m 1,0,1
 442.772727273 1155 442.772727273 1155 426 1114 c 1,2,-1
 426 479 l 2,3,4
 426 269 426 269 498 159 c 128,-1,5
 570 49 570 49 706.5 49 c 128,-1,6
 843 49 843 49 922 161.5 c 128,-1,7
 1001 274 1001 274 1001 467 c 2,8,-1
 1001 1114 l 1,9,10
 984.227272727 1155 984.227272727 1155 872 1155 c 1,11,-1
 872 1198 l 1,12,-1
 1200 1198 l 1,13,-1
 1200 1155 l 1,14,15
 1087.77272727 1155 1087.77272727 1155 1071 1114 c 1,16,-1
 1071 508 l 2,17,18
 1071 118.406896552 1071 118.406896552 814.5 10.5 c 0,19,20
 742 -20 742 -20 657 -20 c 0,21,22
 166 -20 166 -20 166 508 c 2,23,-1
 166 1114 l 1,24,25
 149.227272727 1155 149.227272727 1155 37 1155 c 1,26,-1
 37 1198 l 1,27,-1
 555 1198 l 1,28,-1
 555 1155 l 1,0,1
EndSplineSet
EndChar

StartChar: V
Encoding: 86 86 57
Width: 1159
GlyphClass: 2
Flags: HW
AnchorPoint: "Anchor-5" 676 901 basechar 0
AnchorPoint: "Anchor-4" 588 0 basechar 0
AnchorPoint: "Anchor-2" 588 0 basechar 0
AnchorPoint: "Anchor-1" 678 1270 basechar 0
LayerCount: 2
Fore
SplineSet
981 1118 m 1,0,1
 960.65 1155 960.65 1155 854 1155 c 1,2,-1
 854 1198 l 1,3,-1
 1190 1198 l 1,4,-1
 1190 1155 l 1,5,6
 1076.63636364 1155 1076.63636364 1155 1061 1112 c 2,7,-1
 664 0 l 1,8,-1
 498 0 l 1,9,-1
 96 1112 l 2,10,11
 81 1155 81 1155 -35 1155 c 1,12,-1
 -35 1198 l 1,13,-1
 485 1198 l 1,14,-1
 485 1155 l 1,15,16
 392 1155 392 1155 367 1130 c 1,17,-1
 680 272 l 1,18,-1
 981 1118 l 1,0,1
EndSplineSet
EndChar

StartChar: W
Encoding: 87 87 58
Width: 1837
GlyphClass: 2
Flags: HW
AnchorPoint: "Anchor-5" 922 602 basechar 0
AnchorPoint: "Anchor-4" 934 0 basechar 0
AnchorPoint: "Anchor-3" 1255 0 basechar 0
AnchorPoint: "Anchor-2" 934 0 basechar 0
AnchorPoint: "Anchor-1" 879 1270 basechar 0
LayerCount: 2
Fore
SplineSet
1661 1118 m 1,0,1
 1640.65 1155 1640.65 1155 1534 1155 c 1,2,-1
 1534 1198 l 1,3,-1
 1870 1198 l 1,4,-1
 1870 1155 l 1,5,6
 1756.63636364 1155 1756.63636364 1155 1741 1112 c 2,7,-1
 1343 0 l 1,8,-1
 1174 0 l 1,9,-1
 918 715 l 1,10,-1
 664 0 l 1,11,-1
 494 0 l 1,12,-1
 96 1112 l 2,13,14
 81 1155 81 1155 -35 1155 c 1,15,-1
 -35 1198 l 1,16,-1
 485 1198 l 1,17,-1
 485 1155 l 1,18,19
 392 1155 392 1155 367 1130 c 1,20,-1
 680 274 l 1,21,-1
 877 829 l 1,22,-1
 776 1112 l 2,23,24
 761 1155 761 1155 645 1155 c 1,25,-1
 645 1198 l 1,26,-1
 1165 1198 l 1,27,-1
 1165 1155 l 1,28,29
 1072 1155 1072 1155 1047 1130 c 1,30,-1
 1360 272 l 1,31,-1
 1661 1118 l 1,0,1
EndSplineSet
EndChar

StartChar: X
Encoding: 88 88 59
Width: 1095
GlyphClass: 2
Flags: HW
LayerCount: 2
Fore
SplineSet
512 1198 m 1,0,-1
 512 1155 l 1,1,2
 415 1155 415 1155 393 1130 c 1,3,-1
 602 764 l 1,4,-1
 848 1124 l 1,5,6
 829 1155 829 1155 725 1155 c 1,7,-1
 725 1198 l 1,8,-1
 1061 1198 l 1,9,-1
 1061 1155 l 1,10,11
 999 1155 999 1155 971.5 1146 c 128,-1,12
 944 1137 944 1137 930 1114 c 1,13,-1
 643 694 l 1,14,-1
 991 86 l 1,15,16
 1013 43 1013 43 1122 43 c 1,17,-1
 1122 0 l 1,18,-1
 602 0 l 1,19,-1
 602 43 l 1,20,21
 699 43 699 43 721 68 c 1,22,-1
 492 471 l 1,23,-1
 219 72 l 1,24,25
 242 43 242 43 342 43 c 1,26,-1
 342 0 l 1,27,-1
 6 0 l 1,28,-1
 6 43 l 1,29,30
 112.857142857 43 112.857142857 43 137 82 c 1,31,-1
 451 541 l 1,32,-1
 123 1114 l 2,33,34
 99 1155 99 1155 -8 1155 c 1,35,-1
 -8 1198 l 1,36,-1
 512 1198 l 1,0,-1
EndSplineSet
EndChar

StartChar: Y
Encoding: 89 89 60
Width: 1196
GlyphClass: 2
Flags: HW
AnchorPoint: "Anchor-5" 614 410 basechar 0
AnchorPoint: "Anchor-4" 618 0 basechar 0
AnchorPoint: "Anchor-3" 684 0 basechar 0
AnchorPoint: "Anchor-2" 623 0 basechar 0
AnchorPoint: "Anchor-1" 700 1270 basechar 0
LayerCount: 2
Fore
SplineSet
348 43 m 1,0,1
 460.227272727 43 460.227272727 43 477 84 c 1,2,-1
 477 451 l 1,3,-1
 98 1114 l 2,4,5
 75 1155 75 1155 -33 1155 c 1,6,-1
 -33 1198 l 1,7,-1
 487 1198 l 1,8,-1
 487 1155 l 1,9,10
 391 1155 391 1155 369 1130 c 1,11,-1
 686 575 l 1,12,-1
 1014 1118 l 1,13,14
 993 1155 993 1155 887 1155 c 1,15,-1
 887 1198 l 1,16,-1
 1223 1198 l 1,17,-1
 1223 1155 l 1,18,19
 1122 1155 1122 1155 1106 1128 c 2,20,-1
 737 516 l 1,21,-1
 737 84 l 1,22,23
 753.772727273 43 753.772727273 43 866 43 c 1,24,-1
 866 0 l 1,25,-1
 348 0 l 1,26,-1
 348 43 l 1,0,1
EndSplineSet
EndChar

StartChar: Z
Encoding: 90 90 61
Width: 1007
GlyphClass: 2
Flags: HW
AnchorPoint: "Anchor-5" 475 602 basechar 0
AnchorPoint: "Anchor-4" 520 0 basechar 0
AnchorPoint: "Anchor-2" 520 0 basechar 0
AnchorPoint: "Anchor-1" 500 1270 basechar 0
LayerCount: 2
Fore
SplineSet
913 0 m 1,0,-1
 29 0 l 1,1,-1
 608 1137 l 1,2,-1
 213 1137 l 1,3,4
 189 1127 189 1127 165 1077 c 128,-1,5
 141 1027 141 1027 141 967 c 1,6,-1
 98 967 l 1,7,-1
 98 1198 l 1,8,-1
 924 1198 l 1,9,-1
 344 61 l 1,10,-1
 799 61 l 1,11,12
 823 71 823 71 863.5 130.5 c 128,-1,13
 904 190 904 190 922 250 c 1,14,-1
 965 250 l 1,15,-1
 913 0 l 1,0,-1
EndSplineSet
EndChar

StartChar: bracketleft
Encoding: 91 91 62
Width: 567
GlyphClass: 2
Flags: HW
LayerCount: 2
Fore
SplineSet
360 1186 m 1,0,-1
 360 -246 l 1,1,-1
 526 -246 l 1,2,-1
 526 -319 l 1,3,-1
 125 -319 l 1,4,-1
 125 1260 l 1,5,-1
 526 1260 l 1,6,-1
 526 1186 l 1,7,-1
 360 1186 l 1,0,-1
EndSplineSet
EndChar

StartChar: backslash
Encoding: 92 92 63
Width: 970
GlyphClass: 2
Flags: HW
LayerCount: 2
Fore
SplineSet
934 -20 m 1,0,-1
 834 -57 l 1,1,-1
 37 1217 l 1,2,-1
 137 1253 l 1,3,-1
 934 -20 l 1,0,-1
EndSplineSet
EndChar

StartChar: bracketright
Encoding: 93 93 64
Width: 567
GlyphClass: 2
Flags: HW
LayerCount: 2
Fore
SplineSet
207 -246 m 1,0,-1
 207 1186 l 1,1,-1
 41 1186 l 1,2,-1
 41 1260 l 1,3,-1
 442 1260 l 1,4,-1
 442 -319 l 1,5,-1
 41 -319 l 1,6,-1
 41 -246 l 1,7,-1
 207 -246 l 1,0,-1
EndSplineSet
EndChar

StartChar: asciicircum
Encoding: 94 94 65
Width: 933
GlyphClass: 2
Flags: HW
LayerCount: 2
Fore
SplineSet
494 1122 m 1,0,-1
 831 721 l 1,1,-1
 762 631 l 1,2,-1
 467 983 l 1,3,-1
 172 631 l 1,4,-1
 102 721 l 1,5,-1
 438 1122 l 1,6,-1
 494 1122 l 1,0,-1
EndSplineSet
EndChar

StartChar: underscore
Encoding: 95 95 66
Width: 933
GlyphClass: 2
Flags: HW
LayerCount: 2
Fore
SplineSet
94 -102 m 1,0,-1
 840 -102 l 1,1,-1
 840 -193 l 1,2,-1
 94 -193 l 1,3,-1
 94 -102 l 1,0,-1
EndSplineSet
EndChar

StartChar: grave
Encoding: 96 96 67
Width: 614
GlyphClass: 2
Flags: HW
LayerCount: 2
Fore
SplineSet
381 1356 m 1,0,-1
 492 1024 l 1,1,-1
 397 1024 l 1,2,-1
 123 1356 l 1,3,-1
 381 1356 l 1,0,-1
EndSplineSet
EndChar

StartChar: a
Encoding: 97 97 68
Width: 1030
GlyphClass: 2
Flags: HW
AnchorPoint: "Anchor-5" 467 242 basechar 0
AnchorPoint: "Anchor-4" 506 0 basechar 0
AnchorPoint: "Anchor-3" 864 0 basechar 0
AnchorPoint: "Anchor-2" 426 0 basechar 0
AnchorPoint: "Anchor-1" 475 1055 basechar 0
LayerCount: 2
Fore
SplineSet
266 750 m 1,0,1
 313 750 313 750 313 666 c 0,2,3
 313 631 313 631 278.5 612.5 c 128,-1,4
 244 594 244 594 204 594 c 128,-1,5
 164 594 164 594 132 623 c 128,-1,6
 100 652 100 652 100 696 c 0,7,8
 100 801 100 801 204 861.5 c 128,-1,9
 308 922 308 922 487.5 922 c 128,-1,10
 667 922 667 922 776 824.5 c 128,-1,11
 885 727 885 727 885 578 c 2,12,-1
 885 172 l 2,13,14
 885 107 885 107 906.5 76 c 128,-1,15
 928 45 928 45 956.5 45 c 128,-1,16
 985 45 985 45 1006.5 59 c 128,-1,17
 1028 73 1028 73 1028 94 c 1,18,-1
 1065 94 l 1,19,20
 1065 -16 1065 -16 840 -16 c 0,21,22
 735 -16 735 -16 678 57 c 1,23,24
 558 -20 558 -20 393 -20 c 0,25,26
 51 -20 51 -20 51 229 c 0,27,28
 51 347.725 51 347.725 258 415 c 0,29,30
 347.038961039 443.937662338 347.038961039 443.937662338 418.019480519 458.968831169 c 0,31,32
 552.255813953 487.395348837 552.255813953 487.395348837 629 506 c 1,33,34
 629 741.078947368 629 741.078947368 585 795.5 c 0,35,36
 542.553191489 848 542.553191489 848 463.776595745 848 c 128,-1,37
 385 848 385 848 330.5 820.5 c 128,-1,38
 276 793 276 793 266 750 c 1,0,1
649 106 m 1,39,40
 629 161 629 161 629 229 c 2,41,-1
 629 461 l 1,42,43
 493 420 493 420 450 400 c 0,44,45
 313 336 313 336 313 233.5 c 128,-1,46
 313 131 313 131 353 90 c 128,-1,47
 393 49 393 49 438.5 49 c 0,48,49
 535 49 535 49 649 106 c 1,39,40
EndSplineSet
EndChar

StartChar: b
Encoding: 98 98 69
Width: 1132
GlyphClass: 2
Flags: HW
AnchorPoint: "Anchor-5" 285 1044 basechar 0
AnchorPoint: "Anchor-4" 526 0 basechar 0
AnchorPoint: "Anchor-1" 600 1055 basechar 0
LayerCount: 2
Fore
SplineSet
117 1147 m 1,0,1
 7 1155 7 1155 -12 1155 c 1,2,-1
 -12 1202 l 1,3,4
 27 1202 27 1202 176.5 1246 c 128,-1,5
 326 1290 326 1290 373 1290 c 1,6,-1
 373 872 l 1,7,8
 466 930 466 930 602 930 c 0,9,10
 720.637681159 930 720.637681159 930 835.5 869.5 c 0,11,12
 901 835 901 835 952 784 c 128,-1,13
 1003 733 1003 733 1037 647.5 c 128,-1,14
 1071 562 1071 562 1071 462.5 c 128,-1,15
 1071 363 1071 363 1043 285 c 128,-1,16
 1015 207 1015 207 966.5 151.5 c 128,-1,17
 918 96 918 96 853 57 c 0,18,19
 724.666666667 -20 724.666666667 -20 571.833333333 -20 c 128,-1,20
 419 -20 419 -20 330 45 c 1,21,22
 171 -20 171 -20 117 -20 c 1,23,-1
 117 1147 l 1,0,1
373 807 m 1,24,-1
 373 86 l 1,25,26
 445 49 445 49 550.5 49 c 128,-1,27
 656 49 656 49 730.5 155.5 c 128,-1,28
 805 262 805 262 805 451 c 128,-1,29
 805 640 805 640 746.5 750 c 128,-1,30
 688 860 688 860 571.5 860 c 128,-1,31
 455 860 455 860 373 807 c 1,24,-1
EndSplineSet
EndChar

StartChar: c
Encoding: 99 99 70
Width: 985
GlyphClass: 2
Flags: HW
AnchorPoint: "Anchor-4" 543 0 basechar 0
AnchorPoint: "Anchor-2" 543 0 basechar 0
AnchorPoint: "Anchor-1" 551 1055 basechar 0
LayerCount: 2
Fore
SplineSet
561 860 m 0,0,1
 464 860 464 860 397 762.5 c 128,-1,2
 330 665 330 665 330 525.5 c 128,-1,3
 330 386 330 386 361.5 285 c 128,-1,4
 393 184 393 184 455 120.5 c 128,-1,5
 517 57 517 57 601.5 57 c 128,-1,6
 686 57 686 57 747.5 91.5 c 128,-1,7
 809 126 809 126 856 205 c 1,8,-1
 932 168 l 1,9,10
 872 71 872 71 777.5 25.5 c 128,-1,11
 683 -20 683 -20 526 -20 c 0,12,13
 393.625 -20 393.625 -20 282.5 43 c 0,14,15
 63 167.440944882 63 167.440944882 63 496 c 0,16,17
 63 610 63 610 122.5 707 c 128,-1,18
 182 804 182 804 292.5 863 c 128,-1,19
 403 922 403 922 555 922 c 128,-1,20
 707 922 707 922 808 865.5 c 128,-1,21
 909 809 909 809 909 705 c 0,22,23
 909 655 909 655 884 621.5 c 128,-1,24
 859 588 859 588 808.5 588 c 128,-1,25
 758 588 758 588 728 612 c 128,-1,26
 698 636 698 636 698 676.5 c 128,-1,27
 698 717 698 717 719.5 737.5 c 128,-1,28
 741 758 741 758 770 758 c 1,29,30
 744 860 744 860 561 860 c 0,0,1
EndSplineSet
EndChar

StartChar: d
Encoding: 100 100 71
Width: 1181
GlyphClass: 2
Flags: HW
AnchorPoint: "Anchor-5" 821 1040 basechar 0
AnchorPoint: "Anchor-4" 543 0 basechar 0
AnchorPoint: "Anchor-1" 494 1055 basechar 0
LayerCount: 2
Fore
SplineSet
768 881 m 1,0,-1
 768 1147 l 1,1,2
 658 1155 658 1155 639 1155 c 1,3,-1
 639 1202 l 1,4,5
 678 1202 678 1202 827.5 1246 c 128,-1,6
 977 1290 977 1290 1024 1290 c 1,7,-1
 1024 123 l 1,8,9
 1134 115 1134 115 1153 115 c 1,10,-1
 1153 68 l 1,11,12
 1114 68 1114 68 964.5 24 c 128,-1,13
 815 -20 815 -20 768 -20 c 1,14,-1
 768 47 l 1,15,16
 672 -20 672 -20 522 -20 c 0,17,18
 434.12195122 -20 434.12195122 -20 356.56097561 10 c 128,-1,19
 279 40 279 40 232 78 c 128,-1,20
 185 116 185 116 146.5 166 c 0,21,22
 63 274.441558442 63 274.441558442 63 455 c 0,23,24
 63 569 63 569 104 661.5 c 128,-1,25
 145 754 145 754 215.5 811.5 c 0,26,27
 360.791304348 930 360.791304348 930 567 930 c 0,28,29
 686 930 686 930 768 881 c 1,0,-1
768 815 m 1,30,31
 692 860 692 860 580 860 c 0,32,33
 493.56122449 860 493.56122449 860 415.5 758 c 0,34,35
 330 646.28 330 646.28 330 465.64 c 128,-1,36
 330 285 330 285 397.5 167 c 128,-1,37
 465 49 465 49 543 49 c 0,38,39
 683 49 683 49 768 115 c 1,40,-1
 768 815 l 1,30,31
EndSplineSet
EndChar

StartChar: e
Encoding: 101 101 72
Width: 1026
GlyphClass: 2
Flags: HW
AnchorPoint: "Anchor-5" 524 692 basechar 0
AnchorPoint: "Anchor-4" 549 0 basechar 0
AnchorPoint: "Anchor-3" 625 0 basechar 0
AnchorPoint: "Anchor-2" 549 0 basechar 0
AnchorPoint: "Anchor-1" 514 1055 basechar 0
LayerCount: 2
Fore
SplineSet
330 494 m 1,0,1
 332 379 332 379 366.5 279.5 c 128,-1,2
 401 180 401 180 464.5 118.5 c 128,-1,3
 528 57 528 57 613 57 c 0,4,5
 782.72972973 57 782.72972973 57 893 193 c 1,6,-1
 942 168 l 1,7,8
 882 71 882 71 787.5 25.5 c 128,-1,9
 693 -20 693 -20 537 -20 c 0,10,11
 404.125 -20 404.125 -20 289.5 43 c 0,12,13
 150.196066566 119.563993949 150.196066566 119.563993949 94.5 284 c 0,14,15
 63 377 63 377 63 496 c 0,16,17
 63 673 63 673 189.5 797.5 c 128,-1,18
 316 922 316 922 516 922 c 0,19,20
 740.666666667 922 740.666666667 922 862 792 c 0,21,22
 977 668.785714286 977 668.785714286 977 494 c 1,23,-1
 330 494 l 1,0,1
332 557 m 1,24,-1
 705 557 l 1,25,26
 685.337192475 783.122286541 685.337192475 783.122286541 608 837.5 c 0,27,28
 576 860 576 860 532 860 c 0,29,30
 458 860 458 860 400 785.5 c 128,-1,31
 342 711 342 711 332 557 c 1,24,-1
EndSplineSet
EndChar

StartChar: f
Encoding: 102 102 73
Width: 616
GlyphClass: 2
Flags: HW
AnchorPoint: "Anchor-1" 481 1341 basechar 0
LayerCount: 2
Fore
SplineSet
43 43 m 1,0,1
 155.227272727 43 155.227272727 43 172 84 c 1,2,-1
 172 840 l 1,3,-1
 70 840 l 1,4,-1
 70 901 l 1,5,-1
 172 901 l 1,6,-1
 172 971 l 2,7,8
 172 1215.05607477 172 1215.05607477 361.5 1273.5 c 0,9,10
 415 1290 415 1290 508.5 1290 c 128,-1,11
 602 1290 602 1290 664.5 1252.5 c 128,-1,12
 727 1215 727 1215 727 1169 c 0,13,14
 727 1077 727 1077 645 1077 c 0,15,16
 571.2 1077 571.2 1077 560.5 1130.5 c 0,17,18
 556 1153 556 1153 554 1175.5 c 0,19,20
 549.244444444 1229 549.244444444 1229 502 1229 c 0,21,22
 428 1229 428 1229 428 999 c 2,23,-1
 428 901 l 1,24,-1
 586 901 l 1,25,-1
 586 840 l 1,26,-1
 428 840 l 1,27,-1
 428 84 l 1,28,29
 444.772727273 43 444.772727273 43 557 43 c 1,30,-1
 557 0 l 1,31,-1
 43 0 l 1,32,-1
 43 43 l 1,0,1
EndSplineSet
EndChar

StartChar: g
Encoding: 103 103 74
Width: 1099
GlyphClass: 2
Flags: HW
AnchorPoint: "Anchor-5" 856 467 basechar 0
AnchorPoint: "Anchor-4" 508 0 basechar 0
AnchorPoint: "Anchor-1" 569 1055 basechar 0
LayerCount: 2
Fore
SplineSet
983 922 m 1,0,-1
 983 59 l 2,1,2
 983 -145 983 -145 863 -277.5 c 128,-1,3
 743 -410 743 -410 550 -410 c 128,-1,4
 357 -410 357 -410 246 -361 c 128,-1,5
 135 -312 135 -312 135 -229 c 0,6,7
 135 -98 135 -98 246 -98 c 0,8,9
 287 -98 287 -98 313.5 -126.5 c 128,-1,10
 340 -155 340 -155 340 -194 c 128,-1,11
 340 -233 340 -233 328.5 -251.5 c 128,-1,12
 317 -270 317 -270 289 -281 c 1,13,14
 315.25 -307.25 315.25 -307.25 384.625 -321.625 c 128,-1,15
 454 -336 454 -336 536.5 -336 c 128,-1,16
 619 -336 619 -336 667.5 -254.5 c 128,-1,17
 716 -173 716 -173 725 25 c 1,18,19
 640 -20 640 -20 514 -20 c 0,20,21
 427 -20 427 -20 351 8.5 c 128,-1,22
 275 37 275 37 229.5 73.5 c 128,-1,23
 184 110 184 110 146.5 159 c 0,24,25
 66 264.186666667 66 264.186666667 66 446 c 0,26,27
 66 561 66 561 105.5 653 c 128,-1,28
 145 745 145 745 213 803 c 0,29,30
 352.517241379 922 352.517241379 922 559 922 c 0,31,32
 690 922 690 922 780 860 c 1,33,34
 931 922 931 922 983 922 c 1,0,-1
727 90 m 1,35,-1
 727 823 l 1,36,37
 660 852 660 852 597 852 c 128,-1,38
 534 852 534 852 502.5 842 c 128,-1,39
 471 832 471 832 438.5 804.5 c 128,-1,40
 406 777 406 777 383.5 733 c 0,41,42
 332 632.288888889 332 632.288888889 332 446 c 0,43,44
 332 181.338983051 332 181.338983051 434.5 91 c 0,45,46
 482.153846154 49 482.153846154 49 535 49 c 0,47,48
 647 49 647 49 727 90 c 1,35,-1
EndSplineSet
EndChar

StartChar: h
Encoding: 104 104 75
Width: 1220
GlyphClass: 2
Flags: HW
AnchorPoint: "Anchor-5" 383 1057 basechar 0
AnchorPoint: "Anchor-4" 610 0 basechar 0
AnchorPoint: "Anchor-2" 909 0 basechar 0
AnchorPoint: "Anchor-1" 276 1341 basechar 0
LayerCount: 2
Fore
SplineSet
414 84 m 1,0,1
 430.772727273 43 430.772727273 43 543 43 c 1,2,-1
 543 0 l 1,3,-1
 29 0 l 1,4,-1
 29 43 l 1,5,6
 141.227272727 43 141.227272727 43 158 84 c 1,7,-1
 158 1147 l 1,8,9
 48 1155 48 1155 29 1155 c 1,10,-1
 29 1202 l 1,11,12
 68 1202 68 1202 217 1246 c 128,-1,13
 366 1290 366 1290 414 1290 c 1,14,-1
 414 842 l 1,15,16
 537 922 537 922 657 922 c 0,17,18
 860 922 860 922 964.5 856 c 128,-1,19
 1069 790 1069 790 1069 639 c 2,20,-1
 1069 84 l 1,21,22
 1085.77272727 43 1085.77272727 43 1198 43 c 1,23,-1
 1198 0 l 1,24,-1
 684 0 l 1,25,-1
 684 43 l 1,26,27
 796.227272727 43 796.227272727 43 813 84 c 1,28,-1
 813 590 l 2,29,30
 813 732 813 732 771 792 c 128,-1,31
 729 852 729 852 645 852 c 0,32,33
 522 852 522 852 414 778 c 1,34,-1
 414 84 l 1,0,1
EndSplineSet
EndChar

StartChar: i
Encoding: 105 105 76
Width: 591
GlyphClass: 2
Flags: HW
AnchorPoint: "Anchor-5" 301 532 basechar 0
AnchorPoint: "Anchor-4" 289 0 basechar 0
AnchorPoint: "Anchor-3" 410 0 basechar 0
AnchorPoint: "Anchor-2" 289 0 basechar 0
AnchorPoint: "Anchor-1" 293 1270 basechar 0
LayerCount: 2
Fore
SplineSet
434 84 m 1,0,1
 450.772727273 43 450.772727273 43 563 43 c 1,2,-1
 563 0 l 1,3,-1
 49 0 l 1,4,-1
 49 43 l 1,5,6
 161.227272727 43 161.227272727 43 178 84 c 1,7,-1
 178 778 l 1,8,9
 72 786 72 786 49 786 c 1,10,-1
 49 834 l 1,11,12
 88 834 88 834 237 878 c 128,-1,13
 386 922 386 922 434 922 c 1,14,-1
 434 84 l 1,0,1
398 1088.5 m 128,-1,16
 352 1053 352 1053 301.5 1053 c 128,-1,17
 251 1053 251 1053 201.5 1088.5 c 128,-1,18
 152 1124 152 1124 152 1170.5 c 128,-1,19
 152 1217 152 1217 198 1253.5 c 128,-1,20
 244 1290 244 1290 294 1290 c 128,-1,21
 344 1290 344 1290 394 1253.5 c 128,-1,22
 444 1217 444 1217 444 1170.5 c 128,-1,15
 444 1124 444 1124 398 1088.5 c 128,-1,16
EndSplineSet
EndChar

StartChar: j
Encoding: 106 106 77
Width: 528
GlyphClass: 2
Flags: HW
AnchorPoint: "Anchor-1" 272 1270 basechar 0
LayerCount: 2
Fore
SplineSet
374.5 1090.5 m 128,-1,1
 327 1055 327 1055 277 1055 c 128,-1,2
 227 1055 227 1055 178 1090.5 c 128,-1,3
 129 1126 129 1126 129 1172.5 c 128,-1,4
 129 1219 129 1219 174.5 1255.5 c 128,-1,5
 220 1292 220 1292 270 1292 c 128,-1,6
 320 1292 320 1292 371 1255.5 c 128,-1,7
 422 1219 422 1219 422 1172.5 c 128,-1,0
 422 1126 422 1126 374.5 1090.5 c 128,-1,1
86 -408 m 0,8,9
 -180 -408 -180 -408 -180 -229 c 0,10,11
 -180 -185 -180 -185 -155 -154 c 128,-1,12
 -130 -123 -130 -123 -84.5 -123 c 128,-1,13
 -39 -123 -39 -123 -15.5 -154.5 c 128,-1,14
 8 -186 8 -186 8 -221 c 128,-1,15
 8 -256 8 -256 -12 -276 c 1,16,17
 -12 -346 -12 -346 66 -346 c 0,18,19
 105 -346 105 -346 130.5 -287.5 c 128,-1,20
 156 -229 156 -229 156 -117 c 2,21,-1
 156 780 l 1,22,23
 50 788 50 788 27 788 c 1,24,-1
 27 836 l 1,25,26
 66 836 66 836 215 880 c 128,-1,27
 364 924 364 924 412 924 c 1,28,-1
 412 -88 l 2,29,30
 412 -260.118811881 412 -260.118811881 300.5 -338.5 c 0,31,32
 201.633802817 -408 201.633802817 -408 86 -408 c 0,8,9
EndSplineSet
EndChar

StartChar: k
Encoding: 107 107 78
Width: 1126
GlyphClass: 2
Flags: HW
AnchorPoint: "Anchor-5" 279 532 basechar 0
AnchorPoint: "Anchor-4" 602 0 basechar 0
AnchorPoint: "Anchor-2" 274 0 basechar 0
AnchorPoint: "Anchor-1" 281 1341 basechar 0
LayerCount: 2
Fore
SplineSet
414 84 m 1,0,1
 430.772727273 43 430.772727273 43 543 43 c 1,2,-1
 543 0 l 1,3,-1
 29 0 l 1,4,-1
 29 43 l 1,5,6
 141.227272727 43 141.227272727 43 158 84 c 1,7,-1
 158 1147 l 1,8,9
 48 1155 48 1155 29 1155 c 1,10,-1
 29 1202 l 1,11,12
 68 1202 68 1202 217 1246 c 128,-1,13
 366 1290 366 1290 414 1290 c 1,14,-1
 414 84 l 1,0,1
692 0 m 1,15,-1
 692 43 l 1,16,17
 743 43 743 43 770 49 c 1,18,-1
 428 520 l 1,19,-1
 791 846 l 1,20,21
 761 858 761 858 690 858 c 1,22,-1
 690 901 l 1,23,-1
 1012 901 l 1,24,-1
 1012 858 l 1,25,26
 931 858 931 858 901 831 c 2,27,-1
 653 610 l 1,28,-1
 1034 82 l 2,29,30
 1049 60 1049 60 1077 51.5 c 128,-1,31
 1105 43 1105 43 1163 43 c 1,32,-1
 1163 0 l 1,33,-1
 692 0 l 1,15,-1
EndSplineSet
EndChar

StartChar: l
Encoding: 108 108 79
Width: 571
GlyphClass: 2
Flags: HW
AnchorPoint: "Anchor-5" 281 698 basechar 0
AnchorPoint: "Anchor-4" 279 0 basechar 0
AnchorPoint: "Anchor-2" 279 0 basechar 0
AnchorPoint: "Anchor-1" 281 1341 basechar 0
LayerCount: 2
Fore
SplineSet
414 84 m 1,0,1
 430.772727273 43 430.772727273 43 543 43 c 1,2,-1
 543 0 l 1,3,-1
 29 0 l 1,4,-1
 29 43 l 1,5,6
 141.227272727 43 141.227272727 43 158 84 c 1,7,-1
 158 1147 l 1,8,9
 48 1155 48 1155 29 1155 c 1,10,-1
 29 1202 l 1,11,12
 68 1202 68 1202 217 1246 c 128,-1,13
 366 1290 366 1290 414 1290 c 1,14,-1
 414 84 l 1,0,1
EndSplineSet
EndChar

StartChar: m
Encoding: 109 109 80
Width: 1794
GlyphClass: 2
Flags: HW
AnchorPoint: "Anchor-5" 915 455 basechar 0
AnchorPoint: "Anchor-4" 915 0 basechar 0
AnchorPoint: "Anchor-2" 915 0 basechar 0
AnchorPoint: "Anchor-1" 920 1055 basechar 0
LayerCount: 2
Fore
SplineSet
434 84 m 1,0,1
 450.772727273 43 450.772727273 43 563 43 c 1,2,-1
 563 0 l 1,3,-1
 49 0 l 1,4,-1
 49 43 l 1,5,6
 161.227272727 43 161.227272727 43 178 84 c 1,7,-1
 178 778 l 1,8,9
 68 786 68 786 49 786 c 1,10,-1
 49 834 l 1,11,12
 88 834 88 834 237 878 c 128,-1,13
 386 922 386 922 434 922 c 1,14,-1
 434 850 l 1,15,16
 517 922 517 922 645 922 c 0,17,18
 919 922 919 922 1004 807 c 1,19,20
 1096 922 1096 922 1255 922 c 0,21,22
 1556 922 1556 922 1627.5 681.5 c 0,23,24
 1655 589 1655 589 1655 455 c 2,25,-1
 1655 84 l 1,26,27
 1671.77272727 43 1671.77272727 43 1784 43 c 1,28,-1
 1784 0 l 1,29,-1
 1270 0 l 1,30,-1
 1270 43 l 1,31,32
 1382.22727273 43 1382.22727273 43 1399 84 c 1,33,-1
 1399 481 l 2,34,35
 1399 672 1399 672 1365 762 c 128,-1,36
 1331 852 1331 852 1243 852 c 0,37,38
 1132 852 1132 852 1034 750 c 1,39,40
 1044 721 1044 721 1044 672 c 2,41,-1
 1044 84 l 1,42,43
 1060.77272727 43 1060.77272727 43 1174 43 c 1,44,-1
 1174 0 l 1,45,-1
 659 0 l 1,46,-1
 659 43 l 1,47,48
 771.227272727 43 771.227272727 43 788 84 c 1,49,-1
 788 553 l 2,50,51
 788 720 788 720 751.5 786 c 128,-1,52
 715 852 715 852 630 852 c 128,-1,53
 545 852 545 852 434 754 c 1,54,-1
 434 84 l 1,0,1
EndSplineSet
EndChar

StartChar: n
Encoding: 110 110 81
Width: 1222
GlyphClass: 2
Flags: HW
AnchorPoint: "Anchor-5" 616 455 basechar 0
AnchorPoint: "Anchor-4" 616 0 basechar 0
AnchorPoint: "Anchor-2" 940 0 basechar 0
AnchorPoint: "Anchor-1" 639 1057 basechar 0
LayerCount: 2
Fore
SplineSet
434 84 m 1,0,1
 450.772727273 43 450.772727273 43 563 43 c 1,2,-1
 563 0 l 1,3,-1
 49 0 l 1,4,-1
 49 43 l 1,5,6
 161.227272727 43 161.227272727 43 178 84 c 1,7,-1
 178 778 l 1,8,9
 68 786 68 786 49 786 c 1,10,-1
 49 834 l 1,11,12
 88 834 88 834 237 878 c 128,-1,13
 386 922 386 922 434 922 c 1,14,-1
 434 836 l 1,15,16
 536 922 536 922 659 922 c 0,17,18
 857 922 857 922 965 849 c 128,-1,19
 1073 776 1073 776 1073 631 c 2,20,-1
 1073 84 l 1,21,22
 1089.77272727 43 1089.77272727 43 1202 43 c 1,23,-1
 1202 0 l 1,24,-1
 688 0 l 1,25,-1
 688 43 l 1,26,27
 800.227272727 43 800.227272727 43 817 84 c 1,28,-1
 817 645 l 2,29,30
 817 736 817 736 775 794 c 128,-1,31
 733 852 733 852 647 852 c 0,32,33
 520 852 520 852 434 770 c 1,34,-1
 434 84 l 1,0,1
EndSplineSet
EndChar

StartChar: o
Encoding: 111 111 82
Width: 1116
GlyphClass: 2
Flags: HW
AnchorPoint: "Anchor-5" 557 471 basechar 0
AnchorPoint: "Anchor-4" 573 0 basechar 0
AnchorPoint: "Anchor-3" 573 0 basechar 0
AnchorPoint: "Anchor-2" 573 0 basechar 0
AnchorPoint: "Anchor-1" 561 1055 basechar 0
AnchorPoint: "Anchor-0" 930 641 basechar 0
LayerCount: 2
Fore
SplineSet
594 41 m 0,0,1
 686 41 686 41 735 138 c 128,-1,2
 784 235 784 235 784 395 c 0,3,4
 784 646 784 646 726 752 c 128,-1,5
 668 858 668 858 518 858 c 0,6,7
 459 858 459 858 416 808 c 0,8,9
 332 710.325581395 332 710.325581395 332 487.662790698 c 0,10,11
 332 41 332 41 594 41 c 0,0,1
199 114.5 m 128,-1,13
 63 249 63 249 63 467 c 0,14,15
 63 655.896551724 63 655.896551724 180 785 c 0,16,17
 304.15625 922 304.15625 922 550.078125 922 c 128,-1,18
 796 922 796 922 924.5 792.5 c 128,-1,19
 1053 663 1053 663 1053 442 c 0,20,21
 1053 252.069565217 1053 252.069565217 937.5 120.5 c 0,22,23
 814.160305344 -20 814.160305344 -20 574.580152672 -20 c 128,-1,12
 335 -20 335 -20 199 114.5 c 128,-1,13
EndSplineSet
EndChar

StartChar: p
Encoding: 112 112 83
Width: 1173
GlyphClass: 2
Flags: HW
AnchorPoint: "Anchor-5" 305 446 basechar 0
AnchorPoint: "Anchor-4" 643 0 basechar 0
AnchorPoint: "Anchor-1" 631 1055 basechar 0
LayerCount: 2
Fore
SplineSet
414 -309 m 1,0,1
 430.772727273 -350 430.772727273 -350 543 -350 c 1,2,-1
 543 -393 l 1,3,-1
 29 -393 l 1,4,-1
 29 -350 l 1,5,6
 141.227272727 -350 141.227272727 -350 158 -309 c 1,7,-1
 158 776 l 1,8,9
 30 786 30 786 29 786 c 1,10,-1
 29 834 l 1,11,12
 68 834 68 834 217 878 c 128,-1,13
 366 922 366 922 414 922 c 1,14,-1
 414 866 l 1,15,16
 506 922 506 922 639 922 c 0,17,18
 990.414201183 922 990.414201183 922 1081 638.5 c 0,19,20
 1108 554 1108 554 1108 446 c 0,21,22
 1108 214 1108 214 974 97 c 128,-1,23
 840 -20 840 -20 594 -20 c 0,24,25
 490 -20 490 -20 414 14 c 1,26,-1
 414 -309 l 1,0,1
414 801 m 1,27,-1
 414 80 l 1,28,29
 490 49 490 49 591.5 49 c 128,-1,30
 693 49 693 49 767.5 152.5 c 128,-1,31
 842 256 842 256 842 446 c 0,32,33
 842 523 842 523 817 614.5 c 128,-1,34
 792 706 792 706 738.5 779 c 128,-1,35
 685 852 685 852 618 852 c 0,36,37
 493 852 493 852 414 801 c 1,27,-1
EndSplineSet
EndChar

StartChar: q
Encoding: 113 113 84
Width: 1122
GlyphClass: 2
Flags: HW
LayerCount: 2
Fore
SplineSet
1006 -309 m 1,0,1
 1022.77272727 -350 1022.77272727 -350 1135 -350 c 1,2,-1
 1135 -393 l 1,3,-1
 621 -393 l 1,4,-1
 621 -350 l 1,5,6
 733.227272727 -350 733.227272727 -350 750 -309 c 1,7,-1
 750 29 l 1,8,9
 664 -20 664 -20 530 -20 c 0,10,11
 410 -20 410 -20 320 25 c 128,-1,12
 230 70 230 70 179.5 120 c 128,-1,13
 129 170 129 170 95 255 c 128,-1,14
 61 340 61 340 61 450 c 128,-1,15
 61 560 61 560 103.5 652.5 c 128,-1,16
 146 745 146 745 218.5 803 c 0,17,18
 367.25 922 367.25 922 575 922 c 0,19,20
 709 922 709 922 799 860 c 1,21,22
 950 922 950 922 1006 922 c 1,23,-1
 1006 -309 l 1,0,1
750 94 m 1,24,-1
 750 821 l 1,25,26
 674 852 674 852 588 852 c 0,27,28
 477 852 477 852 402.5 745.5 c 128,-1,29
 328 639 328 639 328 450.5 c 128,-1,30
 328 262 328 262 386.5 155.5 c 128,-1,31
 445 49 445 49 557 49 c 128,-1,32
 669 49 669 49 750 94 c 1,24,-1
EndSplineSet
EndChar

StartChar: r
Encoding: 114 114 85
Width: 892
GlyphClass: 2
Flags: HW
AnchorPoint: "Anchor-4" 311 0 basechar 0
AnchorPoint: "Anchor-1" 514 1055 basechar 0
LayerCount: 2
Fore
SplineSet
434 84 m 1,0,1
 450.772727273 43 450.772727273 43 563 43 c 1,2,-1
 563 0 l 1,3,-1
 49 0 l 1,4,-1
 49 43 l 1,5,6
 161.227272727 43 161.227272727 43 178 84 c 1,7,-1
 178 778 l 1,8,9
 68 786 68 786 49 786 c 1,10,-1
 49 834 l 1,11,12
 88 834 88 834 237 878 c 128,-1,13
 386 922 386 922 434 922 c 1,14,-1
 434 836 l 1,15,16
 539 922 539 922 637 922 c 0,17,18
 773 922 773 922 832 887 c 128,-1,19
 891 852 891 852 891 801.5 c 128,-1,20
 891 751 891 751 861.5 721.5 c 128,-1,21
 832 692 832 692 791 692 c 128,-1,22
 750 692 750 692 727 708.5 c 128,-1,23
 704 725 704 725 694.5 748.5 c 128,-1,24
 685 772 685 772 677.5 795.5 c 0,25,26
 659.468085106 852 659.468085106 852 612 852 c 0,27,28
 533.578947368 852 533.578947368 852 434 766 c 1,29,-1
 434 84 l 1,0,1
EndSplineSet
EndChar

StartChar: s
Encoding: 115 115 86
Width: 813
GlyphClass: 2
Flags: HW
AnchorPoint: "Anchor-5" 399 469 basechar 0
AnchorPoint: "Anchor-4" 358 0 basechar 0
AnchorPoint: "Anchor-2" 358 0 basechar 0
AnchorPoint: "Anchor-1" 414 1055 basechar 0
LayerCount: 2
Fore
SplineSet
172 41 m 0,0,1
 147 41 147 41 147 0 c 1,2,-1
 98 0 l 1,3,-1
 78 313 l 1,4,-1
 123 313 l 1,5,6
 137 260 137 260 191 200 c 128,-1,7
 245 140 245 140 310.5 100.5 c 128,-1,8
 376 61 376 61 422 61 c 0,9,10
 561 61 561 61 561 188 c 0,11,12
 561 235.142857143 561 235.142857143 467 285.5 c 0,13,14
 425 308 425 308 374.5 333 c 128,-1,15
 324 358 324 358 273 390.5 c 128,-1,16
 222 423 222 423 180 461.5 c 0,17,18
 86 547.666666667 86 547.666666667 86 668.333333333 c 128,-1,19
 86 789 86 789 173 855.5 c 128,-1,20
 260 922 260 922 381 922 c 0,21,22
 464 922 464 922 561.5 875.5 c 0,23,24
 594 860 594 860 608 860 c 0,25,26
 633 860 633 860 633 901 c 1,27,-1
 680 901 l 1,28,-1
 700 602 l 1,29,-1
 655 602 l 1,30,31
 634 688 634 688 549 770 c 128,-1,32
 464 852 464 852 392.5 852 c 0,33,34
 242 852 242 852 242 745 c 0,35,36
 242 702.488888889 242 702.488888889 343 647.5 c 0,37,38
 388 623 388 623 442 595.5 c 128,-1,39
 496 568 496 568 550 533.5 c 128,-1,40
 604 499 604 499 649 460 c 0,41,42
 750 372.466666667 750 372.466666667 750 249.733333333 c 128,-1,43
 750 127 750 127 654 53.5 c 128,-1,44
 558 -20 558 -20 406 -20 c 0,45,46
 315.870967742 -20 315.870967742 -20 219 25.5 c 0,47,48
 186 41 186 41 172 41 c 0,0,1
EndSplineSet
EndChar

StartChar: t
Encoding: 116 116 87
Width: 724
GlyphClass: 2
Flags: HW
AnchorPoint: "Anchor-4" 434 0 basechar 0
AnchorPoint: "Anchor-2" 434 0 basechar 0
AnchorPoint: "Anchor-1" 381 1270 basechar 0
LayerCount: 2
Fore
SplineSet
426 1198 m 1,0,-1
 426 901 l 1,1,-1
 602 901 l 1,2,-1
 602 840 l 1,3,-1
 426 840 l 1,4,-1
 426 188 l 2,5,6
 426 124 426 124 449 90.5 c 128,-1,7
 472 57 472 57 520 57 c 0,8,9
 568 57 568 57 606.5 93.5 c 128,-1,10
 645 130 645 130 659 193 c 1,11,-1
 709 168 l 1,12,13
 665 -20 665 -20 463 -20 c 0,14,15
 304 -20 304 -20 231 52.5 c 128,-1,16
 158 125 158 125 158 291 c 2,17,-1
 158 840 l 1,18,-1
 14 840 l 1,19,-1
 14 901 l 1,20,21
 135 901 135 901 225 992 c 128,-1,22
 315 1083 315 1083 315 1198 c 1,23,-1
 426 1198 l 1,0,-1
EndSplineSet
EndChar

StartChar: u
Encoding: 117 117 88
Width: 1167
GlyphClass: 2
Flags: HW
AnchorPoint: "Anchor-5" 573 504 basechar 0
AnchorPoint: "Anchor-4" 584 0 basechar 0
AnchorPoint: "Anchor-3" 801 0 basechar 0
AnchorPoint: "Anchor-2" 559 0 basechar 0
AnchorPoint: "Anchor-1" 575 1055 basechar 0
AnchorPoint: "Anchor-0" 1001 641 basechar 0
LayerCount: 2
Fore
SplineSet
754 817 m 1,0,1
 737.227272727 858 737.227272727 858 625 858 c 1,2,-1
 625 901 l 1,3,-1
 1010 901 l 1,4,-1
 1010 123 l 1,5,6
 1120 115 1120 115 1139 115 c 1,7,-1
 1139 68 l 1,8,9
 1100 68 1100 68 951 24 c 128,-1,10
 802 -20 802 -20 754 -20 c 1,11,-1
 754 39 l 1,12,13
 652 -20 652 -20 545 -20 c 0,14,15
 150 -20 150 -20 150 270 c 2,16,-1
 150 817 l 1,17,18
 133.227272727 858 133.227272727 858 20 858 c 1,19,-1
 20 901 l 1,20,-1
 406 901 l 1,21,-1
 406 256 l 2,22,23
 406 123.612903226 406 123.612903226 440.5 88 c 0,24,25
 478.28125 49 478.28125 49 569.140625 49 c 128,-1,26
 660 49 660 49 754 104 c 1,27,-1
 754 817 l 1,0,1
EndSplineSet
EndChar

StartChar: v
Encoding: 118 118 89
Width: 1032
GlyphClass: 2
Flags: HW
AnchorPoint: "Anchor-4" 514 0 basechar 0
AnchorPoint: "Anchor-1" 559 1055 basechar 0
LayerCount: 2
Fore
SplineSet
430 0 m 1,0,-1
 104 817 l 2,1,2
 87.2272727273 858 87.2272727273 858 -25 858 c 1,3,-1
 -25 901 l 1,4,-1
 444 901 l 1,5,-1
 444 858 l 1,6,7
 385 858 385 858 358 850 c 1,8,-1
 602 250 l 1,9,-1
 836 836 l 1,10,11
 808 858 808 858 721 858 c 1,12,-1
 721 901 l 1,13,-1
 1057 901 l 1,14,-1
 1057 858 l 1,15,16
 944 858 944 858 928 817 c 2,17,-1
 602 0 l 1,18,-1
 430 0 l 1,0,-1
EndSplineSet
EndChar

StartChar: w
Encoding: 119 119 90
Width: 1671
GlyphClass: 2
Flags: HW
AnchorPoint: "Anchor-4" 844 0 basechar 0
AnchorPoint: "Anchor-1" 829 1055 basechar 0
LayerCount: 2
Fore
SplineSet
1069 0 m 1,0,-1
 836 586 l 1,1,-1
 602 0 l 1,2,-1
 430 0 l 1,3,-1
 104 817 l 2,4,5
 87.2272727273 858 87.2272727273 858 -25 858 c 1,6,-1
 -25 901 l 1,7,-1
 444 901 l 1,8,-1
 444 858 l 1,9,10
 385 858 385 858 358 850 c 1,11,-1
 602 250 l 1,12,-1
 786 711 l 1,13,-1
 743 817 l 2,14,15
 726.227272727 858 726.227272727 858 614 858 c 1,16,-1
 614 901 l 1,17,-1
 1083 901 l 1,18,-1
 1083 858 l 1,19,20
 1024 858 1024 858 997 850 c 1,21,-1
 1241 250 l 1,22,-1
 1475 836 l 1,23,24
 1447 858 1447 858 1360 858 c 1,25,-1
 1360 901 l 1,26,-1
 1696 901 l 1,27,-1
 1696 858 l 1,28,29
 1591 858 1591 858 1571 825 c 1,30,-1
 1241 0 l 1,31,-1
 1069 0 l 1,0,-1
EndSplineSet
EndChar

StartChar: x
Encoding: 120 120 91
Width: 993
GlyphClass: 2
Flags: HW
LayerCount: 2
Fore
SplineSet
944 901 m 1,0,-1
 944 858 l 1,1,2
 833 858 833 858 807 819 c 1,3,-1
 598 543 l 1,4,-1
 891 72 l 2,5,6
 908.058823529 43 908.058823529 43 1012 43 c 1,7,-1
 1012 0 l 1,8,-1
 543 0 l 1,9,-1
 543 43 l 1,10,11
 594 43 594 43 621 49 c 1,12,-1
 442 336 l 1,13,-1
 233 55 l 1,14,15
 260 43 260 43 332 43 c 1,16,-1
 332 0 l 1,17,-1
 2 0 l 1,18,-1
 2 43 l 1,19,20
 113.045454545 43 113.045454545 43 141 84 c 1,21,-1
 391 418 l 1,22,-1
 135 829 l 2,23,24
 117.941176471 858 117.941176471 858 16 858 c 1,25,-1
 16 901 l 1,26,-1
 485 901 l 1,27,-1
 485 858 l 1,28,29
 436 858 436 858 406 852 c 1,30,-1
 547 625 l 1,31,-1
 713 846 l 1,32,33
 686 858 686 858 614 858 c 1,34,-1
 614 901 l 1,35,-1
 944 901 l 1,0,-1
EndSplineSet
EndChar

StartChar: y
Encoding: 121 121 92
Width: 1032
GlyphClass: 2
Flags: HW
AnchorPoint: "Anchor-4" 680 0 basechar 0
AnchorPoint: "Anchor-3" 750 0 basechar 0
AnchorPoint: "Anchor-1" 590 1055 basechar 0
LayerCount: 2
Fore
SplineSet
444 901 m 1,0,-1
 444 858 l 1,1,2
 385 858 385 858 358 850 c 1,3,-1
 602 250 l 1,4,-1
 836 836 l 1,5,6
 808 858 808 858 721 858 c 1,7,-1
 721 901 l 1,8,-1
 1057 901 l 1,9,-1
 1057 858 l 1,10,11
 945 858 945 858 932 825 c 2,12,-1
 518 -209 l 2,13,14
 465.620689655 -339.948275862 465.620689655 -339.948275862 354 -370 c 0,15,16
 328 -377 328 -377 303 -377 c 0,17,18
 154 -377 154 -377 154 -279 c 0,19,20
 154 -243 154 -243 177 -220 c 128,-1,21
 200 -197 200 -197 233 -197 c 128,-1,22
 266 -197 266 -197 280.5 -206.5 c 128,-1,23
 295 -216 295 -216 301.5 -227.5 c 0,24,25
 318.739130435 -258 318.739130435 -258 359.869565217 -258 c 128,-1,26
 401 -258 401 -258 414 -221 c 1,27,-1
 467 -90 l 1,28,-1
 104 817 l 2,29,30
 87.2272727273 858 87.2272727273 858 -25 858 c 1,31,-1
 -25 901 l 1,32,-1
 444 901 l 1,0,-1
EndSplineSet
EndChar

StartChar: z
Encoding: 122 122 93
Width: 847
GlyphClass: 2
Flags: HW
AnchorPoint: "Anchor-5" 430 483 basechar 0
AnchorPoint: "Anchor-4" 420 0 basechar 0
AnchorPoint: "Anchor-2" 420 0 basechar 0
AnchorPoint: "Anchor-1" 432 1055 basechar 0
LayerCount: 2
Fore
SplineSet
782 0 m 1,0,-1
 25 0 l 1,1,-1
 500 840 l 1,2,-1
 205 840 l 1,3,4
 178 829 178 829 155.5 791.5 c 128,-1,5
 133 754 133 754 133 696 c 1,6,-1
 90 696 l 1,7,-1
 90 901 l 1,8,-1
 799 901 l 1,9,-1
 324 61 l 1,10,-1
 668 61 l 1,11,12
 694 72 694 72 716.5 112 c 128,-1,13
 739 152 739 152 739 211 c 1,14,-1
 782 211 l 1,15,-1
 782 0 l 1,0,-1
EndSplineSet
EndChar

StartChar: braceleft
Encoding: 123 123 94
Width: 563
GlyphClass: 2
Flags: HW
LayerCount: 2
Fore
SplineSet
399 289 m 1,0,-1
 377 -143 l 1,1,2
 377 -214 377 -214 407.5 -239 c 128,-1,3
 438 -264 438 -264 514 -264 c 1,4,-1
 514 -313 l 1,5,6
 341 -313 341 -313 252.5 -257.5 c 128,-1,7
 164 -202 164 -202 164 -125 c 1,8,-1
 182 307 l 1,9,10
 182 377 182 377 145 402.5 c 128,-1,11
 108 428 108 428 29 428 c 1,12,-1
 29 475 l 1,13,14
 107 475 107 475 144.5 501.5 c 128,-1,15
 182 528 182 528 182 598 c 1,16,-1
 164 1028 l 1,17,18
 164 1105 164 1105 252.5 1161 c 128,-1,19
 341 1217 341 1217 514 1217 c 1,20,-1
 514 1169 l 1,21,22
 438 1169 438 1169 407.5 1143.5 c 128,-1,23
 377 1118 377 1118 377 1047 c 1,24,-1
 399 616 l 1,25,26
 399 571 399 571 342 526 c 128,-1,27
 285 481 285 481 205 453 c 1,28,29
 284 425 284 425 341.5 379.5 c 128,-1,30
 399 334 399 334 399 289 c 1,0,-1
EndSplineSet
EndChar

StartChar: bar
Encoding: 124 124 95
Width: 362
GlyphClass: 2
Flags: HW
LayerCount: 2
Fore
SplineSet
129 1331 m 1,0,-1
 233 1331 l 1,1,-1
 233 -61 l 1,2,-1
 129 -61 l 1,3,-1
 129 1331 l 1,0,-1
EndSplineSet
EndChar

StartChar: braceright
Encoding: 125 125 96
Width: 563
GlyphClass: 2
Flags: HW
LayerCount: 2
Fore
SplineSet
381 307 m 1,0,-1
 399 -125 l 1,1,2
 399 -202 399 -202 310.5 -257.5 c 128,-1,3
 222 -313 222 -313 49 -313 c 1,4,-1
 49 -264 l 1,5,6
 125 -264 125 -264 155.5 -239 c 128,-1,7
 186 -214 186 -214 186 -143 c 1,8,-1
 164 289 l 1,9,10
 164 334 164 334 221.5 379.5 c 128,-1,11
 279 425 279 425 358 453 c 1,12,13
 278 481 278 481 221 526 c 128,-1,14
 164 571 164 571 164 616 c 1,15,-1
 186 1047 l 1,16,17
 186 1118 186 1118 155.5 1143.5 c 128,-1,18
 125 1169 125 1169 49 1169 c 1,19,-1
 49 1217 l 1,20,21
 222 1217 222 1217 310.5 1161 c 128,-1,22
 399 1105 399 1105 399 1028 c 1,23,-1
 381 598 l 1,24,25
 381 528 381 528 418.5 501.5 c 128,-1,26
 456 475 456 475 535 475 c 1,27,-1
 535 428 l 1,28,29
 456 428 456 428 418.5 402.5 c 128,-1,30
 381 377 381 377 381 307 c 1,0,-1
EndSplineSet
EndChar

StartChar: asciitilde
Encoding: 126 126 97
Width: 1083
GlyphClass: 2
Flags: HW
LayerCount: 2
Fore
SplineSet
774 426 m 0,0,1
 714 426 714 426 523 486.5 c 128,-1,2
 332 547 332 547 295 547 c 0,3,4
 215 547 215 547 187.5 521 c 128,-1,5
 160 495 160 495 160 426 c 1,6,-1
 106 426 l 1,7,8
 106 696 106 696 315 696 c 0,9,10
 375 696 375 696 567.5 635.5 c 128,-1,11
 760 575 760 575 797 575 c 0,12,13
 877 575 877 575 904.5 601 c 128,-1,14
 932 627 932 627 932 696 c 1,15,-1
 985 696 l 1,16,17
 985 426 985 426 774 426 c 0,0,1
EndSplineSet
EndChar

StartChar: exclamdown
Encoding: 161 161 99
Width: 481
GlyphClass: 2
Flags: HW
LayerCount: 2
Fore
SplineSet
334.5 1050.5 m 128,-1,1
 381 1016 381 1016 381 957 c 128,-1,2
 381 898 381 898 339 862.5 c 128,-1,3
 297 827 297 827 245 827 c 128,-1,4
 193 827 193 827 145.5 861 c 128,-1,5
 98 895 98 895 98 953.5 c 128,-1,6
 98 1012 98 1012 141.5 1048.5 c 128,-1,7
 185 1085 185 1085 236.5 1085 c 128,-1,0
 288 1085 288 1085 334.5 1050.5 c 128,-1,1
242 643 m 128,-1,9
 266 643 266 643 288.5 589.5 c 128,-1,10
 311 536 311 536 323 445.5 c 0,11,12
 377 38.25 377 38.25 377 -86 c 0,13,14
 377 -155 377 -155 334.5 -190 c 128,-1,15
 292 -225 292 -225 242 -225 c 128,-1,16
 192 -225 192 -225 149 -190 c 128,-1,17
 106 -155 106 -155 106 -84 c 128,-1,18
 106 -13 106 -13 128 179.5 c 128,-1,19
 150 372 150 372 161.5 454 c 128,-1,20
 173 536 173 536 195.5 589.5 c 128,-1,8
 218 643 218 643 242 643 c 128,-1,9
EndSplineSet
EndChar

StartChar: cent
Encoding: 162 162 100
Width: 966
GlyphClass: 2
Flags: HW
LayerCount: 2
Fore
SplineSet
596 1178 m 1,0,-1
 690 1159 l 1,1,-1
 647 911 l 1,2,3
 858 872 858 872 858 705 c 0,4,5
 858 659 858 659 834 630.5 c 128,-1,6
 810 602 810 602 771.5 602 c 128,-1,7
 733 602 733 602 705.5 620.5 c 128,-1,8
 678 639 678 639 678 678 c 128,-1,9
 678 717 678 717 699.5 737.5 c 128,-1,10
 721 758 721 758 750 758 c 1,11,12
 730 832 730 832 637 852 c 1,13,-1
 500 74 l 1,14,15
 539 57 539 57 603 57 c 0,16,17
 751.72972973 57 751.72972973 57 862 193 c 1,18,-1
 911 168 l 1,19,20
 851 71 851 71 756.5 25.5 c 128,-1,21
 662 -20 662 -20 506 -20 c 2,22,-1
 483 -20 l 1,23,-1
 440 -262 l 1,24,-1
 344 -244 l 1,25,-1
 387 -6 l 1,26,27
 255.205085031 26.4418252231 255.205085031 26.4418252231 165 134.5 c 0,28,29
 63 256.6875 63 256.6875 63 496 c 0,30,31
 63 671.448275862 63 671.448275862 185 794.5 c 0,32,33
 311.41025641 922 311.41025641 922 520 922 c 2,34,-1
 551 922 l 1,35,-1
 596 1178 l 1,0,-1
414 143 m 1,36,-1
 541 860 l 1,37,38
 309 860 309 860 309 504 c 0,39,40
 309 398 309 398 337 302 c 128,-1,41
 365 206 365 206 414 143 c 1,36,-1
EndSplineSet
EndChar

StartChar: sterling
Encoding: 163 163 101
Width: 1087
GlyphClass: 2
Flags: HW
LayerCount: 2
Fore
SplineSet
547 207 m 1,0,1
 625 178 625 178 707.5 178 c 128,-1,2
 790 178 790 178 855 192 c 128,-1,3
 920 206 920 206 945.5 222 c 128,-1,4
 971 238 971 238 988 252 c 128,-1,5
 1005 266 1005 266 1010 266 c 0,6,7
 1030 266 1030 266 1030 242 c 0,8,9
 1030 226.034482759 1030 226.034482759 1008 180.517241379 c 128,-1,10
 986 135 986 135 960 104 c 128,-1,11
 934 73 934 73 900.5 46 c 0,12,13
 823.574074074 -16 823.574074074 -16 703.287037037 -16 c 128,-1,14
 583 -16 583 -16 469 80 c 1,15,16
 379 -20 379 -20 271 -20 c 128,-1,17
 163 -20 163 -20 110 35.5 c 128,-1,18
 57 91 57 91 57 158.5 c 128,-1,19
 57 226 57 226 113 279 c 128,-1,20
 169 332 169 332 221 332 c 128,-1,21
 273 332 273 332 332 313 c 1,22,23
 332 374 332 374 316.5 497.5 c 128,-1,24
 301 621 301 621 299 707 c 1,25,-1
 180 707 l 1,26,-1
 180 797 l 1,27,-1
 301 797 l 1,28,29
 318 1219 318 1219 612 1219 c 0,30,31
 748 1219 748 1219 834 1172 c 128,-1,32
 920 1125 920 1125 920 1040 c 0,33,34
 920 1003 920 1003 892.5 980.5 c 128,-1,35
 865 958 865 958 832 958 c 128,-1,36
 799 958 799 958 775.5 980.5 c 128,-1,37
 752 1003 752 1003 752 1035 c 128,-1,38
 752 1067 752 1067 772 1087 c 1,39,40
 772 1121 772 1121 735 1139 c 128,-1,41
 698 1157 698 1157 655 1157 c 0,42,43
 597 1157 597 1157 577 1081 c 128,-1,44
 557 1005 557 1005 555 797 c 1,45,-1
 721 797 l 1,46,-1
 721 707 l 1,47,-1
 557 707 l 1,48,49
 559 658 559 658 567 548 c 128,-1,50
 575 438 575 438 575 360.5 c 128,-1,51
 575 283 575 283 547 207 c 1,0,1
330 213 m 1,52,53
 274 262 274 262 232 262 c 128,-1,54
 190 262 190 262 158.5 233.5 c 128,-1,55
 127 205 127 205 127 159.5 c 128,-1,56
 127 114 127 114 163 81.5 c 128,-1,57
 199 49 199 49 243 49 c 128,-1,58
 287 49 287 49 305.5 85.5 c 128,-1,59
 324 122 324 122 330 213 c 1,52,53
EndSplineSet
EndChar

StartChar: currency
Encoding: 164 164 102
Width: 1030
GlyphClass: 2
Flags: HW
LayerCount: 2
Fore
SplineSet
223 537 m 128,-1,1
 223 416 223 416 308.5 330 c 128,-1,2
 394 244 394 244 516 244 c 128,-1,3
 638 244 638 244 723.5 330 c 128,-1,4
 809 416 809 416 809 537 c 128,-1,5
 809 658 809 658 723.5 743.5 c 128,-1,6
 638 829 638 829 516 829 c 128,-1,7
 394 829 394 829 308.5 743.5 c 128,-1,0
 223 658 223 658 223 537 c 128,-1,1
211 301 m 1,8,9
 131 409 131 409 131 538 c 0,10,11
 131 667 131 667 215 776 c 1,12,-1
 100 889 l 1,13,-1
 166 954 l 1,14,-1
 279 840 l 1,15,16
 385 922 385 922 514.5 922 c 0,17,18
 644 922 644 922 752 842 c 1,19,-1
 862 954 l 1,20,-1
 928 889 l 1,21,-1
 817 778 l 1,22,23
 901 673 901 673 901 539 c 0,24,25
 901 405 901 405 819 299 c 1,26,-1
 928 193 l 1,27,-1
 862 127 l 1,28,-1
 756 236 l 1,29,30
 647 152 647 152 513 152 c 0,31,32
 379 152 379 152 274 236 c 1,33,-1
 166 127 l 1,34,-1
 100 193 l 1,35,-1
 211 301 l 1,8,9
EndSplineSet
EndChar

StartChar: yen
Encoding: 165 165 103
Width: 1144
GlyphClass: 2
Flags: HW
LayerCount: 2
Fore
SplineSet
690 84 m 1,0,1
 706.772727273 43 706.772727273 43 819 43 c 1,2,-1
 819 0 l 1,3,-1
 373 0 l 1,4,-1
 373 43 l 1,5,6
 485.227272727 43 485.227272727 43 502 84 c 1,7,-1
 502 156 l 1,8,-1
 324 156 l 1,9,-1
 324 246 l 1,10,-1
 502 246 l 1,11,-1
 502 293 l 1,12,-1
 475 360 l 1,13,-1
 324 360 l 1,14,-1
 324 451 l 1,15,-1
 438 451 l 1,16,-1
 174 1114 l 2,17,18
 157.227272727 1155 157.227272727 1155 45 1155 c 1,19,-1
 45 1198 l 1,20,-1
 514 1198 l 1,21,-1
 514 1155 l 1,22,23
 455 1155 455 1155 428 1147 c 1,24,-1
 657 584 l 1,25,-1
 874 1133 l 1,26,27
 846 1155 846 1155 760 1155 c 1,28,-1
 760 1198 l 1,29,-1
 1096 1198 l 1,30,-1
 1096 1155 l 1,31,32
 983 1155 983 1155 969 1116 c 1,33,-1
 702 451 l 1,34,-1
 864 451 l 1,35,-1
 864 360 l 1,36,-1
 690 360 l 1,37,-1
 690 246 l 1,38,-1
 864 246 l 1,39,-1
 864 156 l 1,40,-1
 690 156 l 1,41,-1
 690 84 l 1,0,1
EndSplineSet
EndChar

StartChar: brokenbar
Encoding: 166 166 104
Width: 374
GlyphClass: 2
Flags: HW
LayerCount: 2
Fore
SplineSet
135 1331 m 1,0,-1
 240 1331 l 1,1,-1
 240 741 l 1,2,-1
 135 741 l 1,3,-1
 135 1331 l 1,0,-1
135 528 m 1,4,-1
 240 528 l 1,5,-1
 240 -61 l 1,6,-1
 135 -61 l 1,7,-1
 135 528 l 1,4,-1
EndSplineSet
EndChar

StartChar: section
Encoding: 167 167 105
Width: 823
GlyphClass: 2
Flags: HW
LayerCount: 2
Fore
SplineSet
264 745 m 1,0,1
 127 894.454545455 127 894.454545455 127 1001.72727273 c 128,-1,2
 127 1109 127 1109 216 1165 c 128,-1,3
 305 1221 305 1221 449 1221 c 0,4,5
 541 1221 541 1221 618.5 1147.5 c 128,-1,6
 696 1074 696 1074 696 1030 c 0,7,8
 696 938 696 938 627 938 c 0,9,10
 598 938 598 938 575.5 961 c 128,-1,11
 553 984 553 984 553 1028.5 c 128,-1,12
 553 1073 553 1073 520.5 1126.5 c 128,-1,13
 488 1180 488 1180 428.5 1180 c 128,-1,14
 369 1180 369 1180 341 1155.5 c 128,-1,15
 313 1131 313 1131 313 1057 c 0,16,17
 313 998.581395349 313 998.581395349 467.5 834.5 c 0,18,19
 532 766 532 766 596 693.5 c 0,20,21
 750 519.046875 750 519.046875 750 406 c 0,22,23
 750 161 750 161 559 90 c 1,24,25
 625 17 625 17 660.5 -45 c 128,-1,26
 696 -107 696 -107 696 -172 c 0,27,28
 696 -274 696 -274 607.5 -329.5 c 128,-1,29
 519 -385 519 -385 375 -385 c 0,30,31
 283 -385 283 -385 205 -311.5 c 128,-1,32
 127 -238 127 -238 127 -184 c 0,33,34
 127 -151 127 -151 145.5 -126.5 c 128,-1,35
 164 -102 164 -102 195 -102 c 128,-1,36
 226 -102 226 -102 248 -125 c 128,-1,37
 270 -148 270 -148 270 -192.5 c 128,-1,38
 270 -237 270 -237 302.5 -290.5 c 128,-1,39
 335 -344 335 -344 394.5 -344 c 128,-1,40
 454 -344 454 -344 482 -319.5 c 128,-1,41
 510 -295 510 -295 510 -221 c 0,42,43
 510 -163.328125 510 -163.328125 356 1.5 c 0,44,45
 292 70 292 70 228 142.5 c 0,46,47
 74 316.953125 74 316.953125 74 430 c 0,48,49
 74 674 74 674 264 745 c 1,0,1
502 152 m 1,50,51
 575 192 575 192 575 287 c 0,52,53
 575 389.246753247 575 389.246753247 500.5 486 c 0,54,55
 435.217391304 570.782608696 435.217391304 570.782608696 382.108695652 623.891304348 c 2,56,-1
 322 684 l 1,57,58
 248 643 248 643 248 549 c 0,59,60
 248 448.368421053 248 448.368421053 322 351 c 0,61,62
 382.166666667 271.833333333 382.166666667 271.833333333 502 152 c 1,50,51
EndSplineSet
EndChar

StartChar: dieresis
Encoding: 168 168 106
Width: 823
GlyphClass: 2
Flags: HW
LayerCount: 2
Fore
SplineSet
487 1145 m 128,-1,1
 487 1195 487 1195 522 1230.5 c 128,-1,2
 557 1266 557 1266 606.5 1266 c 0,3,4
 656 1266 656 1266 691.5 1230 c 128,-1,5
 727 1194 727 1194 727 1145 c 128,-1,6
 727 1096 727 1096 691.5 1060 c 128,-1,7
 656 1024 656 1024 606.5 1024 c 0,8,9
 557 1024 557 1024 522 1059.5 c 128,-1,0
 487 1095 487 1095 487 1145 c 128,-1,1
96 1145 m 128,-1,11
 96 1194 96 1194 132 1230 c 128,-1,12
 168 1266 168 1266 217 1266 c 128,-1,13
 266 1266 266 1266 301 1230.5 c 128,-1,14
 336 1195 336 1195 336 1145 c 128,-1,15
 336 1095 336 1095 301 1059.5 c 128,-1,16
 266 1024 266 1024 217 1024 c 128,-1,17
 168 1024 168 1024 132 1060 c 128,-1,10
 96 1096 96 1096 96 1145 c 128,-1,11
EndSplineSet
EndChar

StartChar: copyright
Encoding: 169 169 107
Width: 1302
GlyphClass: 2
Flags: HW
LayerCount: 2
Fore
SplineSet
141 549 m 128,-1,1
 141 411 141 411 209.5 293.5 c 128,-1,2
 278 176 278 176 395.5 107.5 c 128,-1,3
 513 39 513 39 651 39 c 128,-1,4
 789 39 789 39 906.5 107.5 c 128,-1,5
 1024 176 1024 176 1092.5 293.5 c 128,-1,6
 1161 411 1161 411 1161 549 c 128,-1,7
 1161 687 1161 687 1092.5 804.5 c 128,-1,8
 1024 922 1024 922 906.5 990.5 c 128,-1,9
 789 1059 789 1059 651 1059 c 128,-1,10
 513 1059 513 1059 395.5 990.5 c 128,-1,11
 278 922 278 922 209.5 804.5 c 128,-1,0
 141 687 141 687 141 549 c 128,-1,1
86 549 m 128,-1,13
 86 702 86 702 162 832 c 128,-1,14
 238 962 238 962 368 1038 c 128,-1,15
 498 1114 498 1114 651 1114 c 128,-1,16
 804 1114 804 1114 934.5 1038 c 128,-1,17
 1065 962 1065 962 1141 832 c 128,-1,18
 1217 702 1217 702 1217 549 c 128,-1,19
 1217 396 1217 396 1141 266 c 128,-1,20
 1065 136 1065 136 934.5 60 c 128,-1,21
 804 -16 804 -16 651 -16 c 128,-1,22
 498 -16 498 -16 368 60 c 128,-1,23
 238 136 238 136 162 266 c 128,-1,12
 86 396 86 396 86 549 c 128,-1,13
778.5 778 m 128,-1,25
 751 809 751 809 679.5 809 c 128,-1,26
 608 809 608 809 563 746 c 128,-1,27
 518 683 518 683 518 559.5 c 128,-1,28
 518 436 518 436 567 371.5 c 128,-1,29
 616 307 616 307 681.5 307 c 0,30,31
 796.186046512 307 796.186046512 307 836 414 c 1,32,-1
 899 387 l 1,33,34
 841 238 841 238 682.5 238 c 128,-1,35
 524 238 524 238 437 322.5 c 128,-1,36
 350 407 350 407 350 549 c 0,37,38
 350 749.449438202 350 749.449438202 500.5 834 c 0,39,40
 580.6 879 580.6 879 690 879 c 0,41,42
 738 879 738 879 769 863.5 c 128,-1,43
 800 848 800 848 802.5 848 c 128,-1,44
 805 848 805 848 805 868 c 1,45,-1
 850 868 l 1,46,-1
 862 694 l 1,47,-1
 821 694 l 1,48,24
 806 747 806 747 778.5 778 c 128,-1,25
EndSplineSet
EndChar

StartChar: ordfeminine
Encoding: 170 170 108
Width: 823
GlyphClass: 2
Flags: HW
LayerCount: 2
Fore
SplineSet
115 317 m 1,0,-1
 723 317 l 1,1,-1
 723 264 l 1,2,-1
 115 264 l 1,3,-1
 115 317 l 1,0,-1
322 430 m 0,4,5
 115 430 115 430 115 567 c 0,6,7
 115 624.852272727 115 624.852272727 202 655.5 c 0,8,9
 279.137656428 682.673492605 279.137656428 682.673492605 359.568828214 697.836746303 c 128,-1,10
 440 713 440 713 463 719 c 1,11,12
 463 824 463 824 443.5 865.5 c 128,-1,13
 424 907 424 907 369.5 907 c 0,14,15
 257.25 907 257.25 907 244 854 c 1,16,17
 272 854 272 854 272 807 c 0,18,19
 272 768 272 768 207 768 c 0,20,21
 182 768 182 768 163.5 783.5 c 128,-1,22
 145 799 145 799 145 823 c 0,23,24
 145 880 145 880 207.5 914 c 128,-1,25
 270 948 270 948 378 948 c 128,-1,26
 486 948 486 948 551 895 c 128,-1,27
 616 842 616 842 616 760 c 2,28,-1
 616 537 l 2,29,30
 616 502 616 502 629 484.5 c 128,-1,31
 642 467 642 467 658.5 467 c 128,-1,32
 675 467 675 467 688.5 475 c 128,-1,33
 702 483 702 483 702 494 c 1,34,-1
 723 494 l 1,35,36
 723 432 723 432 588 432 c 0,37,38
 528 432 528 432 492 473 c 1,39,40
 412 430 412 430 322 430 c 0,4,5
475 500 m 1,41,42
 463 527 463 527 463 567 c 2,43,-1
 463 694 l 1,44,45
 440.708333333 689.541666667 440.708333333 689.541666667 398.854166667 676.270833333 c 128,-1,46
 357 663 357 663 349 658.5 c 128,-1,47
 341 654 341 654 325.5 646 c 128,-1,48
 310 638 310 638 303 630.5 c 128,-1,49
 296 623 296 623 287.5 613 c 0,50,51
 272 594.764705882 272 594.764705882 272 554.382352941 c 128,-1,52
 272 514 272 514 296.5 491.5 c 128,-1,53
 321 469 321 469 364.5 469 c 128,-1,54
 408 469 408 469 475 500 c 1,41,42
EndSplineSet
EndChar

StartChar: guillemotleft
Encoding: 171 171 109
Width: 899
GlyphClass: 2
Flags: HW
LayerCount: 2
Fore
SplineSet
430 678 m 1,0,-1
 786 903 l 1,1,-1
 786 817 l 1,2,-1
 582 612 l 1,3,-1
 786 408 l 1,4,-1
 786 322 l 1,5,-1
 430 547 l 2,6,7
 395 569.647058824 395 569.647058824 395 613.823529412 c 128,-1,8
 395 658 395 658 430 678 c 1,0,-1
102 678 m 1,9,-1
 459 903 l 1,10,-1
 459 817 l 1,11,-1
 254 612 l 1,12,-1
 459 408 l 1,13,-1
 459 322 l 1,14,-1
 102 547 l 2,15,16
 68 569 68 569 68 614 c 128,-1,17
 68 659 68 659 102 678 c 1,9,-1
EndSplineSet
EndChar

StartChar: logicalnot
Encoding: 172 172 110
Width: 851
GlyphClass: 2
Flags: HW
LayerCount: 2
Fore
SplineSet
637 606 m 1,0,-1
 125 606 l 1,1,-1
 125 696 l 1,2,-1
 723 696 l 1,3,-1
 723 426 l 1,4,-1
 637 426 l 1,5,-1
 637 606 l 1,0,-1
EndSplineSet
EndChar

StartChar: uni00AD
Encoding: 173 173 111
Width: 761
GlyphClass: 2
Flags: HW
LayerCount: 2
Fore
SplineSet
111 696 m 1,0,-1
 651 696 l 1,1,-1
 651 606 l 1,2,-1
 111 606 l 1,3,-1
 111 696 l 1,0,-1
EndSplineSet
EndChar

StartChar: registered
Encoding: 174 174 112
Width: 1302
GlyphClass: 2
Flags: HW
LayerCount: 2
Fore
SplineSet
141 549 m 128,-1,1
 141 411 141 411 209.5 293.5 c 128,-1,2
 278 176 278 176 395.5 107.5 c 128,-1,3
 513 39 513 39 651 39 c 128,-1,4
 789 39 789 39 906.5 107.5 c 128,-1,5
 1024 176 1024 176 1092.5 293.5 c 128,-1,6
 1161 411 1161 411 1161 549 c 128,-1,7
 1161 687 1161 687 1092.5 804.5 c 128,-1,8
 1024 922 1024 922 906.5 990.5 c 128,-1,9
 789 1059 789 1059 651 1059 c 128,-1,10
 513 1059 513 1059 395.5 990.5 c 128,-1,11
 278 922 278 922 209.5 804.5 c 128,-1,0
 141 687 141 687 141 549 c 128,-1,1
86 549 m 128,-1,13
 86 702 86 702 162 832 c 128,-1,14
 238 962 238 962 368 1038 c 128,-1,15
 498 1114 498 1114 651 1114 c 128,-1,16
 804 1114 804 1114 934.5 1038 c 128,-1,17
 1065 962 1065 962 1141 832 c 128,-1,18
 1217 702 1217 702 1217 549 c 128,-1,19
 1217 396 1217 396 1141 266 c 128,-1,20
 1065 136 1065 136 934.5 60 c 128,-1,21
 804 -16 804 -16 651 -16 c 128,-1,22
 498 -16 498 -16 368 60 c 128,-1,23
 238 136 238 136 162 266 c 128,-1,12
 86 396 86 396 86 549 c 128,-1,13
905 709 m 0,24,25
 905 586.047619048 905 586.047619048 776 541 c 1,26,-1
 907 307 l 1,27,28
 912.333333333 291 912.333333333 291 958 291 c 1,29,-1
 958 250 l 1,30,-1
 905 250 l 2,31,32
 829 250 829 250 796.5 261 c 128,-1,33
 764 272 764 272 743 309 c 2,34,-1
 623 522 l 1,35,-1
 575 522 l 1,36,-1
 575 305 l 1,37,38
 581 291 581 291 639 291 c 1,39,-1
 639 250 l 1,40,-1
 365 250 l 1,41,-1
 365 291 l 1,42,43
 419 291 419 291 428 305 c 1,44,-1
 428 815 l 1,45,46
 422 827 422 827 365 827 c 1,47,-1
 365 868 l 1,48,-1
 623 868 l 2,49,50
 756 868 756 868 830.5 819.5 c 128,-1,51
 905 771 905 771 905 709 c 0,24,25
575 815 m 1,52,-1
 575 578 l 1,53,-1
 618 578 l 2,54,55
 750 578 750 578 750 707 c 0,56,57
 750 756 750 756 710.5 785.5 c 128,-1,58
 671 815 671 815 606 815 c 2,59,-1
 575 815 l 1,52,-1
EndSplineSet
EndChar

StartChar: macron
Encoding: 175 175 113
Width: 786
GlyphClass: 2
Flags: HW
LayerCount: 2
Fore
SplineSet
123 1163 m 1,0,-1
 664 1163 l 1,1,-1
 664 1053 l 1,2,-1
 123 1053 l 1,3,-1
 123 1163 l 1,0,-1
EndSplineSet
EndChar

StartChar: degree
Encoding: 176 176 114
Width: 606
GlyphClass: 2
Flags: HW
LayerCount: 2
Fore
SplineSet
154 1057 m 128,-1,1
 154 996 154 996 197.5 952.5 c 128,-1,2
 241 909 241 909 303 909 c 128,-1,3
 365 909 365 909 409 952.5 c 128,-1,4
 453 996 453 996 453 1057 c 128,-1,5
 453 1118 453 1118 409 1162 c 128,-1,6
 365 1206 365 1206 303.5 1206 c 0,7,8
 242 1206 242 1206 198 1162 c 128,-1,0
 154 1118 154 1118 154 1057 c 128,-1,1
70 1057 m 128,-1,10
 70 1152 70 1152 139 1221 c 128,-1,11
 208 1290 208 1290 303 1290 c 128,-1,12
 398 1290 398 1290 467.5 1221 c 128,-1,13
 537 1152 537 1152 537 1057 c 128,-1,14
 537 962 537 962 467.5 893.5 c 128,-1,15
 398 825 398 825 303 825 c 128,-1,16
 208 825 208 825 139 893.5 c 128,-1,9
 70 962 70 962 70 1057 c 128,-1,10
EndSplineSet
EndChar

StartChar: plusminus
Encoding: 177 177 115
Width: 835
GlyphClass: 2
Flags: HW
LayerCount: 2
Fore
SplineSet
125 365 m 1,0,-1
 711 365 l 1,1,-1
 711 274 l 1,2,-1
 125 274 l 1,3,-1
 125 365 l 1,0,-1
463 713 m 1,4,-1
 463 506 l 1,5,-1
 373 506 l 1,6,-1
 373 713 l 1,7,-1
 125 713 l 1,8,-1
 125 803 l 1,9,-1
 373 803 l 1,10,-1
 373 1010 l 1,11,-1
 463 1010 l 1,12,-1
 463 803 l 1,13,-1
 711 803 l 1,14,-1
 711 713 l 1,15,-1
 463 713 l 1,4,-1
EndSplineSet
EndChar

StartChar: uni00B2
Encoding: 178 178 116
Width: 720
GlyphClass: 2
Flags: HW
LayerCount: 2
Fore
SplineSet
530 709 m 1,0,1
 593.018867925 731.056603774 593.018867925 731.056603774 608 776 c 1,2,-1
 653 776 l 1,3,-1
 596 573 l 1,4,-1
 66 573 l 1,5,-1
 66 584 l 2,6,7
 66 613.8 66 613.8 198 741 c 0,8,9
 346.212209302 883.822674419 346.212209302 883.822674419 393.106104651 970.911337209 c 128,-1,10
 440 1058 440 1058 440 1118 c 128,-1,11
 440 1178 440 1178 412 1213.5 c 128,-1,12
 384 1249 384 1249 329 1249 c 128,-1,13
 274 1249 274 1249 233 1235.5 c 128,-1,14
 192 1222 192 1222 172.5 1203 c 128,-1,15
 153 1184 153 1184 140.5 1164.5 c 128,-1,16
 128 1145 128 1145 119 1131.5 c 128,-1,17
 110 1118 110 1118 100 1118 c 0,18,19
 80 1118 80 1118 80 1141 c 0,20,21
 80 1177.30952381 80 1177.30952381 109.5 1220.1547619 c 128,-1,22
 139 1263 139 1263 168 1289.5 c 0,23,24
 236.396226415 1352 236.396226415 1352 360.198113208 1352 c 128,-1,25
 484 1352 484 1352 549 1295.5 c 128,-1,26
 614 1239 614 1239 614 1141 c 0,27,28
 614 1086 614 1086 566.5 1014.5 c 128,-1,29
 519 943 519 943 462.5 888.5 c 128,-1,30
 406 834 406 834 347 779.5 c 128,-1,31
 288 725 288 725 276 709 c 1,32,-1
 530 709 l 1,0,1
EndSplineSet
EndChar

StartChar: uni00B3
Encoding: 179 179 117
Width: 708
GlyphClass: 2
Flags: HW
LayerCount: 2
Fore
SplineSet
371 950 m 1,0,-1
 303 942 l 1,1,2
 289 942 289 942 277.5 951 c 128,-1,3
 266 960 266 960 266 967.5 c 128,-1,4
 266 975 266 975 270 979.5 c 0,5,6
 276.666666667 987 276.666666667 987 296.333333333 992 c 128,-1,7
 316 997 316 997 330.5 1002.5 c 128,-1,8
 345 1008 345 1008 369.5 1020.5 c 128,-1,9
 394 1033 394 1033 405 1046.5 c 0,10,11
 434 1082.09090909 434 1082.09090909 434 1135 c 128,-1,12
 434 1188 434 1188 403.5 1218.5 c 128,-1,13
 373 1249 373 1249 320 1249 c 128,-1,14
 267 1249 267 1249 233.5 1238 c 128,-1,15
 200 1227 200 1227 185 1211 c 128,-1,16
 170 1195 170 1195 160.5 1179 c 128,-1,17
 151 1163 151 1163 143.5 1152 c 128,-1,18
 136 1141 136 1141 125.5 1141 c 0,19,20
 104 1141 104 1141 104 1165 c 0,21,22
 104 1206.58823529 104 1206.58823529 143 1256.29411765 c 0,23,24
 218.092307692 1352 218.092307692 1352 332 1352 c 0,25,26
 592 1352 592 1352 592 1153 c 0,27,28
 592 1067 592 1067 492 1006 c 1,29,30
 554 981 554 981 591.5 931.5 c 128,-1,31
 629 882 629 882 629 824.5 c 128,-1,32
 629 767 629 767 616 723.5 c 128,-1,33
 603 680 603 680 571.5 642.5 c 0,34,35
 506.4 565 506.4 565 336 565 c 0,36,37
 172.5 565 172.5 565 87 655 c 0,38,39
 68 675 68 675 68 688 c 0,40,41
 68 734 68 734 80.5 753 c 128,-1,42
 93 772 93 772 118.5 772 c 128,-1,43
 144 772 144 772 156 757 c 128,-1,44
 168 742 168 742 177.5 721 c 128,-1,45
 187 700 187 700 201.5 678.5 c 0,46,47
 236.23255814 627 236.23255814 627 317.11627907 627 c 128,-1,48
 398 627 398 627 436.5 679.5 c 128,-1,49
 475 732 475 732 475 789.5 c 128,-1,50
 475 847 475 847 445 898.5 c 128,-1,51
 415 950 415 950 371 950 c 1,0,-1
EndSplineSet
EndChar

StartChar: acute
Encoding: 180 180 118
Width: 614
GlyphClass: 2
Flags: HW
LayerCount: 2
Fore
SplineSet
170 1356 m 1,0,-1
 428 1356 l 1,1,-1
 154 1024 l 1,2,-1
 59 1024 l 1,3,-1
 170 1356 l 1,0,-1
EndSplineSet
EndChar

StartChar: uni00B5
Encoding: 181 181 119
Width: 1251
GlyphClass: 2
Flags: HW
LayerCount: 2
Fore
SplineSet
981 -20 m 0,0,1
 851.945454545 -20 851.945454545 -20 799 84 c 1,2,3
 706 -20 706 -20 567 -20 c 0,4,5
 349 -20 349 -20 238 76 c 1,6,-1
 238 -68 l 2,7,8
 238 -159.6 238 -159.6 286 -198 c 0,9,10
 306 -214 306 -214 325.5 -228 c 0,11,12
 373 -262.102564103 373 -262.102564103 373 -311.551282051 c 128,-1,13
 373 -361 373 -361 342 -385.5 c 128,-1,14
 311 -410 311 -410 269 -410 c 128,-1,15
 227 -410 227 -410 189.5 -377.5 c 128,-1,16
 152 -345 152 -345 152 -274 c 2,17,-1
 152 901 l 1,18,-1
 408 901 l 1,19,-1
 408 256 l 2,20,21
 408 49 408 49 596 49 c 0,22,23
 695 49 695 49 776 141 c 1,24,25
 768 174 768 174 768 227 c 2,26,-1
 768 901 l 1,27,-1
 1024 901 l 1,28,-1
 1024 170 l 2,29,30
 1024 105 1024 105 1046 73 c 128,-1,31
 1068 41 1068 41 1096.5 41 c 128,-1,32
 1125 41 1125 41 1146 56 c 128,-1,33
 1167 71 1167 71 1167 92 c 1,34,-1
 1204 92 l 1,35,36
 1204 -20 1204 -20 981 -20 c 0,0,1
EndSplineSet
EndChar

StartChar: paragraph
Encoding: 182 182 120
Width: 1087
GlyphClass: 2
Flags: HW
LayerCount: 2
Fore
SplineSet
868 84 m 1,0,1
 884.772727273 43 884.772727273 43 997 43 c 1,2,-1
 997 0 l 1,3,-1
 680 0 l 1,4,-1
 680 1128 l 1,5,-1
 575 1128 l 1,6,-1
 575 0 l 1,7,-1
 258 0 l 1,8,-1
 258 43 l 1,9,10
 370.227272727 43 370.227272727 43 387 84 c 1,11,-1
 387 549 l 1,12,13
 232 564 232 564 145.5 651 c 128,-1,14
 59 738 59 738 59 872 c 0,15,16
 59 965.223880597 59 965.223880597 120.5 1046 c 0,17,18
 236.227272727 1198 236.227272727 1198 506 1198 c 2,19,-1
 997 1198 l 1,20,-1
 997 1155 l 1,21,22
 884.772727273 1155 884.772727273 1155 868 1114 c 1,23,-1
 868 84 l 1,0,1
EndSplineSet
EndChar

StartChar: periodcentered
Encoding: 183 183 121
Width: 471
GlyphClass: 2
Flags: HW
LayerCount: 2
Fore
SplineSet
140.5 526 m 128,-1,1
 94 560 94 560 94 619 c 128,-1,2
 94 678 94 678 136 714 c 128,-1,3
 178 750 178 750 230 750 c 128,-1,4
 282 750 282 750 329.5 716 c 128,-1,5
 377 682 377 682 377 623.5 c 128,-1,6
 377 565 377 565 334 528.5 c 128,-1,7
 291 492 291 492 239 492 c 128,-1,0
 187 492 187 492 140.5 526 c 128,-1,1
EndSplineSet
EndChar

StartChar: cedilla
Encoding: 184 184 122
Width: 622
GlyphClass: 2
Flags: HW
LayerCount: 2
Fore
SplineSet
244 25 m 1,0,-1
 342 25 l 1,1,-1
 305 -113 l 1,2,3
 365.4 -113 365.4 -113 418.2 -135 c 0,4,5
 520 -177.416666667 520 -177.416666667 520 -244.708333333 c 128,-1,6
 520 -312 520 -312 460.5 -360 c 128,-1,7
 401 -408 401 -408 274 -408 c 0,8,9
 212 -408 212 -408 123 -393 c 1,10,-1
 123 -358 l 1,11,12
 159 -362 159 -362 174 -362 c 0,13,14
 252 -362 252 -362 281.5 -333.5 c 128,-1,15
 311 -305 311 -305 311 -266 c 0,16,17
 311 -176 311 -176 186 -176 c 1,18,-1
 244 25 l 1,0,-1
EndSplineSet
EndChar

StartChar: uni00B9
Encoding: 185 185 123
Width: 497
GlyphClass: 2
Flags: HW
LayerCount: 2
Fore
SplineSet
72 1040 m 1,0,1
 245 1341 245 1341 289 1341 c 2,2,-1
 336 1341 l 1,3,-1
 336 641 l 1,4,5
 346 621 346 621 424 621 c 1,6,-1
 424 573 l 1,7,-1
 84 573 l 1,8,-1
 84 621 l 1,9,10
 158 621 158 621 170 641 c 1,11,-1
 170 1085 l 1,12,13
 150 1073 150 1073 106 1022 c 1,14,-1
 72 1040 l 1,0,1
EndSplineSet
EndChar

StartChar: ordmasculine
Encoding: 186 186 124
Width: 815
GlyphClass: 2
Flags: HW
LayerCount: 2
Fore
SplineSet
111 317 m 1,0,-1
 705 317 l 1,1,-1
 705 264 l 1,2,-1
 111 264 l 1,3,-1
 111 317 l 1,0,-1
272 721 m 0,4,5
 272 463 272 463 430 463 c 0,6,7
 485 463 485 463 515 517 c 128,-1,8
 545 571 545 571 545 683.5 c 128,-1,9
 545 796 545 796 510 854.5 c 128,-1,10
 475 913 475 913 385 913 c 0,11,12
 332 913 332 913 302 857 c 128,-1,13
 272 801 272 801 272 721 c 0,4,5
631.5 503 m 128,-1,15
 558 430 558 430 416.5 430 c 128,-1,16
 275 430 275 430 193 504 c 128,-1,17
 111 578 111 578 111 692 c 128,-1,18
 111 806 111 806 185.5 877 c 128,-1,19
 260 948 260 948 406 948 c 128,-1,20
 552 948 552 948 628.5 877 c 128,-1,21
 705 806 705 806 705 691 c 128,-1,14
 705 576 705 576 631.5 503 c 128,-1,15
EndSplineSet
EndChar

StartChar: guillemotright
Encoding: 187 187 125
Width: 899
GlyphClass: 2
Flags: HW
LayerCount: 2
Fore
SplineSet
797 547 m 1,0,-1
 440 322 l 1,1,-1
 440 408 l 1,2,-1
 645 612 l 1,3,-1
 440 817 l 1,4,-1
 440 903 l 1,5,-1
 797 678 l 2,6,7
 831 656 831 656 831 611 c 128,-1,8
 831 566 831 566 797 547 c 1,0,-1
469 547 m 1,9,-1
 113 322 l 1,10,-1
 113 408 l 1,11,-1
 317 612 l 1,12,-1
 113 817 l 1,13,-1
 113 903 l 1,14,-1
 469 678 l 2,15,16
 504 655.352941176 504 655.352941176 504 611.176470588 c 128,-1,17
 504 567 504 567 469 547 c 1,9,-1
EndSplineSet
EndChar

StartChar: onequarter
Encoding: 188 188 126
Width: 1335
GlyphClass: 2
Flags: HW
LayerCount: 2
Fore
SplineSet
61 1040 m 1,0,1
 234 1341 234 1341 279 1341 c 2,2,-1
 326 1341 l 1,3,-1
 326 641 l 1,4,5
 336 621 336 621 414 621 c 1,6,-1
 414 573 l 1,7,-1
 74 573 l 1,8,-1
 74 621 l 1,9,10
 148 621 148 621 160 641 c 1,11,-1
 160 1085 l 1,12,13
 140 1073 140 1073 96 1022 c 1,14,-1
 61 1040 l 1,0,1
1182 768 m 1,15,-1
 1182 274 l 1,16,-1
 1274 274 l 1,17,-1
 1274 215 l 1,18,-1
 1182 215 l 1,19,-1
 1182 68 l 1,20,21
 1194 47 1194 47 1268 47 c 1,22,-1
 1268 0 l 1,23,-1
 932 0 l 1,24,-1
 932 47 l 1,25,26
 1008 47 1008 47 1018 68 c 1,27,-1
 1018 215 l 1,28,-1
 688 215 l 1,29,-1
 1075 768 l 1,30,-1
 1182 768 l 1,15,-1
1018 274 m 1,31,-1
 1018 582 l 1,32,-1
 803 274 l 1,33,-1
 1018 274 l 1,31,-1
199 -20 m 1,34,-1
 995 1253 l 1,35,-1
 1096 1217 l 1,36,-1
 299 -57 l 1,37,-1
 199 -20 l 1,34,-1
EndSplineSet
EndChar

StartChar: onehalf
Encoding: 189 189 127
Width: 1390
GlyphClass: 2
Flags: HW
LayerCount: 2
Fore
SplineSet
68 1040 m 1,0,1
 241 1341 241 1341 285 1341 c 2,2,-1
 332 1341 l 1,3,-1
 332 641 l 1,4,5
 342 621 342 621 420 621 c 1,6,-1
 420 573 l 1,7,-1
 80 573 l 1,8,-1
 80 621 l 1,9,10
 154 621 154 621 166 641 c 1,11,-1
 166 1085 l 1,12,13
 146 1073 146 1073 102 1022 c 1,14,-1
 68 1040 l 1,0,1
1210 135 m 1,15,16
 1273.08 158.24 1273.08 158.24 1288 203 c 1,17,-1
 1333 203 l 1,18,-1
 1276 0 l 1,19,-1
 745 0 l 1,20,-1
 745 10 l 2,21,22
 745 39.1 745 39.1 877 167.5 c 0,23,24
 932 221 932 221 987.5 281 c 128,-1,25
 1043 341 1043 341 1081.5 413 c 128,-1,26
 1120 485 1120 485 1120 545 c 128,-1,27
 1120 605 1120 605 1092 640.5 c 128,-1,28
 1064 676 1064 676 1009 676 c 128,-1,29
 954 676 954 676 913 662.5 c 128,-1,30
 872 649 872 649 852.5 629.5 c 128,-1,31
 833 610 833 610 820.5 591 c 128,-1,32
 808 572 808 572 799 558.5 c 128,-1,33
 790 545 790 545 780 545 c 0,34,35
 760 545 760 545 760 567 c 0,36,37
 760 603.30952381 760 603.30952381 789.5 646.154761905 c 128,-1,38
 819 689 819 689 848 715.5 c 0,39,40
 916.396226415 778 916.396226415 778 1040.19811321 778 c 128,-1,41
 1164 778 1164 778 1229 721.5 c 128,-1,42
 1294 665 1294 665 1294 567 c 0,43,44
 1294 512 1294 512 1246.5 440.5 c 128,-1,45
 1199 369 1199 369 1142.5 314.5 c 128,-1,46
 1086 260 1086 260 1027 205.5 c 128,-1,47
 968 151 968 151 956 135 c 1,48,-1
 1210 135 l 1,15,16
156 -20 m 1,49,-1
 952 1253 l 1,50,-1
 1053 1217 l 1,51,-1
 256 -57 l 1,52,-1
 156 -20 l 1,49,-1
EndSplineSet
EndChar

StartChar: threequarters
Encoding: 190 190 128
Width: 1413
GlyphClass: 2
Flags: HW
LayerCount: 2
Fore
SplineSet
360 950 m 1,0,-1
 293 942 l 1,1,2
 279 942 279 942 267.5 951 c 128,-1,3
 256 960 256 960 256 967.5 c 128,-1,4
 256 975 256 975 260 979.5 c 0,5,6
 266.666666667 987 266.666666667 987 285.833333333 992 c 128,-1,7
 305 997 305 997 319.5 1002.5 c 128,-1,8
 334 1008 334 1008 359 1020.5 c 128,-1,9
 384 1033 384 1033 395 1046.5 c 0,10,11
 424 1082.09090909 424 1082.09090909 424 1135 c 128,-1,12
 424 1188 424 1188 393.5 1218.5 c 128,-1,13
 363 1249 363 1249 310 1249 c 128,-1,14
 257 1249 257 1249 223.5 1238 c 128,-1,15
 190 1227 190 1227 175 1211 c 128,-1,16
 160 1195 160 1195 150.5 1179 c 128,-1,17
 141 1163 141 1163 133.5 1152 c 128,-1,18
 126 1141 126 1141 115.5 1141 c 0,19,20
 94 1141 94 1141 94 1165 c 0,21,22
 94 1206.58823529 94 1206.58823529 133 1256.29411765 c 0,23,24
 208.092307692 1352 208.092307692 1352 322 1352 c 0,25,26
 582 1352 582 1352 582 1153 c 0,27,28
 582 1067 582 1067 481 1006 c 1,29,30
 543 981 543 981 580.5 931.5 c 128,-1,31
 618 882 618 882 618 824.5 c 128,-1,32
 618 767 618 767 605 723.5 c 128,-1,33
 592 680 592 680 561 642.5 c 0,34,35
 496.933333333 565 496.933333333 565 326 565 c 0,36,37
 164.25 565 164.25 565 76.5 655 c 0,38,39
 57 675 57 675 57 688 c 0,40,41
 57 734 57 734 70 753 c 128,-1,42
 83 772 83 772 108.5 772 c 128,-1,43
 134 772 134 772 146 757 c 128,-1,44
 158 742 158 742 167.5 721 c 128,-1,45
 177 700 177 700 191 678.5 c 0,46,47
 224.534883721 627 224.534883721 627 305.76744186 627 c 128,-1,48
 387 627 387 627 426 680 c 128,-1,49
 465 733 465 733 465 789.5 c 128,-1,50
 465 846 465 846 434.5 898 c 128,-1,51
 404 950 404 950 360 950 c 1,0,-1
1251 768 m 1,52,-1
 1251 274 l 1,53,-1
 1343 274 l 1,54,-1
 1343 215 l 1,55,-1
 1251 215 l 1,56,-1
 1251 68 l 1,57,58
 1263 47 1263 47 1337 47 c 1,59,-1
 1337 0 l 1,60,-1
 1001 0 l 1,61,-1
 1001 47 l 1,62,63
 1076 47 1076 47 1087 68 c 1,64,-1
 1087 215 l 1,65,-1
 758 215 l 1,66,-1
 1145 768 l 1,67,-1
 1251 768 l 1,52,-1
1087 274 m 1,68,-1
 1087 582 l 1,69,-1
 872 274 l 1,70,-1
 1087 274 l 1,68,-1
289 -20 m 1,71,-1
 1085 1253 l 1,72,-1
 1186 1217 l 1,73,-1
 389 -57 l 1,74,-1
 289 -20 l 1,71,-1
EndSplineSet
EndChar

StartChar: questiondown
Encoding: 191 191 129
Width: 872
GlyphClass: 2
Flags: HW
LayerCount: 2
Fore
SplineSet
574.5 1050.5 m 128,-1,1
 621 1016 621 1016 621 957 c 128,-1,2
 621 898 621 898 578.5 862.5 c 128,-1,3
 536 827 536 827 484 827 c 128,-1,4
 432 827 432 827 385 861 c 128,-1,5
 338 895 338 895 338 953.5 c 128,-1,6
 338 1012 338 1012 381 1048.5 c 128,-1,7
 424 1085 424 1085 476 1085 c 128,-1,0
 528 1085 528 1085 574.5 1050.5 c 128,-1,1
522 655 m 0,8,9
 522 550.043478261 522 550.043478261 469 474 c 0,10,11
 410.538461538 390.120401338 410.538461538 390.120401338 378.769230769 335.560200669 c 0,12,13
 317 229.47826087 317 229.47826087 317 102.239130435 c 128,-1,14
 317 -25 317 -25 364 -94.5 c 128,-1,15
 411 -164 411 -164 490 -164 c 128,-1,16
 569 -164 569 -164 605 -119 c 128,-1,17
 641 -74 641 -74 641 -33.5 c 128,-1,18
 641 7 641 7 625.5 34 c 128,-1,19
 610 61 610 61 610 89.5 c 128,-1,20
 610 118 610 118 639 146 c 128,-1,21
 668 174 668 174 714.5 174 c 128,-1,22
 761 174 761 174 788 140.5 c 128,-1,23
 815 107 815 107 815 54.5 c 128,-1,24
 815 2 815 2 792.5 -45.5 c 128,-1,25
 770 -93 770 -93 728 -133.5 c 0,26,27
 633.111111111 -225 633.111111111 -225 451.555555556 -225 c 128,-1,28
 270 -225 270 -225 165.5 -139 c 128,-1,29
 61 -53 61 -53 61 92 c 0,30,31
 61 207.882352941 61 207.882352941 138 303 c 0,32,33
 196.037478705 374.693356048 196.037478705 374.693356048 267.018739353 432.846678024 c 128,-1,34
 338 491 338 491 372 523 c 0,35,36
 449 595.470588235 449 595.470588235 449 655 c 0,37,38
 449 665 449 665 462.5 674.5 c 128,-1,39
 476 684 476 684 485 684 c 128,-1,40
 494 684 494 684 508 674.5 c 128,-1,41
 522 665 522 665 522 655 c 0,8,9
EndSplineSet
EndChar

StartChar: AE
Encoding: 198 198 136
Width: 1519
GlyphClass: 2
Flags: HW
AnchorPoint: "Anchor-1" 848 1270 basechar 0
LayerCount: 2
Fore
SplineSet
584 43 m 1,0,1
 696.227272727 43 696.227272727 43 713 84 c 1,2,-1
 713 381 l 1,3,-1
 317 381 l 1,4,-1
 150 80 l 1,5,6
 161 59 161 59 188 51 c 128,-1,7
 215 43 215 43 276 43 c 1,8,-1
 276 0 l 1,9,-1
 121 0 l 1,10,11
 131 35 131 35 141 66 c 1,12,-1
 104 0 l 1,13,-1
 -59 0 l 1,14,-1
 -59 43 l 1,15,16
 53.1739130435 43 53.1739130435 43 70 86 c 1,17,-1
 70 84 l 1,18,-1
 657 1133 l 1,19,20
 632 1155 632 1155 541 1155 c 1,21,-1
 541 1198 l 1,22,-1
 1409 1198 l 1,23,-1
 1409 999 l 1,24,-1
 1366 999 l 1,25,26
 1366 1111.22727273 1366 1111.22727273 1325 1128 c 1,27,-1
 973 1128 l 1,28,-1
 973 657 l 1,29,-1
 1188 657 l 1,30,31
 1229 673.772727273 1229 673.772727273 1229 786 c 1,32,-1
 1272 786 l 1,33,-1
 1272 459 l 1,34,-1
 1229 459 l 1,35,36
 1229 571.227272727 1229 571.227272727 1188 588 c 1,37,-1
 973 588 l 1,38,-1
 973 70 l 1,39,-1
 1368 70 l 1,40,41
 1417 90 1417 90 1460 199 c 1,42,-1
 1501 199 l 1,43,-1
 1452 0 l 1,44,-1
 584 0 l 1,45,-1
 584 43 l 1,0,1
356 449 m 1,46,-1
 713 449 l 1,47,-1
 713 1085 l 1,48,-1
 356 449 l 1,46,-1
EndSplineSet
EndChar

StartChar: Ccedilla
Encoding: 199 199 137
Width: 1150
GlyphClass: 2
Flags: HW
AnchorPoint: "Anchor-1" 705 1270 basechar 0
LayerCount: 2
Fore
SplineSet
717 1149 m 1,0,-1
 717 1147 l 1,1,2
 546 1147 546 1147 452 1005 c 128,-1,3
 358 863 358 863 358 605 c 128,-1,4
 358 347 358 347 459 197 c 128,-1,5
 560 47 560 47 725 47 c 0,6,7
 825 47 825 47 908 115.5 c 128,-1,8
 991 184 991 184 1022 268 c 1,9,-1
 1106 244 l 1,10,11
 1064 143 1064 143 975.5 69.5 c 128,-1,12
 887 -4 887 -4 743 -18 c 1,13,-1
 719 -113 l 1,14,15
 779.4 -113 779.4 -113 832.2 -135 c 0,16,17
 934 -177.416666667 934 -177.416666667 934 -244.708333333 c 128,-1,18
 934 -312 934 -312 874.5 -360 c 128,-1,19
 815 -408 815 -408 688 -408 c 0,20,21
 626 -408 626 -408 537 -393 c 1,22,-1
 537 -358 l 1,23,24
 573 -362 573 -362 588 -362 c 0,25,26
 666 -362 666 -362 695.5 -333.5 c 128,-1,27
 725 -305 725 -305 725 -266 c 0,28,29
 725 -176 725 -176 600 -176 c 1,30,-1
 645 -18 l 1,31,32
 515 -11 515 -11 405.5 41 c 128,-1,33
 296 93 296 93 224.5 176 c 0,34,35
 74 350.706293706 74 350.706293706 74 582 c 0,36,37
 74 726 74 726 128.5 848 c 128,-1,38
 183 970 183 970 273.5 1050 c 0,39,40
 464.68125 1219 464.68125 1219 715 1219 c 0,41,42
 775 1219 775 1219 863.5 1188 c 128,-1,43
 952 1157 952 1157 963 1157 c 0,44,45
 987 1157 987 1157 987 1198 c 1,46,-1
 1034 1198 l 1,47,-1
 1051 909 l 1,48,-1
 1006 909 l 1,49,50
 994 993 994 993 899.5 1071 c 128,-1,51
 805 1149 805 1149 717 1149 c 1,0,-1
EndSplineSet
EndChar

StartChar: Eth
Encoding: 208 208 146
Width: 1220
GlyphClass: 2
Flags: HW
AnchorPoint: "Anchor-1" 489 1413 basechar 0
LayerCount: 2
Fore
SplineSet
68 41 m 1,0,1
 180.227272727 41 180.227272727 41 197 82 c 1,2,-1
 197 315 l 2,3,4
 197 728.345991561 197 728.345991561 518.5 864 c 0,5,6
 637 914 637 914 803 930 c 1,7,8
 754 1033 754 1033 674.5 1085 c 128,-1,9
 595 1137 595 1137 502 1137 c 2,10,-1
 385 1137 l 1,11,-1
 385 963 l 1,12,-1
 303 963 l 1,13,-1
 303 1137 l 1,14,-1
 133 1137 l 1,15,16
 108 1127 108 1127 84.5 1081.5 c 128,-1,17
 61 1036 61 1036 61 977 c 1,18,-1
 18 977 l 1,19,-1
 18 1198 l 1,20,-1
 303 1198 l 1,21,-1
 303 1341 l 1,22,-1
 385 1341 l 1,23,-1
 385 1198 l 1,24,-1
 539 1198 l 2,25,26
 812 1198 812 1198 977.5 1032 c 128,-1,27
 1143 866 1143 866 1143 599.5 c 128,-1,28
 1143 333 1143 333 981.5 165.5 c 128,-1,29
 820 -2 820 -2 563 -2 c 2,30,-1
 68 -2 l 1,31,-1
 68 41 l 1,0,1
829 868 m 1,32,33
 507.583333333 822.083333333 507.583333333 822.083333333 465.5 527.5 c 0,34,35
 457 468 457 468 457 393 c 2,36,-1
 457 68 l 1,37,-1
 526 68 l 2,38,39
 697.2 68 697.2 68 794 244 c 0,40,41
 866 374.909090909 866 374.909090909 866 566.454545455 c 128,-1,42
 866 758 866 758 829 868 c 1,32,33
EndSplineSet
EndChar

StartChar: multiply
Encoding: 215 215 153
Width: 843
GlyphClass: 2
Flags: HW
LayerCount: 2
Fore
SplineSet
485 651 m 1,0,-1
 748 389 l 1,1,-1
 684 326 l 1,2,-1
 422 588 l 1,3,-1
 160 326 l 1,4,-1
 96 389 l 1,5,-1
 358 651 l 1,6,-1
 96 913 l 1,7,-1
 160 977 l 1,8,-1
 422 715 l 1,9,-1
 684 977 l 1,10,-1
 748 913 l 1,11,-1
 485 651 l 1,0,-1
EndSplineSet
EndChar

StartChar: Oslash
Encoding: 216 216 154
Width: 1359
GlyphClass: 2
Flags: HW
AnchorPoint: "Anchor-1" 688 1270 basechar 0
LayerCount: 2
Fore
SplineSet
330 -57 m 1,0,-1
 270 -20 l 1,1,-1
 338 86 l 1,2,3
 215 172 215 172 143.5 307.5 c 128,-1,4
 72 443 72 443 72 582 c 128,-1,5
 72 721 72 721 120 835.5 c 128,-1,6
 168 950 168 950 249 1034 c 128,-1,7
 330 1118 330 1118 443 1168.5 c 128,-1,8
 556 1219 556 1219 699.5 1219 c 128,-1,9
 843 1219 843 1219 989 1130 c 1,10,-1
 1067 1253 l 1,11,-1
 1126 1217 l 1,12,-1
 1049 1090 l 1,13,14
 1161 1003 1161 1003 1224.5 873.5 c 128,-1,15
 1288 744 1288 744 1288 589 c 128,-1,16
 1288 434 1288 434 1206.5 291.5 c 128,-1,17
 1125 149 1125 149 984.5 64.5 c 128,-1,18
 844 -20 844 -20 687 -20 c 128,-1,19
 530 -20 530 -20 397 51 c 1,20,-1
 330 -57 l 1,0,-1
948 932 m 1,21,-1
 467 162 l 1,22,23
 553 49 553 49 688 49 c 0,24,25
 779 49 779 49 845.5 97.5 c 128,-1,26
 912 146 912 146 946.5 227.5 c 0,27,28
 1012 382.231884058 1012 382.231884058 1012 581.615942029 c 128,-1,29
 1012 781 1012 781 948 932 c 1,21,-1
911 1006 m 1,30,31
 823 1149 823 1149 672 1149 c 0,32,33
 598 1149 598 1149 540 1115.5 c 128,-1,34
 482 1082 482 1082 447 1029.5 c 128,-1,35
 412 977 412 977 389 904.5 c 0,36,37
 348 775.260869565 348 775.260869565 348 580.630434783 c 128,-1,38
 348 386 348 386 426 229 c 1,39,-1
 911 1006 l 1,30,31
EndSplineSet
EndChar

StartChar: Thorn
Encoding: 222 222 160
Width: 1081
GlyphClass: 2
Flags: HW
LayerCount: 2
Fore
SplineSet
463 84 m 1,0,1
 479.772727273 43 479.772727273 43 592 43 c 1,2,-1
 592 0 l 1,3,-1
 74 0 l 1,4,-1
 74 43 l 1,5,6
 186.227272727 43 186.227272727 43 203 84 c 1,7,-1
 203 1114 l 1,8,9
 186.227272727 1155 186.227272727 1155 74 1155 c 1,10,-1
 74 1198 l 1,11,-1
 592 1198 l 1,12,-1
 592 1155 l 1,13,14
 479.772727273 1155 479.772727273 1155 463 1114 c 1,15,-1
 463 973 l 1,16,-1
 498 973 l 2,17,18
 630 973 630 973 739 943 c 128,-1,19
 848 913 848 913 915 864 c 0,20,21
 1055 761.611940299 1055 761.611940299 1055 631 c 0,22,23
 1055 479.727272727 1055 479.727272727 917 371 c 0,24,25
 773.576923077 258 773.576923077 258 522 258 c 2,26,-1
 463 258 l 1,27,-1
 463 84 l 1,0,1
463 903 m 1,28,-1
 463 328 l 1,29,30
 630 328 630 328 704 400 c 128,-1,31
 778 472 778 472 778 629 c 0,32,33
 778 829.5 778 829.5 618 882 c 0,34,35
 554 903 554 903 463 903 c 1,28,-1
EndSplineSet
EndChar

StartChar: germandbls
Encoding: 223 223 161
Width: 1103
GlyphClass: 2
Flags: HW
LayerCount: 2
Fore
SplineSet
696 41 m 0,0,1
 819 41 819 41 819 348 c 0,2,3
 819 433 819 433 786 513.5 c 128,-1,4
 753 594 753 594 687 649.5 c 128,-1,5
 621 705 621 705 537 705 c 2,6,-1
 532 705 l 2,7,8
 500 705 500 705 500 724.5 c 128,-1,9
 500 744 500 744 532 754 c 1,10,11
 585 774 585 774 625.5 857.5 c 128,-1,12
 666 941 666 941 666 1022 c 0,13,14
 666 1229 666 1229 547 1229 c 0,15,16
 493 1229 493 1229 453.5 1169 c 128,-1,17
 414 1109 414 1109 414 999 c 2,18,-1
 414 0 l 1,19,-1
 29 0 l 1,20,-1
 29 43 l 1,21,22
 141.227272727 43 141.227272727 43 158 84 c 1,23,-1
 158 971 l 2,24,25
 158 1056 158 1056 194 1121 c 128,-1,26
 230 1186 230 1186 286.5 1221 c 0,27,28
 397.885714286 1290 397.885714286 1290 518 1290 c 0,29,30
 712 1290 712 1290 806.5 1219.5 c 128,-1,31
 901 1149 901 1149 901 1024 c 0,32,33
 901 938 901 938 832.5 856 c 128,-1,34
 764 774 764 774 666 733 c 1,35,36
 821 705 821 705 941 601.5 c 128,-1,37
 1061 498 1061 498 1061 389 c 0,38,39
 1061 204 1061 204 965 92 c 128,-1,40
 869 -20 869 -20 709 -20 c 0,41,42
 643 -20 643 -20 592 0.5 c 128,-1,43
 541 21 541 21 515 50 c 0,44,45
 463 108 463 108 463 158.5 c 128,-1,46
 463 209 463 209 479 233.5 c 128,-1,47
 495 258 495 258 530 258 c 128,-1,48
 565 258 565 258 581 235.5 c 128,-1,49
 597 213 597 213 603.5 181.5 c 128,-1,50
 610 150 610 150 617.5 118 c 0,51,52
 635.546875 41 635.546875 41 696 41 c 0,0,1
EndSplineSet
EndChar

StartChar: ae
Encoding: 230 230 168
Width: 1589
GlyphClass: 2
Flags: HW
AnchorPoint: "Anchor-1" 780 1055 basechar 0
LayerCount: 2
Fore
SplineSet
895 557 m 1,0,-1
 1268 557 l 1,1,2
 1248.38410596 782.582781457 1248.38410596 782.582781457 1171.5 837.5 c 0,3,4
 1140 860 1140 860 1096 860 c 0,5,6
 1022 860 1022 860 963.5 785.5 c 128,-1,7
 905 711 905 711 895 557 c 1,0,-1
1100 -20 m 0,8,9
 881.72 -20 881.72 -20 752 121 c 1,10,11
 708 69 708 69 618 24.5 c 128,-1,12
 528 -20 528 -20 426 -20 c 128,-1,13
 324 -20 324 -20 266.5 -8.5 c 128,-1,14
 209 3 209 3 158.5 30 c 0,15,16
 51 87.4752475248 51 87.4752475248 51 229 c 0,17,18
 51 304.368421053 51 304.368421053 128 353 c 0,19,20
 208.75 404 208.75 404 289.375 425.5 c 128,-1,21
 370 447 370 447 417 458 c 128,-1,22
 464 469 464 469 528 483 c 128,-1,23
 592 497 592 497 627 506 c 1,24,25
 627 708.043478261 627 708.043478261 600.5 764.5 c 0,26,27
 572.202774378 824.785393717 572.202774378 824.785393717 522 839.5 c 0,28,29
 493 848 493 848 439 848 c 128,-1,30
 385 848 385 848 330.5 820.5 c 128,-1,31
 276 793 276 793 266 750 c 1,32,33
 313 750 313 750 313 666 c 0,34,35
 313 631 313 631 278.5 612.5 c 128,-1,36
 244 594 244 594 204 594 c 128,-1,37
 164 594 164 594 132 623 c 128,-1,38
 100 652 100 652 100 696 c 0,39,40
 100 801 100 801 204 861.5 c 128,-1,41
 308 922 308 922 486 922 c 128,-1,42
 664 922 664 922 780 821 c 1,43,44
 906 922 906 922 1079 922 c 0,45,46
 1303.66666667 922 1303.66666667 922 1425 792 c 0,47,48
 1540 668.785714286 1540 668.785714286 1540 494 c 1,49,-1
 893 494 l 1,50,51
 895 379 895 379 929.5 279.5 c 128,-1,52
 964 180 964 180 1027.5 118.5 c 128,-1,53
 1091 57 1091 57 1176 57 c 0,54,55
 1345.72972973 57 1345.72972973 57 1456 193 c 1,56,-1
 1505 168 l 1,57,58
 1445 71 1445 71 1350.5 25.5 c 128,-1,59
 1256 -20 1256 -20 1100 -20 c 0,8,9
721 158 m 1,60,61
 635 274 635 274 627 459 c 1,62,-1
 597 450 l 2,63,64
 424.386347643 397.890218156 424.386347643 397.890218156 373.5 353.5 c 0,65,66
 313 300.723404255 313 300.723404255 313 215.861702128 c 128,-1,67
 313 131 313 131 353 90 c 128,-1,68
 393 49 393 49 449.5 49 c 128,-1,69
 506 49 506 49 596.5 83 c 128,-1,70
 687 117 687 117 721 158 c 1,60,61
EndSplineSet
EndChar

StartChar: ccedilla
Encoding: 231 231 169
Width: 987
GlyphClass: 2
Flags: HW
AnchorPoint: "Anchor-1" 551 1055 basechar 0
LayerCount: 2
Fore
SplineSet
563 860 m 0,0,1
 466 860 466 860 399 762.5 c 128,-1,2
 332 665 332 665 332 525.5 c 128,-1,3
 332 386 332 386 363.5 285 c 128,-1,4
 395 184 395 184 457 120.5 c 128,-1,5
 519 57 519 57 603.5 57 c 128,-1,6
 688 57 688 57 749.5 91.5 c 128,-1,7
 811 126 811 126 858 205 c 1,8,-1
 934 168 l 1,9,10
 880 80 880 80 798.5 34.5 c 128,-1,11
 717 -11 717 -11 588 -18 c 1,12,-1
 563 -113 l 1,13,14
 623.4 -113 623.4 -113 676.2 -135 c 0,15,16
 778 -177.416666667 778 -177.416666667 778 -244.708333333 c 128,-1,17
 778 -312 778 -312 718.5 -360 c 128,-1,18
 659 -408 659 -408 532 -408 c 0,19,20
 470 -408 470 -408 381 -393 c 1,21,-1
 381 -358 l 1,22,23
 417 -362 417 -362 432 -362 c 0,24,25
 510 -362 510 -362 539.5 -333.5 c 128,-1,26
 569 -305 569 -305 569 -266 c 0,27,28
 569 -176 569 -176 444 -176 c 1,29,-1
 489 -18 l 1,30,31
 278.639133921 -0.469927826784 278.639133921 -0.469927826784 161.5 152.5 c 0,32,33
 66 277.211764706 66 277.211764706 66 496 c 0,34,35
 66 610 66 610 125.5 707 c 128,-1,36
 185 804 185 804 295 863 c 128,-1,37
 405 922 405 922 557 922 c 128,-1,38
 709 922 709 922 810 865.5 c 128,-1,39
 911 809 911 809 911 705 c 0,40,41
 911 655 911 655 886 621.5 c 128,-1,42
 861 588 861 588 810.5 588 c 128,-1,43
 760 588 760 588 730 612 c 128,-1,44
 700 636 700 636 700 676.5 c 128,-1,45
 700 717 700 717 721.5 737.5 c 128,-1,46
 743 758 743 758 772 758 c 1,47,48
 746 860 746 860 563 860 c 0,0,1
EndSplineSet
EndChar

StartChar: eth
Encoding: 240 240 178
Width: 1107
GlyphClass: 2
Flags: HW
LayerCount: 2
Fore
SplineSet
196.5 114 m 128,-1,1
 63 248 63 248 63 467 c 0,2,3
 63 657 63 657 177 785 c 0,4,5
 299.015625 922 299.015625 922 547 922 c 0,6,7
 591 922 591 922 649 915 c 1,8,9
 593 1010 593 1010 526 1083 c 1,10,-1
 365 991 l 1,11,-1
 330 1051 l 1,12,-1
 475 1135 l 1,13,14
 396.375 1209.375 396.375 1209.375 342 1242 c 1,15,-1
 322 1253 l 1,16,-1
 344 1290 l 1,17,18
 442 1258 442 1258 563 1186 c 1,19,-1
 737 1286 l 1,20,-1
 772 1227 l 1,21,-1
 629 1143 l 1,22,23
 789.433666191 1034.70727532 789.433666191 1034.70727532 905.5 875 c 0,24,25
 1040 689.928 1040 689.928 1040 442 c 0,26,27
 1040 201.218181818 1040 201.218181818 876 73 c 0,28,29
 757.046511628 -20 757.046511628 -20 543.523255814 -20 c 128,-1,0
 330 -20 330 -20 196.5 114 c 128,-1,1
332 508 m 0,30,31
 332 274 332 274 403.5 157.5 c 128,-1,32
 475 41 475 41 588 41 c 0,33,34
 672 41 672 41 722 140 c 128,-1,35
 772 239 772 239 772 395 c 0,36,37
 772 637 772 637 708.5 747.5 c 128,-1,38
 645 858 645 858 512 858 c 0,39,40
 439 858 439 858 385.5 752 c 128,-1,41
 332 646 332 646 332 508 c 0,30,31
EndSplineSet
EndChar

StartChar: divide
Encoding: 247 247 185
Width: 970
GlyphClass: 2
Flags: HW
LayerCount: 2
Fore
SplineSet
405.5 853.5 m 128,-1,1
 369 890 369 890 369 936.5 c 128,-1,2
 369 983 369 983 400.5 1021 c 128,-1,3
 432 1059 432 1059 479.5 1059 c 128,-1,4
 527 1059 527 1059 564.5 1023.5 c 128,-1,5
 602 988 602 988 602 942 c 128,-1,6
 602 896 602 896 569 856.5 c 128,-1,7
 536 817 536 817 489 817 c 128,-1,0
 442 817 442 817 405.5 853.5 c 128,-1,1
405 280 m 128,-1,9
 369 316 369 316 369 362.5 c 128,-1,10
 369 409 369 409 400.5 447 c 128,-1,11
 432 485 432 485 479.5 485 c 128,-1,12
 527 485 527 485 564.5 450 c 128,-1,13
 602 415 602 415 602 369 c 128,-1,14
 602 323 602 323 569 283.5 c 128,-1,15
 536 244 536 244 488.5 244 c 128,-1,8
 441 244 441 244 405 280 c 128,-1,9
82 696 m 1,16,-1
 889 696 l 1,17,-1
 889 606 l 1,18,-1
 82 606 l 1,19,-1
 82 696 l 1,16,-1
EndSplineSet
EndChar

StartChar: oslash
Encoding: 248 248 186
Width: 1116
GlyphClass: 2
Flags: HW
AnchorPoint: "Anchor-1" 561 1055 basechar 0
LayerCount: 2
Fore
SplineSet
258 66 m 1,0,1
 63 200.840425532 63 200.840425532 63 467 c 0,2,3
 63 655.896551724 63 655.896551724 180 785 c 0,4,5
 304.15625 922 304.15625 922 553 922 c 0,6,7
 704 922 704 922 819 866 c 1,8,-1
 893 973 l 1,9,-1
 948 932 l 1,10,-1
 879 831 l 1,11,12
 1053 706 1053 706 1053 442 c 0,13,14
 1053 252.069565217 1053 252.069565217 937.5 120.5 c 0,15,16
 814.160305344 -20 814.160305344 -20 567 -20 c 0,17,18
 425 -20 425 -20 317 31 c 1,19,-1
 246 -72 l 1,20,-1
 190 -31 l 1,21,-1
 258 66 l 1,0,1
760 664 m 1,22,-1
 399 147 l 1,23,24
 461 41 461 41 594 41 c 0,25,26
 686 41 686 41 735 138 c 128,-1,27
 784 235 784 235 784 397 c 128,-1,28
 784 559 784 559 760 664 c 1,22,-1
731 741 m 1,29,30
 671 858 671 858 518 858 c 0,31,32
 459 858 459 858 416 808 c 0,33,34
 332 710.325581395 332 710.325581395 332 520.662790698 c 128,-1,35
 332 331 332 331 367 221 c 1,36,-1
 731 741 l 1,29,30
EndSplineSet
EndChar

StartChar: thorn
Encoding: 254 254 192
Width: 1060
GlyphClass: 2
Flags: HW
LayerCount: 2
Fore
SplineSet
373 -309 m 1,0,1
 389.772727273 -350 389.772727273 -350 502 -350 c 1,2,-1
 502 -393 l 1,3,-1
 -12 -393 l 1,4,-1
 -12 -350 l 1,5,6
 100.227272727 -350 100.227272727 -350 117 -309 c 1,7,-1
 117 1147 l 1,8,9
 7 1155 7 1155 -12 1155 c 1,10,-1
 -12 1202 l 1,11,12
 27 1202 27 1202 176.5 1246 c 128,-1,13
 326 1290 326 1290 373 1290 c 1,14,-1
 373 860 l 1,15,16
 467 922 467 922 572 922 c 128,-1,17
 677 922 677 922 757.5 888.5 c 128,-1,18
 838 855 838 855 890 801 c 0,19,20
 1001 685.730769231 1001 685.730769231 1001 547.365384615 c 128,-1,21
 1001 409 1001 409 955 303 c 128,-1,22
 909 197 909 197 824.5 128.5 c 0,23,24
 657.527247426 -6.85661007515 657.527247426 -6.85661007515 373 -23 c 1,25,-1
 373 -309 l 1,0,1
735 496 m 0,26,27
 735 852 735 852 563 852 c 0,28,29
 452 852 452 852 373 793 c 1,30,-1
 373 39 l 1,31,32
 546 57 546 57 640.5 164.5 c 128,-1,33
 735 272 735 272 735 496 c 0,26,27
EndSplineSet
EndChar

StartChar: Aogonek
Encoding: 260 260 198
Width: 1159
GlyphClass: 2
Flags: HW
LayerCount: 2
Fore
SplineSet
479 926 m 1,0,-1
 309 449 l 1,1,-1
 653 449 l 1,2,-1
 479 926 l 1,0,-1
1169 -340 m 0,3,4
 1203.66666667 -340 1203.66666667 -340 1233 -307 c 1,5,-1
 1255 -344 l 1,6,7
 1211 -410 1211 -410 1101.5 -410 c 128,-1,8
 992 -410 992 -410 935.5 -357 c 128,-1,9
 879 -304 879 -304 879 -198.5 c 128,-1,10
 879 -93 879 -93 977 0 c 1,11,-1
 674 0 l 1,12,-1
 674 43 l 1,13,14
 768 43 768 43 793 68 c 1,15,-1
 678 381 l 1,16,-1
 285 381 l 1,17,-1
 178 80 l 1,18,19
 198.35 43 198.35 43 305 43 c 1,20,-1
 305 0 l 1,21,-1
 -31 0 l 1,22,-1
 -31 43 l 1,23,24
 82.3636363636 43 82.3636363636 43 98 86 c 2,25,-1
 496 1198 l 1,26,-1
 662 1198 l 1,27,-1
 1063 86 l 2,28,29
 1078 43 1078 43 1194 43 c 1,30,-1
 1194 0 l 1,31,-1
 1053 0 l 1,32,33
 999 -63 999 -63 999 -148 c 128,-1,34
 999 -233 999 -233 1046 -286.5 c 128,-1,35
 1093 -340 1093 -340 1169 -340 c 0,3,4
EndSplineSet
EndChar

StartChar: aogonek
Encoding: 261 261 199
Width: 1030
GlyphClass: 2
Flags: HW
LayerCount: 2
Fore
SplineSet
649 106 m 1,0,1
 629 161 629 161 629 229 c 2,2,-1
 629 461 l 1,3,4
 493 420 493 420 450 400 c 0,5,6
 313 336 313 336 313 233.5 c 128,-1,7
 313 131 313 131 353 90 c 128,-1,8
 393 49 393 49 438.5 49 c 0,9,10
 535 49 535 49 649 106 c 1,0,1
1014 -338 m 0,11,12
 1051.33333333 -338 1051.33333333 -338 1077 -305 c 1,13,-1
 1100 -342 l 1,14,15
 1056 -408 1056 -408 946 -408 c 128,-1,16
 836 -408 836 -408 779.5 -355 c 128,-1,17
 723 -302 723 -302 723 -200 c 128,-1,18
 723 -98 723 -98 807 -14 c 1,19,20
 725 -4 725 -4 678 57 c 1,21,22
 558 -20 558 -20 393 -20 c 0,23,24
 51 -20 51 -20 51 229 c 0,25,26
 51 347.725 51 347.725 258 415 c 0,27,28
 347.038961039 443.937662338 347.038961039 443.937662338 418.019480519 458.968831169 c 0,29,30
 552.255813953 487.395348837 552.255813953 487.395348837 629 506 c 1,31,32
 629 741.078947368 629 741.078947368 585 795.5 c 0,33,34
 542.553191489 848 542.553191489 848 463.776595745 848 c 128,-1,35
 385 848 385 848 330.5 820.5 c 128,-1,36
 276 793 276 793 266 750 c 1,37,38
 313 750 313 750 313 666 c 0,39,40
 313 631 313 631 278.5 612.5 c 128,-1,41
 244 594 244 594 204 594 c 128,-1,42
 164 594 164 594 132 623 c 128,-1,43
 100 652 100 652 100 696 c 0,44,45
 100 801 100 801 204 861.5 c 128,-1,46
 308 922 308 922 487.5 922 c 128,-1,47
 667 922 667 922 776 824.5 c 128,-1,48
 885 727 885 727 885 578 c 2,49,-1
 885 172 l 2,50,51
 885 107 885 107 906.5 76 c 128,-1,52
 928 45 928 45 956.5 45 c 128,-1,53
 985 45 985 45 1006.5 59 c 128,-1,54
 1028 73 1028 73 1028 94 c 1,55,-1
 1065 94 l 1,56,57
 1065 -5 1065 -5 887 -14 c 1,58,59
 844 -76 844 -76 844 -153.5 c 128,-1,60
 844 -231 844 -231 891 -284.5 c 128,-1,61
 938 -338 938 -338 1014 -338 c 0,11,12
EndSplineSet
EndChar

StartChar: Dcroat
Encoding: 272 272 210
Width: 1255
GlyphClass: 2
Flags: HW
LayerCount: 2
Fore
SplineSet
203 1112 m 1,0,1
 186.227272727 1153 186.227272727 1153 74 1153 c 1,2,-1
 74 1196 l 1,3,-1
 545 1196 l 2,4,5
 727 1196 727 1196 871.5 1121 c 128,-1,6
 1016 1046 1016 1046 1098 909.5 c 128,-1,7
 1180 773 1180 773 1180 599.5 c 128,-1,8
 1180 426 1180 426 1098.5 287.5 c 128,-1,9
 1017 149 1017 149 878 73.5 c 128,-1,10
 739 -2 739 -2 569 -2 c 2,11,-1
 74 -2 l 1,12,-1
 74 41 l 1,13,14
 186.227272727 41 186.227272727 41 203 82 c 1,15,-1
 203 551 l 1,16,-1
 78 551 l 1,17,-1
 78 641 l 1,18,-1
 203 641 l 1,19,-1
 203 1112 l 1,0,1
463 551 m 1,20,-1
 463 68 l 1,21,-1
 569 68 l 2,22,23
 739.133333333 68 739.133333333 68 833 244 c 0,24,25
 903 375.25 903 375.25 903 598 c 0,26,27
 903 995.64 903 995.64 680.5 1106 c 0,28,29
 618 1137 618 1137 545 1137 c 2,30,-1
 463 1137 l 1,31,-1
 463 641 l 1,32,-1
 737 641 l 1,33,-1
 737 551 l 1,34,-1
 463 551 l 1,20,-1
EndSplineSet
EndChar

StartChar: dcroat
Encoding: 273 273 211
Width: 1181
GlyphClass: 2
Flags: HW
LayerCount: 2
Fore
SplineSet
768 815 m 1,0,1
 692 860 692 860 580 860 c 0,2,3
 493.56122449 860 493.56122449 860 415.5 758 c 0,4,5
 330 646.28 330 646.28 330 465.64 c 128,-1,6
 330 285 330 285 397.5 167 c 128,-1,7
 465 49 465 49 543 49 c 0,8,9
 683 49 683 49 768 115 c 1,10,-1
 768 815 l 1,0,1
1024 1004 m 1,11,-1
 1024 123 l 1,12,13
 1134 115 1134 115 1153 115 c 1,14,-1
 1153 68 l 1,15,16
 1114 68 1114 68 964.5 24 c 128,-1,17
 815 -20 815 -20 768 -20 c 1,18,-1
 768 47 l 1,19,20
 672 -20 672 -20 522 -20 c 0,21,22
 434.12195122 -20 434.12195122 -20 356.56097561 10 c 128,-1,23
 279 40 279 40 232 78 c 128,-1,24
 185 116 185 116 146.5 166 c 0,25,26
 63 274.441558442 63 274.441558442 63 455 c 0,27,28
 63 569 63 569 104 661.5 c 128,-1,29
 145 754 145 754 215.5 811.5 c 0,30,31
 360.791304348 930 360.791304348 930 567 930 c 0,32,33
 686 930 686 930 768 881 c 1,34,-1
 768 1004 l 1,35,-1
 514 1004 l 1,36,-1
 514 1075 l 1,37,-1
 768 1075 l 1,38,-1
 768 1147 l 1,39,40
 658 1155 658 1155 639 1155 c 1,41,-1
 639 1202 l 1,42,43
 678 1202 678 1202 827.5 1246 c 128,-1,44
 977 1290 977 1290 1024 1290 c 1,45,-1
 1024 1075 l 1,46,-1
 1104 1075 l 1,47,-1
 1104 1004 l 1,48,-1
 1024 1004 l 1,11,-1
EndSplineSet
EndChar

StartChar: Eogonek
Encoding: 280 280 218
Width: 1030
GlyphClass: 2
Flags: HW
LayerCount: 2
Fore
SplineSet
969 -340 m 0,0,1
 1002.66666667 -340 1002.66666667 -340 1032 -307 c 1,2,-1
 1055 -344 l 1,3,4
 1011 -410 1011 -410 901 -410 c 128,-1,5
 791 -410 791 -410 734.5 -357 c 128,-1,6
 678 -304 678 -304 678 -198.5 c 128,-1,7
 678 -93 678 -93 776 0 c 1,8,-1
 74 0 l 1,9,-1
 74 43 l 1,10,11
 186.227272727 43 186.227272727 43 203 84 c 1,12,-1
 203 1114 l 1,13,14
 186.227272727 1155 186.227272727 1155 74 1155 c 1,15,-1
 74 1198 l 1,16,-1
 920 1198 l 1,17,-1
 920 999 l 1,18,-1
 877 999 l 1,19,20
 877 1111.22727273 877 1111.22727273 836 1128 c 1,21,-1
 463 1128 l 1,22,-1
 463 657 l 1,23,-1
 698 657 l 1,24,25
 739 673.772727273 739 673.772727273 739 786 c 1,26,-1
 782 786 l 1,27,-1
 782 459 l 1,28,-1
 739 459 l 1,29,30
 739 571.227272727 739 571.227272727 698 588 c 1,31,-1
 463 588 l 1,32,-1
 463 70 l 1,33,-1
 879 70 l 1,34,35
 928 90 928 90 971 199 c 1,36,-1
 1012 199 l 1,37,-1
 963 0 l 1,38,-1
 852 0 l 1,39,40
 799 -62 799 -62 799 -147.5 c 128,-1,41
 799 -233 799 -233 846 -286.5 c 128,-1,42
 893 -340 893 -340 969 -340 c 0,0,1
EndSplineSet
EndChar

StartChar: eogonek
Encoding: 281 281 219
Width: 1030
GlyphClass: 2
Flags: HW
LayerCount: 2
Fore
SplineSet
334 557 m 1,0,-1
 707 557 l 1,1,2
 687.38410596 782.582781457 687.38410596 782.582781457 610.5 837.5 c 0,3,4
 579 860 579 860 535 860 c 0,5,6
 461 860 461 860 402.5 785.5 c 128,-1,7
 344 711 344 711 334 557 c 1,0,-1
776 -340 m 0,8,9
 810.666666667 -340 810.666666667 -340 840 -307 c 1,10,-1
 862 -344 l 1,11,12
 818 -410 818 -410 708 -410 c 128,-1,13
 598 -410 598 -410 541.5 -357 c 128,-1,14
 485 -304 485 -304 485 -205.5 c 128,-1,15
 485 -107 485 -107 563 -20 c 1,16,-1
 539 -20 l 2,17,18
 405.75 -20 405.75 -20 292 43 c 0,19,20
 153.065974343 119.948075748 153.065974343 119.948075748 97.5 284 c 0,21,22
 66 377 66 377 66 496 c 0,23,24
 66 673 66 673 192 797.5 c 128,-1,25
 318 922 318 922 518 922 c 0,26,27
 742.666666667 922 742.666666667 922 864 792 c 0,28,29
 979 668.785714286 979 668.785714286 979 494 c 1,30,-1
 334 494 l 1,31,32
 336 379 336 379 370.5 279.5 c 128,-1,33
 405 180 405 180 468.5 118.5 c 128,-1,34
 532 57 532 57 617 57 c 0,35,36
 786.72972973 57 786.72972973 57 897 193 c 1,37,-1
 946 168 l 1,38,39
 850.433281005 12.7040816327 850.433281005 12.7040816327 649 -12 c 1,40,41
 606 -74 606 -74 606 -153.5 c 128,-1,42
 606 -233 606 -233 653 -286.5 c 128,-1,43
 700 -340 700 -340 776 -340 c 0,8,9
EndSplineSet
EndChar

StartChar: Hbar
Encoding: 294 294 232
Width: 1378
GlyphClass: 2
Flags: HW
LayerCount: 2
Fore
SplineSet
74 43 m 1,0,1
 186.227272727 43 186.227272727 43 203 84 c 1,2,-1
 203 897 l 1,3,-1
 98 897 l 1,4,-1
 98 969 l 1,5,-1
 203 969 l 1,6,-1
 203 1114 l 1,7,8
 186.227272727 1155 186.227272727 1155 74 1155 c 1,9,-1
 74 1198 l 1,10,-1
 592 1198 l 1,11,-1
 592 1155 l 1,12,13
 479.772727273 1155 479.772727273 1155 463 1114 c 1,14,-1
 463 969 l 1,15,-1
 915 969 l 1,16,-1
 915 1114 l 1,17,18
 898.227272727 1155 898.227272727 1155 786 1155 c 1,19,-1
 786 1198 l 1,20,-1
 1305 1198 l 1,21,-1
 1305 1155 l 1,22,23
 1192.77272727 1155 1192.77272727 1155 1176 1114 c 1,24,-1
 1176 969 l 1,25,-1
 1290 969 l 1,26,-1
 1290 897 l 1,27,-1
 1176 897 l 1,28,-1
 1176 84 l 1,29,30
 1192.77272727 43 1192.77272727 43 1305 43 c 1,31,-1
 1305 0 l 1,32,-1
 786 0 l 1,33,-1
 786 43 l 1,34,35
 898.227272727 43 898.227272727 43 915 84 c 1,36,-1
 915 588 l 1,37,-1
 463 588 l 1,38,-1
 463 84 l 1,39,40
 479.772727273 43 479.772727273 43 592 43 c 1,41,-1
 592 0 l 1,42,-1
 74 0 l 1,43,-1
 74 43 l 1,0,1
915 897 m 1,44,-1
 463 897 l 1,45,-1
 463 657 l 1,46,-1
 915 657 l 1,47,-1
 915 897 l 1,44,-1
EndSplineSet
EndChar

StartChar: hbar
Encoding: 295 295 233
Width: 1220
GlyphClass: 2
Flags: HW
LayerCount: 2
Fore
SplineSet
29 43 m 1,0,1
 141.227272727 43 141.227272727 43 158 84 c 1,2,-1
 158 1004 l 1,3,-1
 55 1004 l 1,4,-1
 55 1075 l 1,5,-1
 158 1075 l 1,6,-1
 158 1147 l 1,7,8
 48 1155 48 1155 29 1155 c 1,9,-1
 29 1202 l 1,10,11
 68 1202 68 1202 217 1246 c 128,-1,12
 366 1290 366 1290 414 1290 c 1,13,-1
 414 1075 l 1,14,-1
 645 1075 l 1,15,-1
 645 1004 l 1,16,-1
 414 1004 l 1,17,-1
 414 842 l 1,18,19
 537 922 537 922 657 922 c 0,20,21
 860 922 860 922 964.5 856 c 128,-1,22
 1069 790 1069 790 1069 639 c 2,23,-1
 1069 84 l 1,24,25
 1085.77272727 43 1085.77272727 43 1198 43 c 1,26,-1
 1198 0 l 1,27,-1
 684 0 l 1,28,-1
 684 43 l 1,29,30
 796.227272727 43 796.227272727 43 813 84 c 1,31,-1
 813 590 l 2,32,33
 813 732 813 732 771 792 c 128,-1,34
 729 852 729 852 645 852 c 0,35,36
 522 852 522 852 414 778 c 1,37,-1
 414 84 l 1,38,39
 430.772727273 43 430.772727273 43 543 43 c 1,40,-1
 543 0 l 1,41,-1
 29 0 l 1,42,-1
 29 43 l 1,0,1
EndSplineSet
EndChar

StartChar: Iogonek
Encoding: 302 302 240
Width: 665
GlyphClass: 2
Flags: HW
LayerCount: 2
Fore
SplineSet
598 -340 m 0,0,1
 632.666666667 -340 632.666666667 -340 662 -307 c 1,2,-1
 684 -344 l 1,3,4
 640 -410 640 -410 530 -410 c 128,-1,5
 420 -410 420 -410 363.5 -357 c 128,-1,6
 307 -304 307 -304 307 -199 c 128,-1,7
 307 -94 307 -94 406 0 c 1,8,-1
 74 0 l 1,9,-1
 74 43 l 1,10,11
 186.227272727 43 186.227272727 43 203 84 c 1,12,-1
 203 1114 l 1,13,14
 186.227272727 1155 186.227272727 1155 74 1155 c 1,15,-1
 74 1198 l 1,16,-1
 592 1198 l 1,17,-1
 592 1155 l 1,18,19
 479.772727273 1155 479.772727273 1155 463 1114 c 1,20,-1
 463 84 l 1,21,22
 479.772727273 43 479.772727273 43 592 43 c 1,23,-1
 592 0 l 1,24,-1
 481 0 l 1,25,26
 428 -62 428 -62 428 -147.5 c 128,-1,27
 428 -233 428 -233 475 -286.5 c 128,-1,28
 522 -340 522 -340 598 -340 c 0,0,1
EndSplineSet
EndChar

StartChar: iogonek
Encoding: 303 303 241
Width: 591
GlyphClass: 2
Flags: HW
LayerCount: 2
Fore
SplineSet
398 1088.5 m 128,-1,1
 352 1053 352 1053 301.5 1053 c 128,-1,2
 251 1053 251 1053 201.5 1088.5 c 128,-1,3
 152 1124 152 1124 152 1170.5 c 128,-1,4
 152 1217 152 1217 198 1253.5 c 128,-1,5
 244 1290 244 1290 294 1290 c 128,-1,6
 344 1290 344 1290 394 1253.5 c 128,-1,7
 444 1217 444 1217 444 1170.5 c 128,-1,0
 444 1124 444 1124 398 1088.5 c 128,-1,1
567 -340 m 0,8,9
 601.666666667 -340 601.666666667 -340 631 -307 c 1,10,-1
 653 -344 l 1,11,12
 609 -410 609 -410 499.5 -410 c 128,-1,13
 390 -410 390 -410 333 -357 c 128,-1,14
 276 -304 276 -304 276 -199 c 128,-1,15
 276 -94 276 -94 375 0 c 1,16,-1
 49 0 l 1,17,-1
 49 43 l 1,18,19
 161.227272727 43 161.227272727 43 178 84 c 1,20,-1
 178 778 l 1,21,22
 72 786 72 786 49 786 c 1,23,-1
 49 834 l 1,24,25
 88 834 88 834 237 878 c 128,-1,26
 386 922 386 922 434 922 c 1,27,-1
 434 84 l 1,28,29
 450.772727273 43 450.772727273 43 563 43 c 1,30,-1
 563 0 l 1,31,-1
 451 0 l 1,32,33
 397 -63 397 -63 397 -148 c 128,-1,34
 397 -233 397 -233 444 -286.5 c 128,-1,35
 491 -340 491 -340 567 -340 c 0,8,9
EndSplineSet
EndChar

StartChar: dotlessi
Encoding: 305 305 243
Width: 591
GlyphClass: 2
Flags: HW
LayerCount: 2
Fore
SplineSet
434 84 m 1,0,1
 450.772727273 43 450.772727273 43 563 43 c 1,2,-1
 563 0 l 1,3,-1
 49 0 l 1,4,-1
 49 43 l 1,5,6
 161.227272727 43 161.227272727 43 178 84 c 1,7,-1
 178 778 l 1,8,9
 72 786 72 786 49 786 c 1,10,-1
 49 834 l 1,11,12
 88 834 88 834 237 878 c 128,-1,13
 386 922 386 922 434 922 c 1,14,-1
 434 84 l 1,0,1
EndSplineSet
EndChar

StartChar: Lslash
Encoding: 321 321 258
Width: 1019
GlyphClass: 2
Flags: HW
LayerCount: 2
Fore
SplineSet
592 1155 m 1,0,1
 479.772727273 1155 479.772727273 1155 463 1114 c 1,2,-1
 463 856 l 1,3,-1
 541 920 l 1,4,-1
 586 866 l 1,5,-1
 463 766 l 1,6,-1
 463 70 l 1,7,-1
 889 70 l 1,8,9
 938 90 938 90 981 199 c 1,10,-1
 1022 199 l 1,11,-1
 973 0 l 1,12,-1
 74 0 l 1,13,-1
 74 43 l 1,14,15
 186.227272727 43 186.227272727 43 203 84 c 1,16,-1
 203 553 l 1,17,-1
 111 477 l 1,18,-1
 66 530 l 1,19,-1
 203 643 l 1,20,-1
 203 1114 l 1,21,22
 186.227272727 1155 186.227272727 1155 74 1155 c 1,23,-1
 74 1198 l 1,24,-1
 592 1198 l 1,25,-1
 592 1155 l 1,0,1
EndSplineSet
EndChar

StartChar: lslash
Encoding: 322 322 259
Width: 573
GlyphClass: 2
Flags: HW
LayerCount: 2
Fore
SplineSet
414 84 m 1,0,1
 430.772727273 43 430.772727273 43 543 43 c 1,2,-1
 543 0 l 1,3,-1
 29 0 l 1,4,-1
 29 43 l 1,5,6
 141.227272727 43 141.227272727 43 158 84 c 1,7,-1
 158 545 l 1,8,-1
 76 477 l 1,9,-1
 31 530 l 1,10,-1
 158 635 l 1,11,-1
 158 1147 l 1,12,13
 48 1155 48 1155 29 1155 c 1,14,-1
 29 1202 l 1,15,16
 68 1202 68 1202 217 1246 c 128,-1,17
 366 1290 366 1290 414 1290 c 1,18,-1
 414 844 l 1,19,-1
 506 920 l 1,20,-1
 551 866 l 1,21,-1
 414 754 l 1,22,-1
 414 84 l 1,0,1
EndSplineSet
EndChar

StartChar: Eng
Encoding: 330 330 267
Width: 1380
GlyphClass: 2
Flags: HW
LayerCount: 2
Fore
SplineSet
463 84 m 1,0,1
 479.772727273 43 479.772727273 43 592 43 c 1,2,-1
 592 0 l 1,3,-1
 74 0 l 1,4,-1
 74 43 l 1,5,6
 186.227272727 43 186.227272727 43 203 84 c 1,7,-1
 203 1114 l 1,8,9
 186.227272727 1155 186.227272727 1155 74 1155 c 1,10,-1
 74 1198 l 1,11,-1
 463 1198 l 1,12,-1
 463 1038 l 1,13,14
 523 1124 523 1124 601 1171.5 c 128,-1,15
 679 1219 679 1219 772.5 1219 c 128,-1,16
 866 1219 866 1219 960.5 1182 c 128,-1,17
 1055 1145 1055 1145 1131 1075 c 128,-1,18
 1207 1005 1207 1005 1252.5 891 c 128,-1,19
 1298 777 1298 777 1298 635 c 0,20,21
 1298 321 1298 321 1183.5 150.5 c 128,-1,22
 1069 -20 1069 -20 897 -20 c 0,23,24
 755.106060606 -20 755.106060606 -20 671.5 42 c 0,25,26
 627 75 627 75 627 111 c 128,-1,27
 627 147 627 147 653.5 170 c 128,-1,28
 680 193 680 193 710.5 193 c 128,-1,29
 741 193 741 193 761.5 171 c 128,-1,30
 782 149 782 149 799.5 115.5 c 128,-1,31
 817 82 817 82 821 74.5 c 128,-1,32
 825 67 825 67 833.5 57 c 0,33,34
 847.1 41 847.1 41 877 41 c 0,35,36
 968 41 968 41 1003 166 c 128,-1,37
 1038 291 1038 291 1038 523 c 128,-1,38
 1038 755 1038 755 1008 880 c 128,-1,39
 978 1005 978 1005 910.5 1077 c 128,-1,40
 843 1149 843 1149 751.5 1149 c 128,-1,41
 660 1149 660 1149 586 1081.5 c 128,-1,42
 512 1014 512 1014 463 905 c 1,43,-1
 463 84 l 1,0,1
EndSplineSet
EndChar

StartChar: eng
Encoding: 331 331 268
Width: 1183
GlyphClass: 2
Flags: HW
LayerCount: 2
Fore
SplineSet
434 84 m 1,0,1
 450.772727273 43 450.772727273 43 563 43 c 1,2,-1
 563 0 l 1,3,-1
 49 0 l 1,4,-1
 49 43 l 1,5,6
 161.227272727 43 161.227272727 43 178 84 c 1,7,-1
 178 778 l 1,8,9
 68 786 68 786 49 786 c 1,10,-1
 49 834 l 1,11,12
 88 834 88 834 237 878 c 128,-1,13
 386 922 386 922 434 922 c 1,14,-1
 434 836 l 1,15,16
 536 922 536 922 659 922 c 0,17,18
 857 922 857 922 965 849 c 128,-1,19
 1073 776 1073 776 1073 631 c 2,20,-1
 1073 -90 l 2,21,22
 1073 -328.949494949 1073 -328.949494949 886.5 -393 c 0,23,24
 837 -410 837 -410 782 -410 c 0,25,26
 477 -410 477 -410 477 -270 c 0,27,28
 477 -242 477 -242 503 -219.5 c 128,-1,29
 529 -197 529 -197 560 -197 c 128,-1,30
 591 -197 591 -197 611.5 -218.5 c 128,-1,31
 632 -240 632 -240 657 -287 c 1,32,33
 687 -348 687 -348 743 -348 c 0,34,35
 817 -348 817 -348 817 -119 c 2,36,-1
 817 645 l 2,37,38
 817 736 817 736 775 794 c 128,-1,39
 733 852 733 852 647 852 c 0,40,41
 520 852 520 852 434 770 c 1,42,-1
 434 84 l 1,0,1
EndSplineSet
EndChar

StartChar: OE
Encoding: 338 338 275
Width: 1638
GlyphClass: 2
Flags: HW
LayerCount: 2
Fore
SplineSet
357 761.5 m 128,-1,1
 348 691 348 691 348 612.5 c 128,-1,2
 348 534 348 534 358.5 458 c 128,-1,3
 369 382 369 382 394.5 306.5 c 128,-1,4
 420 231 420 231 457.5 175 c 128,-1,5
 495 119 495 119 554.5 84 c 128,-1,6
 614 49 614 49 695 49 c 128,-1,7
 776 49 776 49 842 96 c 1,8,-1
 842 1087 l 1,9,10
 770 1149 770 1149 684 1149 c 128,-1,11
 598 1149 598 1149 540 1115.5 c 128,-1,12
 482 1082 482 1082 447 1029.5 c 128,-1,13
 412 977 412 977 389 904.5 c 128,-1,0
 366 832 366 832 357 761.5 c 128,-1,1
1348 459 m 1,14,15
 1348 571.227272727 1348 571.227272727 1307 588 c 1,16,-1
 1102 588 l 1,17,-1
 1102 70 l 1,18,-1
 1487 70 l 1,19,20
 1536 90 1536 90 1579 199 c 1,21,-1
 1620 199 l 1,22,-1
 1571 0 l 1,23,-1
 834 0 l 1,24,25
 764 -20 764 -20 680 -20 c 0,26,27
 513 -20 513 -20 372.5 64.5 c 128,-1,28
 232 149 232 149 152 291 c 128,-1,29
 72 433 72 433 72 577 c 128,-1,30
 72 721 72 721 120 835.5 c 128,-1,31
 168 950 168 950 249 1034 c 128,-1,32
 330 1118 330 1118 443 1168.5 c 128,-1,33
 556 1219 556 1219 658 1219 c 128,-1,34
 760 1219 760 1219 834 1198 c 1,35,-1
 1528 1198 l 1,36,-1
 1528 999 l 1,37,-1
 1485 999 l 1,38,39
 1485 1111.22727273 1485 1111.22727273 1444 1128 c 1,40,-1
 1102 1128 l 1,41,-1
 1102 657 l 1,42,-1
 1307 657 l 1,43,44
 1348 673.772727273 1348 673.772727273 1348 786 c 1,45,-1
 1391 786 l 1,46,-1
 1391 459 l 1,47,-1
 1348 459 l 1,14,15
EndSplineSet
EndChar

StartChar: oe
Encoding: 339 339 276
Width: 1748
GlyphClass: 2
Flags: HW
LayerCount: 2
Fore
SplineSet
924 109 m 1,0,1
 792 -20 792 -20 563.5 -20 c 128,-1,2
 335 -20 335 -20 199 114.5 c 128,-1,3
 63 249 63 249 63 467 c 0,4,5
 63 655.896551724 63 655.896551724 180 785 c 0,6,7
 304.15625 922 304.15625 922 544.578125 922 c 128,-1,8
 785 922 785 922 915 801 c 1,9,10
 1043 922 1043 922 1239 922 c 0,11,12
 1463.66666667 922 1463.66666667 922 1585 792 c 0,13,14
 1700 668.785714286 1700 668.785714286 1700 494 c 1,15,-1
 1053 494 l 1,16,17
 1055 379 1055 379 1089.5 279.5 c 128,-1,18
 1124 180 1124 180 1187.5 118.5 c 128,-1,19
 1251 57 1251 57 1336 57 c 0,20,21
 1505.72972973 57 1505.72972973 57 1616 193 c 1,22,-1
 1665 168 l 1,23,24
 1605 71 1605 71 1510.5 25.5 c 128,-1,25
 1416 -20 1416 -20 1294 -20 c 0,26,27
 1054.92537313 -20 1054.92537313 -20 924 109 c 1,0,1
594 41 m 0,28,29
 686 41 686 41 735 138 c 128,-1,30
 784 235 784 235 784 395 c 0,31,32
 784 646 784 646 726 752 c 128,-1,33
 668 858 668 858 518 858 c 0,34,35
 459 858 459 858 416 808 c 0,36,37
 332 710.325581395 332 710.325581395 332 487.662790698 c 0,38,39
 332 41 332 41 594 41 c 0,28,29
1055 557 m 1,40,-1
 1427 557 l 1,41,42
 1407.38410596 782.582781457 1407.38410596 782.582781457 1330.5 837.5 c 0,43,44
 1299 860 1299 860 1255 860 c 0,45,46
 1181 860 1181 860 1123 785.5 c 128,-1,47
 1065 711 1065 711 1055 557 c 1,40,-1
EndSplineSet
EndChar

StartChar: Scedilla
Encoding: 350 350 287
Width: 962
GlyphClass: 2
Flags: HW
LayerCount: 2
Fore
SplineSet
700 1159 m 0,0,1
 725 1159 725 1159 725 1200 c 1,2,-1
 772 1200 l 1,3,-1
 793 891 l 1,4,-1
 748 891 l 1,5,6
 736 976 736 976 637.5 1063.5 c 128,-1,7
 539 1151 539 1151 465 1151 c 128,-1,8
 391 1151 391 1151 346.5 1119 c 0,9,10
 268 1062.5505618 268 1062.5505618 268 969 c 0,11,12
 268 895.016949153 268 895.016949153 448.5 791 c 0,13,14
 646.005444646 677.183303085 646.005444646 677.183303085 704.502722323 632.091651543 c 128,-1,15
 763 587 763 587 808.5 538.5 c 0,16,17
 901 439.901098901 901 439.901098901 901 305 c 0,18,19
 901 157.057142857 901 157.057142857 786.5 72 c 0,20,21
 679 -7.85714285714 679 -7.85714285714 537 -18 c 1,22,-1
 512 -111 l 1,23,24
 572.4 -111 572.4 -111 625.2 -133 c 0,25,26
 727 -175.416666667 727 -175.416666667 727 -242.708333333 c 128,-1,27
 727 -310 727 -310 667.5 -358 c 128,-1,28
 608 -406 608 -406 481 -406 c 0,29,30
 418 -406 418 -406 330 -391 c 1,31,-1
 330 -356 l 1,32,33
 366 -360 366 -360 381 -360 c 0,34,35
 459 -360 459 -360 488.5 -331.5 c 128,-1,36
 518 -303 518 -303 518 -264 c 0,37,38
 518 -174 518 -174 393 -174 c 1,39,-1
 438 -16 l 1,40,41
 361 -9 361 -9 277.5 17 c 128,-1,42
 194 43 194 43 182.5 43 c 128,-1,43
 171 43 171 43 155 31 c 128,-1,44
 139 19 139 19 139 2 c 1,45,-1
 92 2 l 1,46,-1
 92 326 l 1,47,-1
 137 326 l 1,48,49
 149 263 149 263 189 209 c 128,-1,50
 229 155 229 155 280.5 122 c 0,51,52
 391.303030303 51 391.303030303 51 489.151515152 51 c 128,-1,53
 587 51 587 51 650 105 c 128,-1,54
 713 159 713 159 713 248 c 0,55,56
 713 308.941176471 713 308.941176471 632.5 370.5 c 0,57,58
 567.333333333 420.333333333 567.333333333 420.333333333 482.666666667 469.666666667 c 128,-1,59
 398 519 398 519 357 544.5 c 128,-1,60
 316 570 316 570 272 604.5 c 128,-1,61
 228 639 228 639 185 685.5 c 0,62,63
 94 783.906976744 94 783.906976744 94 903 c 0,64,65
 94 982 94 982 145 1056 c 128,-1,66
 196 1130 196 1130 279.5 1175.5 c 128,-1,67
 363 1221 363 1221 438 1221 c 128,-1,68
 513 1221 513 1221 601 1190 c 128,-1,69
 689 1159 689 1159 700 1159 c 0,0,1
EndSplineSet
EndChar

StartChar: scedilla
Encoding: 351 351 288
Width: 817
GlyphClass: 2
Flags: HW
LayerCount: 2
Fore
SplineSet
172 41 m 0,0,1
 147 41 147 41 147 0 c 1,2,-1
 98 0 l 1,3,-1
 78 313 l 1,4,-1
 123 313 l 1,5,6
 137 260 137 260 191 200 c 128,-1,7
 245 140 245 140 310.5 100.5 c 128,-1,8
 376 61 376 61 422 61 c 1,9,-1
 424 59 l 1,10,11
 563 59 563 59 563 186 c 0,12,13
 563 233.142857143 563 233.142857143 469 283.5 c 0,14,15
 427 306 427 306 376.5 331 c 128,-1,16
 326 356 326 356 275 388.5 c 128,-1,17
 224 421 224 421 182 459.5 c 0,18,19
 88 545.666666667 88 545.666666667 88 666.333333333 c 128,-1,20
 88 787 88 787 175 853.5 c 128,-1,21
 262 920 262 920 383 920 c 0,22,23
 466 920 466 920 563.5 873.5 c 0,24,25
 596 858 596 858 610 858 c 0,26,27
 635 858 635 858 635 899 c 1,28,-1
 682 899 l 1,29,-1
 702 600 l 1,30,-1
 657 600 l 1,31,32
 636 686 636 686 551 768 c 128,-1,33
 466 850 466 850 394.5 850 c 0,34,35
 244 850 244 850 244 743 c 0,36,37
 244 700.488888889 244 700.488888889 345 645.5 c 0,38,39
 390 621 390 621 444 593.5 c 128,-1,40
 498 566 498 566 552 531.5 c 128,-1,41
 606 497 606 497 651 458 c 0,42,43
 752 370.466666667 752 370.466666667 752 247.733333333 c 128,-1,44
 752 125 752 125 656 51 c 128,-1,45
 560 -23 560 -23 408 -23 c 2,46,-1
 401 -23 l 1,47,-1
 377 -115 l 1,48,49
 437.4 -115 437.4 -115 490.2 -137 c 0,50,51
 592 -179.416666667 592 -179.416666667 592 -246.708333333 c 128,-1,52
 592 -314 592 -314 532.5 -362 c 128,-1,53
 473 -410 473 -410 346 -410 c 0,54,55
 284 -410 284 -410 195 -395 c 1,56,-1
 195 -360 l 1,57,58
 240 -365 240 -365 246 -365 c 0,59,60
 324 -365 324 -365 353.5 -336 c 128,-1,61
 383 -307 383 -307 383 -268 c 0,62,63
 383 -178 383 -178 258 -178 c 1,64,-1
 307 -8 l 1,65,66
 274 1 274 1 230 21 c 128,-1,67
 186 41 186 41 172 41 c 0,0,1
EndSplineSet
EndChar

StartChar: Tcommaaccent
Encoding: 354 354 291
Width: 1112
GlyphClass: 2
Flags: HW
LayerCount: 2
Fore
SplineSet
297 43 m 1,0,1
 409.227272727 43 409.227272727 43 426 84 c 1,2,-1
 426 1128 l 1,3,-1
 141 1128 l 1,4,5
 70 1099 70 1099 70 999 c 1,6,-1
 27 999 l 1,7,-1
 27 1198 l 1,8,-1
 1085 1198 l 1,9,-1
 1085 999 l 1,10,-1
 1042 999 l 1,11,12
 1042 1099 1042 1099 971 1128 c 1,13,-1
 686 1128 l 1,14,-1
 686 84 l 1,15,16
 702.772727273 43 702.772727273 43 815 43 c 1,17,-1
 815 0 l 1,18,-1
 610 0 l 1,19,-1
 580 -113 l 1,20,21
 640.4 -113 640.4 -113 693.2 -135 c 0,22,23
 795 -177.416666667 795 -177.416666667 795 -244.708333333 c 128,-1,24
 795 -312 795 -312 735.5 -360 c 128,-1,25
 676 -408 676 -408 549 -408 c 0,26,27
 486 -408 486 -408 397 -393 c 1,28,-1
 397 -358 l 1,29,30
 433 -362 433 -362 449 -362 c 0,31,32
 527 -362 527 -362 556.5 -333.5 c 128,-1,33
 586 -305 586 -305 586 -266 c 0,34,35
 586 -176 586 -176 461 -176 c 1,36,-1
 512 0 l 1,37,-1
 297 0 l 1,38,-1
 297 43 l 1,0,1
EndSplineSet
EndChar

StartChar: tcommaaccent
Encoding: 355 355 292
Width: 729
GlyphClass: 2
Flags: HW
LayerCount: 2
Fore
SplineSet
428 1198 m 1,0,-1
 430 901 l 1,1,-1
 606 901 l 1,2,-1
 606 840 l 1,3,-1
 430 840 l 1,4,-1
 430 188 l 2,5,6
 430 124 430 124 453 90.5 c 128,-1,7
 476 57 476 57 524.5 57 c 128,-1,8
 573 57 573 57 611.5 93.5 c 128,-1,9
 650 130 650 130 664 193 c 1,10,-1
 713 168 l 1,11,12
 669 -14 669 -14 479 -20 c 1,13,-1
 455 -113 l 1,14,15
 515.4 -113 515.4 -113 568.2 -135 c 0,16,17
 670 -177.416666667 670 -177.416666667 670 -244.708333333 c 128,-1,18
 670 -312 670 -312 610.5 -360 c 128,-1,19
 551 -408 551 -408 424 -408 c 0,20,21
 360 -408 360 -408 272 -393 c 1,22,-1
 272 -358 l 1,23,24
 308 -362 308 -362 324 -362 c 0,25,26
 402 -362 402 -362 431.5 -333.5 c 128,-1,27
 461 -305 461 -305 461 -266 c 0,28,29
 461 -176 461 -176 336 -176 c 1,30,-1
 381 -14 l 1,31,32
 266 3 266 3 213 75 c 128,-1,33
 160 147 160 147 160 291 c 2,34,-1
 160 840 l 1,35,-1
 16 840 l 1,36,-1
 16 901 l 1,37,38
 137 901 137 901 227 992 c 128,-1,39
 317 1083 317 1083 317 1198 c 1,40,-1
 428 1198 l 1,0,-1
EndSplineSet
EndChar

StartChar: Tbar
Encoding: 358 358 295
Width: 1112
GlyphClass: 2
Flags: HW
LayerCount: 2
Fore
SplineSet
297 43 m 1,0,1
 409.227272727 43 409.227272727 43 426 84 c 1,2,-1
 426 612 l 1,3,-1
 270 612 l 1,4,-1
 270 682 l 1,5,-1
 426 682 l 1,6,-1
 426 1128 l 1,7,-1
 141 1128 l 1,8,9
 70 1099 70 1099 70 999 c 1,10,-1
 27 999 l 1,11,-1
 27 1198 l 1,12,-1
 1085 1198 l 1,13,-1
 1085 999 l 1,14,-1
 1042 999 l 1,15,16
 1042 1099 1042 1099 971 1128 c 1,17,-1
 686 1128 l 1,18,-1
 686 682 l 1,19,-1
 852 682 l 1,20,-1
 852 612 l 1,21,-1
 686 612 l 1,22,-1
 686 84 l 1,23,24
 702.772727273 43 702.772727273 43 815 43 c 1,25,-1
 815 0 l 1,26,-1
 297 0 l 1,27,-1
 297 43 l 1,0,1
EndSplineSet
EndChar

StartChar: tbar
Encoding: 359 359 296
Width: 727
GlyphClass: 2
Flags: HW
LayerCount: 2
Fore
SplineSet
428 1198 m 1,0,-1
 428 897 l 1,1,-1
 604 897 l 1,2,-1
 604 836 l 1,3,-1
 428 836 l 1,4,-1
 428 621 l 1,5,-1
 618 621 l 1,6,-1
 618 551 l 1,7,-1
 428 551 l 1,8,-1
 428 186 l 2,9,10
 428 122 428 122 451 88.5 c 128,-1,11
 474 55 474 55 522.5 55 c 0,12,13
 571 55 571 55 609.5 91 c 128,-1,14
 648 127 648 127 662 190 c 1,15,-1
 711 166 l 1,16,17
 666 -23 666 -23 465 -23 c 0,18,19
 306 -23 306 -23 233 49.5 c 128,-1,20
 160 122 160 122 160 289 c 2,21,-1
 160 553 l 1,22,-1
 37 553 l 1,23,-1
 37 623 l 1,24,-1
 160 623 l 1,25,-1
 160 840 l 1,26,-1
 16 840 l 1,27,-1
 16 901 l 1,28,29
 137 901 137 901 227 992 c 128,-1,30
 317 1083 317 1083 317 1198 c 1,31,-1
 428 1198 l 1,0,-1
EndSplineSet
EndChar

StartChar: Uogonek
Encoding: 370 370 307
Width: 1241
GlyphClass: 2
Flags: HW
AnchorPoint: "Anchor-1" 719 1270 basechar 0
LayerCount: 2
Fore
SplineSet
557 1155 m 1,0,1
 444.772727273 1155 444.772727273 1155 428 1114 c 1,2,-1
 428 479 l 2,3,4
 428 269 428 269 500 159 c 128,-1,5
 572 49 572 49 711 49 c 1,6,-1
 711 51 l 1,7,8
 845 51 845 51 924.5 163.5 c 128,-1,9
 1004 276 1004 276 1004 469 c 2,10,-1
 1004 1116 l 1,11,12
 987.227272727 1157 987.227272727 1157 874 1157 c 1,13,-1
 874 1200 l 1,14,-1
 1202 1200 l 1,15,-1
 1202 1157 l 1,16,17
 1089.77272727 1157 1089.77272727 1157 1073 1116 c 1,18,-1
 1073 510 l 2,19,20
 1073 130.817518248 1073 130.817518248 831.5 18 c 0,21,22
 763 -14 763 -14 682 -18 c 1,23,24
 643 -81 643 -81 643 -156 c 128,-1,25
 643 -231 643 -231 690 -284.5 c 128,-1,26
 737 -338 737 -338 813 -338 c 0,27,28
 847.666666667 -338 847.666666667 -338 877 -305 c 1,29,-1
 899 -342 l 1,30,31
 855 -408 855 -408 745 -408 c 128,-1,32
 635 -408 635 -408 578.5 -355 c 128,-1,33
 522 -302 522 -302 522 -201 c 128,-1,34
 522 -100 522 -100 602 -16 c 1,35,36
 168 12 168 12 168 508 c 2,37,-1
 168 1114 l 1,38,39
 151.227272727 1155 151.227272727 1155 39 1155 c 1,40,-1
 39 1198 l 1,41,-1
 557 1198 l 1,42,-1
 557 1155 l 1,0,1
EndSplineSet
EndChar

StartChar: uogonek
Encoding: 371 371 308
Width: 1169
GlyphClass: 2
Flags: HW
AnchorPoint: "Anchor-1" 575 1055 basechar 0
LayerCount: 2
Fore
SplineSet
754 817 m 1,0,1
 737.227272727 858 737.227272727 858 625 858 c 1,2,-1
 625 901 l 1,3,-1
 1010 901 l 1,4,-1
 1010 125 l 1,5,6
 1120 117 1120 117 1139 117 c 1,7,-1
 1139 70 l 1,8,9
 1099.6097561 70 1099.6097561 70 981.804878049 35.5 c 128,-1,10
 864 1 864 1 825 -8 c 1,11,12
 780 -73 780 -73 780 -152 c 128,-1,13
 780 -231 780 -231 827 -284.5 c 128,-1,14
 874 -338 874 -338 950 -338 c 0,15,16
 984.666666667 -338 984.666666667 -338 1014 -305 c 1,17,-1
 1036 -342 l 1,18,19
 992 -408 992 -408 882 -408 c 128,-1,20
 772 -408 772 -408 715.5 -355 c 128,-1,21
 659 -302 659 -302 659 -198 c 128,-1,22
 659 -94 659 -94 754 -4 c 1,23,-1
 754 39 l 1,24,25
 652 -20 652 -20 545 -20 c 0,26,27
 150 -20 150 -20 150 270 c 2,28,-1
 150 817 l 1,29,30
 133.227272727 858 133.227272727 858 20 858 c 1,31,-1
 20 901 l 1,32,-1
 406 901 l 1,33,-1
 406 256 l 2,34,35
 406 123.612903226 406 123.612903226 440.5 88 c 0,36,37
 478.28125 49 478.28125 49 569.140625 49 c 128,-1,38
 660 49 660 49 754 104 c 1,39,-1
 754 817 l 1,0,1
EndSplineSet
EndChar

StartChar: longs
Encoding: 383 383 320
Width: 571
GlyphClass: 2
Flags: HW
LayerCount: 2
Fore
SplineSet
414 84 m 1,0,1
 430.772727273 43 430.772727273 43 543 43 c 1,2,-1
 543 0 l 1,3,-1
 29 0 l 1,4,-1
 29 43 l 1,5,6
 141.227272727 43 141.227272727 43 158 84 c 1,7,-1
 158 776 l 2,8,9
 158 1226.66666667 158 1226.66666667 350 1280 c 0,10,11
 386 1290 386 1290 432 1290 c 0,12,13
 698 1290 698 1290 698 1112 c 0,14,15
 698 1075 698 1075 671 1052.5 c 128,-1,16
 644 1030 644 1030 611 1030 c 128,-1,17
 578 1030 578 1030 554 1052.5 c 128,-1,18
 530 1075 530 1075 530 1106.5 c 128,-1,19
 530 1138 530 1138 551 1159 c 1,20,21
 551 1193 551 1193 528 1211 c 128,-1,22
 505 1229 505 1229 478 1229 c 128,-1,23
 451 1229 451 1229 439.5 1212 c 0,24,25
 414 1174.30434783 414 1174.30434783 414 958 c 2,26,-1
 414 84 l 1,0,1
EndSplineSet
EndChar

StartChar: uni0180
Encoding: 384 384 321
Width: 1132
GlyphClass: 2
Flags: HW
LayerCount: 2
Fore
SplineSet
373 807 m 1,0,-1
 373 86 l 1,1,2
 445 49 445 49 550.5 49 c 128,-1,3
 656 49 656 49 730.5 155.5 c 128,-1,4
 805 262 805 262 805 451 c 128,-1,5
 805 640 805 640 746.5 750 c 128,-1,6
 688 860 688 860 571.5 860 c 128,-1,7
 455 860 455 860 373 807 c 1,0,-1
117 1147 m 1,8,9
 7 1155 7 1155 -12 1155 c 1,10,-1
 -12 1202 l 1,11,12
 27 1202 27 1202 176.5 1246 c 128,-1,13
 326 1290 326 1290 373 1290 c 1,14,-1
 373 1079 l 1,15,-1
 561 1079 l 1,16,-1
 561 1010 l 1,17,-1
 373 1010 l 1,18,-1
 373 872 l 1,19,20
 466 930 466 930 602 930 c 0,21,22
 720.637681159 930 720.637681159 930 835.5 869.5 c 0,23,24
 901 835 901 835 952 784 c 128,-1,25
 1003 733 1003 733 1037 647.5 c 128,-1,26
 1071 562 1071 562 1071 462.5 c 128,-1,27
 1071 363 1071 363 1043 285 c 128,-1,28
 1015 207 1015 207 966.5 151.5 c 128,-1,29
 918 96 918 96 853 57 c 0,30,31
 724.666666667 -20 724.666666667 -20 571.833333333 -20 c 128,-1,32
 419 -20 419 -20 330 45 c 1,33,34
 171 -20 171 -20 117 -20 c 1,35,-1
 117 1010 l 1,36,-1
 -20 1010 l 1,37,-1
 -20 1079 l 1,38,-1
 117 1079 l 1,39,-1
 117 1147 l 1,8,9
EndSplineSet
EndChar

StartChar: uni0181
Encoding: 385 385 322
Width: 1462
GlyphClass: 2
Flags: HW
LayerCount: 2
Fore
SplineSet
1315 915 m 0,0,1
 1315 699 1315 699 1081 627 c 1,2,3
 1233 591 1233 591 1319 512 c 128,-1,4
 1405 433 1405 433 1405 354 c 128,-1,5
 1405 275 1405 275 1375.5 212.5 c 128,-1,6
 1346 150 1346 150 1287.5 102 c 0,7,8
 1163.1875 0 1163.1875 0 913 0 c 2,9,-1
 309 0 l 1,10,-1
 309 43 l 1,11,12
 421.227272727 43 421.227272727 43 438 84 c 1,13,-1
 438 1128 l 1,14,15
 242 1128 242 1128 209 1090 c 1,16,17
 186 1067 186 1067 186 1025 c 128,-1,18
 186 983 186 983 221 964 c 128,-1,19
 256 945 256 945 256 900.5 c 128,-1,20
 256 856 256 856 228.5 829.5 c 128,-1,21
 201 803 201 803 160 803 c 0,22,23
 91 803 91 803 52.5 860 c 128,-1,24
 14 917 14 917 14 968.5 c 0,25,26
 14 1079.25 14 1079.25 82 1126 c 0,27,28
 125 1155 125 1155 152 1167 c 0,29,30
 221.75 1198 221.75 1198 438 1198 c 2,31,-1
 799 1198 l 2,32,33
 1102.77027027 1198 1102.77027027 1198 1238.5 1074 c 0,34,35
 1315 1004.11111111 1315 1004.11111111 1315 915 c 0,0,1
698 1128 m 1,36,-1
 698 653 l 1,37,-1
 793 653 l 2,38,39
 946.351351351 653 946.351351351 653 995 725 c 0,40,41
 1038 788.64 1038 788.64 1038 913 c 0,42,43
 1038 1128 1038 1128 727 1128 c 2,44,-1
 698 1128 l 1,36,-1
698 594 m 1,45,-1
 698 70 l 1,46,-1
 842 70 l 2,47,48
 1067.53125 70 1067.53125 70 1114.5 237 c 0,49,50
 1128 285 1128 285 1128 333.5 c 128,-1,51
 1128 382 1128 382 1120 414 c 128,-1,52
 1112 446 1112 446 1090 479.5 c 128,-1,53
 1068 513 1068 513 1034 537.5 c 0,54,55
 955.591836735 594 955.591836735 594 817 594 c 2,56,-1
 698 594 l 1,45,-1
EndSplineSet
EndChar

StartChar: uni0186
Encoding: 390 390 323
Width: 1161
GlyphClass: 2
Flags: HW
AnchorPoint: "Anchor-5" 981 598 basechar 0
AnchorPoint: "Anchor-4" 485 0 basechar 0
AnchorPoint: "Anchor-3" 530 0 basechar 0
AnchorPoint: "Anchor-2" 485 0 basechar 0
AnchorPoint: "Anchor-1" 514 1270 basechar 0
LayerCount: 2
Fore
SplineSet
477 41 m 0,0,1
 630 41 630 41 722.5 173.5 c 128,-1,2
 815 306 815 306 815 571 c 0,3,4
 815 721 815 721 784 836.5 c 128,-1,5
 753 952 753 952 702 1018 c 0,6,7
 600.772727273 1149 600.772727273 1149 467 1149 c 0,8,9
 375 1149 375 1149 283.5 1083 c 128,-1,10
 192 1017 192 1017 141 920 c 1,11,-1
 72 954 l 1,12,13
 122 1068 122 1068 227.5 1143.5 c 128,-1,14
 333 1219 333 1219 494 1219 c 0,15,16
 637.75 1219 637.75 1219 783 1142 c 0,17,18
 866 1098 866 1098 931.5 1033 c 128,-1,19
 997 968 997 968 1041 859.5 c 128,-1,20
 1085 751 1085 751 1085 624 c 128,-1,21
 1085 497 1085 497 1053 393 c 128,-1,22
 1021 289 1021 289 965.5 214.5 c 128,-1,23
 910 140 910 140 837 86.5 c 0,24,25
 691.682242991 -20 691.682242991 -20 514 -20 c 0,26,27
 403 -20 403 -20 314.5 6.5 c 128,-1,28
 226 33 226 33 175.5 74.5 c 0,29,30
 72 159.554455446 72 159.554455446 72 256 c 0,31,32
 72 389 72 389 170 389 c 0,33,34
 217 389 217 389 244.5 358.5 c 128,-1,35
 272 328 272 328 272 288.5 c 128,-1,36
 272 249 272 249 244 226 c 128,-1,37
 216 203 216 203 180 203 c 1,38,39
 207 143 207 143 288.5 92 c 128,-1,40
 370 41 370 41 477 41 c 0,0,1
EndSplineSet
EndChar

StartChar: uni0187
Encoding: 391 391 324
Width: 1325
GlyphClass: 2
Flags: HW
LayerCount: 2
Fore
SplineSet
717 1149 m 0,0,1
 546 1149 546 1149 452 1007 c 128,-1,2
 358 865 358 865 358 607 c 128,-1,3
 358 349 358 349 459 199 c 128,-1,4
 560 49 560 49 725 49 c 0,5,6
 825 49 825 49 908 117.5 c 128,-1,7
 991 186 991 186 1022 270 c 1,8,-1
 1106 246 l 1,9,10
 1063.49193548 142.766129032 1063.49193548 142.766129032 971.5 67.5 c 0,11,12
 864.555555556 -20 864.555555556 -20 684 -20 c 0,13,14
 356.342105263 -20 356.342105263 -20 179.5 236 c 0,15,16
 74 388.723809524 74 388.723809524 74 582 c 0,17,18
 74 726 74 726 128.5 848 c 128,-1,19
 183 970 183 970 273.5 1050 c 0,20,21
 464.68125 1219 464.68125 1219 715 1219 c 0,22,23
 775 1219 775 1219 872.5 1188 c 128,-1,24
 970 1157 970 1157 978.5 1157 c 128,-1,25
 987 1157 987 1157 989 1159 c 1,26,27
 1002 1263 1002 1263 1054 1330 c 128,-1,28
 1106 1397 1106 1397 1184 1397 c 128,-1,29
 1262 1397 1262 1397 1319 1358.5 c 128,-1,30
 1376 1320 1376 1320 1376 1251 c 0,31,32
 1376 1211 1376 1211 1351.5 1184 c 128,-1,33
 1327 1157 1327 1157 1297.5 1157 c 128,-1,34
 1268 1157 1268 1157 1251.5 1165.5 c 128,-1,35
 1235 1174 1235 1174 1228.5 1182.5 c 128,-1,36
 1222 1191 1222 1191 1209 1216 c 128,-1,37
 1196 1241 1196 1241 1154 1241 c 128,-1,38
 1112 1241 1112 1241 1090 1219 c 1,39,40
 1051 1185 1051 1185 1051 973 c 2,41,-1
 1051 909 l 1,42,-1
 1006 909 l 1,43,44
 994 993 994 993 899.5 1071 c 128,-1,45
 805 1149 805 1149 717 1149 c 0,0,1
EndSplineSet
EndChar

StartChar: uni0188
Encoding: 392 392 325
Width: 1173
GlyphClass: 2
Flags: HW
LayerCount: 2
Fore
SplineSet
791 705 m 1,0,1
 791 860 791 860 561 860 c 0,2,3
 464 860 464 860 397 762.5 c 128,-1,4
 330 665 330 665 330 525.5 c 128,-1,5
 330 386 330 386 361.5 285 c 128,-1,6
 393 184 393 184 455 120.5 c 128,-1,7
 517 57 517 57 601.5 57 c 128,-1,8
 686 57 686 57 747.5 91.5 c 128,-1,9
 809 126 809 126 856 205 c 1,10,-1
 932 168 l 1,11,12
 872 71 872 71 777.5 25.5 c 128,-1,13
 683 -20 683 -20 526 -20 c 0,14,15
 393.625 -20 393.625 -20 282.5 43 c 0,16,17
 63 167.440944882 63 167.440944882 63 496 c 0,18,19
 63 610 63 610 122.5 707 c 128,-1,20
 182 804 182 804 292.5 863 c 128,-1,21
 403 922 403 922 541 922 c 0,22,23
 742 922 742 922 842 842 c 1,24,25
 847 922 847 922 863.5 967.5 c 128,-1,26
 880 1013 880 1013 906.5 1052.5 c 128,-1,27
 933 1092 933 1092 975 1110 c 128,-1,28
 1017 1128 1017 1128 1069 1128 c 128,-1,29
 1121 1128 1121 1128 1178 1090 c 128,-1,30
 1235 1052 1235 1052 1235 983 c 0,31,32
 1235 943 1235 943 1210.5 916 c 128,-1,33
 1186 889 1186 889 1156.5 889 c 128,-1,34
 1127 889 1127 889 1110.5 897.5 c 128,-1,35
 1094 906 1094 906 1087.5 914.5 c 128,-1,36
 1081 923 1081 923 1068 948 c 128,-1,37
 1055 973 1055 973 1013 973 c 128,-1,38
 971 973 971 973 948 950 c 1,39,40
 909 916 909 916 909 705 c 1,41,-1
 791 705 l 1,0,1
EndSplineSet
EndChar

StartChar: uni018A
Encoding: 394 394 327
Width: 1490
GlyphClass: 2
Flags: HW
LayerCount: 2
Fore
SplineSet
309 41 m 1,0,1
 421.227272727 41 421.227272727 41 438 82 c 1,2,-1
 438 1128 l 1,3,4
 242 1128 242 1128 209 1090 c 1,5,6
 186 1067 186 1067 186 1025 c 128,-1,7
 186 983 186 983 221 964 c 128,-1,8
 256 945 256 945 256 900.5 c 128,-1,9
 256 856 256 856 228.5 829.5 c 128,-1,10
 201 803 201 803 160 803 c 0,11,12
 91 803 91 803 52.5 860 c 128,-1,13
 14 917 14 917 14 968.5 c 0,14,15
 14 1079.25 14 1079.25 82 1126 c 0,16,17
 125 1155 125 1155 152 1167 c 0,18,19
 221.75 1198 221.75 1198 438 1198 c 1,20,-1
 438 1196 l 1,21,-1
 780 1196 l 2,22,23
 962 1196 962 1196 1106.5 1121 c 128,-1,24
 1251 1046 1251 1046 1333 909.5 c 128,-1,25
 1415 773 1415 773 1415 599.5 c 128,-1,26
 1415 426 1415 426 1334 287.5 c 128,-1,27
 1253 149 1253 149 1114 73.5 c 128,-1,28
 975 -2 975 -2 805 -2 c 2,29,-1
 309 -2 l 1,30,-1
 309 41 l 1,0,1
698 1137 m 1,31,-1
 698 68 l 1,32,-1
 805 68 l 2,33,34
 975.133333333 68 975.133333333 68 1069 244 c 0,35,36
 1139 375.25 1139 375.25 1139 598 c 0,37,38
 1139 875.396039604 1139 875.396039604 1029.5 1012 c 0,39,40
 929.301587302 1137 929.301587302 1137 780 1137 c 2,41,-1
 698 1137 l 1,31,-1
EndSplineSet
EndChar

StartChar: uni018E
Encoding: 398 398 328
Width: 1030
GlyphClass: 2
Flags: HW
AnchorPoint: "Anchor-5" 696 336 basechar 0
AnchorPoint: "Anchor-4" 459 0 basechar 0
AnchorPoint: "Anchor-3" 825 0 basechar 0
AnchorPoint: "Anchor-2" 459 0 basechar 0
AnchorPoint: "Anchor-1" 463 1270 basechar 0
LayerCount: 2
Fore
SplineSet
827 84 m 1,0,1
 843.772727273 43 843.772727273 43 956 43 c 1,2,-1
 956 0 l 1,3,-1
 68 0 l 1,4,-1
 18 199 l 1,5,-1
 59 199 l 1,6,7
 101 91 101 91 152 70 c 1,8,-1
 567 70 l 1,9,-1
 567 588 l 1,10,-1
 332 588 l 1,11,12
 291 571.227272727 291 571.227272727 291 459 c 1,13,-1
 248 459 l 1,14,-1
 248 786 l 1,15,-1
 291 786 l 1,16,17
 291 673.772727273 291 673.772727273 332 657 c 1,18,-1
 567 657 l 1,19,-1
 567 1128 l 1,20,-1
 195 1128 l 1,21,22
 154 1111.22727273 154 1111.22727273 154 999 c 1,23,-1
 111 999 l 1,24,-1
 111 1198 l 1,25,-1
 956 1198 l 1,26,-1
 956 1155 l 1,27,28
 843.772727273 1155 843.772727273 1155 827 1114 c 1,29,-1
 827 84 l 1,0,1
EndSplineSet
EndChar

StartChar: uni018F
Encoding: 399 399 329
Width: 1243
GlyphClass: 2
Flags: HW
AnchorPoint: "Anchor-5" 592 311 basechar 0
AnchorPoint: "Anchor-4" 578 0 basechar 0
AnchorPoint: "Anchor-3" 631 0 basechar 0
AnchorPoint: "Anchor-2" 578 0 basechar 0
AnchorPoint: "Anchor-1" 559 1270 basechar 0
LayerCount: 2
Fore
SplineSet
881 504 m 1,0,-1
 332 504 l 1,1,2
 362 49 362 49 578 49 c 0,3,4
 737.097560976 49 737.097560976 49 807.5 174.5 c 0,5,6
 873.050500653 291.350892468 873.050500653 291.350892468 881 504 c 1,0,-1
883 573 m 1,7,8
 883 853 883 853 791 1001 c 128,-1,9
 699 1149 699 1149 537 1149 c 0,10,11
 435 1149 435 1149 334.5 1078.5 c 128,-1,12
 234 1008 234 1008 205 928 c 1,13,-1
 156 952 l 1,14,15
 198.239855726 1054.58250676 198.239855726 1054.58250676 290.5 1131 c 0,16,17
 396.743902439 1219 396.743902439 1219 556.37195122 1219 c 128,-1,18
 716 1219 716 1219 830 1168.5 c 128,-1,19
 944 1118 944 1118 1016.5 1033.5 c 0,20,21
 1167 858.089655172 1167 858.089655172 1167 616 c 0,22,23
 1167 471 1167 471 1120.5 350 c 128,-1,24
 1074 229 1074 229 994 148.5 c 0,25,26
 826.546583851 -20 826.546583851 -20 580 -20 c 0,27,28
 431 -20 431 -20 309 54.5 c 128,-1,29
 187 129 187 129 115 265.5 c 128,-1,30
 43 402 43 402 43 573 c 1,31,-1
 883 573 l 1,7,8
EndSplineSet
EndChar

StartChar: uni0190
Encoding: 400 400 330
Width: 1036
GlyphClass: 2
Flags: HW
AnchorPoint: "Anchor-5" 195 348 basechar 0
AnchorPoint: "Anchor-4" 567 0 basechar 0
AnchorPoint: "Anchor-3" 604 0 basechar 0
AnchorPoint: "Anchor-2" 567 0 basechar 0
AnchorPoint: "Anchor-1" 569 1270 basechar 0
LayerCount: 2
Fore
SplineSet
395 954 m 0,0,1
 395 700 395 700 631 700 c 2,2,-1
 651 700 l 1,3,-1
 651 631 l 1,4,5
 515 631 515 631 441 558.5 c 128,-1,6
 367 486 367 486 367 350.5 c 128,-1,7
 367 215 367 215 441 132 c 128,-1,8
 515 49 515 49 619.5 49 c 128,-1,9
 724 49 724 49 814.5 120 c 128,-1,10
 905 191 905 191 936 274 c 1,11,-1
 1004 246 l 1,12,13
 926.147310345 54.9070344828 926.147310345 54.9070344828 753.5 3 c 0,14,15
 677 -20 677 -20 569 -20 c 128,-1,16
 461 -20 461 -20 369.5 6 c 128,-1,17
 278 32 278 32 225.5 70 c 128,-1,18
 173 108 173 108 139 157.5 c 0,19,20
 82 240.485294118 82 240.485294118 82 330 c 0,21,22
 82 583 82 583 348 664 c 1,23,24
 238 696 238 696 174.5 757.5 c 128,-1,25
 111 819 111 819 111 901 c 128,-1,26
 111 983 111 983 135.5 1038.5 c 128,-1,27
 160 1094 160 1094 201.5 1128 c 128,-1,28
 243 1162 243 1162 307.5 1183 c 0,29,30
 418.071428571 1219 418.071428571 1219 602 1219 c 0,31,32
 691 1219 691 1219 773.5 1172.5 c 0,33,34
 801 1157 801 1157 815 1157 c 0,35,36
 840 1157 840 1157 840 1198 c 1,37,-1
 887 1198 l 1,38,-1
 907 893 l 1,39,-1
 862 893 l 1,40,41
 828 990 828 990 754.5 1069.5 c 128,-1,42
 681 1149 681 1149 593 1149 c 128,-1,43
 505 1149 505 1149 450 1092.5 c 128,-1,44
 395 1036 395 1036 395 954 c 0,0,1
EndSplineSet
EndChar

StartChar: uni0191
Encoding: 401 401 331
Width: 933
GlyphClass: 2
Flags: HW
LayerCount: 2
Fore
SplineSet
180 1114 m 1,0,1
 163.227272727 1155 163.227272727 1155 51 1155 c 1,2,-1
 51 1198 l 1,3,-1
 897 1198 l 1,4,-1
 897 999 l 1,5,-1
 854 999 l 1,6,7
 854 1111.22727273 854 1111.22727273 813 1128 c 1,8,-1
 440 1128 l 1,9,-1
 440 657 l 1,10,-1
 676 657 l 1,11,12
 717 673.772727273 717 673.772727273 717 786 c 1,13,-1
 760 786 l 1,14,-1
 760 459 l 1,15,-1
 717 459 l 1,16,17
 717 571.227272727 717 571.227272727 676 588 c 1,18,-1
 440 588 l 1,19,-1
 440 0 l 2,20,21
 440 -80 440 -80 409 -144 c 128,-1,22
 378 -208 378 -208 329 -244.5 c 0,23,24
 228.98630137 -319 228.98630137 -319 115 -319 c 0,25,26
 -26.4545454545 -319 -26.4545454545 -319 -111 -257 c 0,27,28
 -156 -224 -156 -224 -156 -188 c 128,-1,29
 -156 -152 -156 -152 -129.5 -129 c 128,-1,30
 -103 -106 -103 -106 -72.5 -106 c 128,-1,31
 -42 -106 -42 -106 -21 -128 c 128,-1,32
 0 -150 0 -150 19 -186.5 c 128,-1,33
 38 -223 38 -223 43.5 -232.5 c 0,34,35
 58.2631578947 -258 58.2631578947 -258 95.6315789474 -258 c 128,-1,36
 133 -258 133 -258 156.5 -200 c 128,-1,37
 180 -142 180 -142 180 -29 c 2,38,-1
 180 1114 l 1,0,1
EndSplineSet
EndChar

StartChar: florin
Encoding: 402 402 332
Width: 575
GlyphClass: 2
Flags: HW
LayerCount: 2
Fore
SplineSet
408 0 m 2,0,1
 408 -80 408 -80 377 -144 c 128,-1,2
 346 -208 346 -208 296.5 -244.5 c 0,3,4
 195.465753425 -319 195.465753425 -319 82 -319 c 0,5,6
 -59.8939393939 -319 -59.8939393939 -319 -143.5 -257 c 0,7,8
 -188 -224 -188 -224 -188 -188 c 128,-1,9
 -188 -152 -188 -152 -161.5 -129 c 128,-1,10
 -135 -106 -135 -106 -104.5 -106 c 128,-1,11
 -74 -106 -74 -106 -53.5 -128 c 128,-1,12
 -33 -150 -33 -150 -14 -186.5 c 128,-1,13
 5 -223 5 -223 10.5 -232.5 c 0,14,15
 25.2631578947 -258 25.2631578947 -258 62.6315789474 -258 c 128,-1,16
 100 -258 100 -258 126 -199 c 128,-1,17
 152 -140 152 -140 152 -29 c 2,18,-1
 152 840 l 1,19,-1
 49 840 l 1,20,-1
 49 901 l 1,21,-1
 152 901 l 1,22,-1
 152 971 l 2,23,24
 152 1214.25714286 152 1214.25714286 340.5 1273.5 c 0,25,26
 393 1290 393 1290 485.5 1290 c 128,-1,27
 578 1290 578 1290 641.5 1253.5 c 128,-1,28
 705 1217 705 1217 705 1171 c 0,29,30
 705 1077 705 1077 623 1077 c 0,31,32
 551.888888889 1077 551.888888889 1077 540 1130.5 c 0,33,34
 535 1153 535 1153 532.5 1175.5 c 0,35,36
 526.555555556 1229 526.555555556 1229 479 1229 c 0,37,38
 408 1229 408 1229 408 999 c 2,39,-1
 408 901 l 1,40,-1
 565 901 l 1,41,-1
 565 840 l 1,42,-1
 408 840 l 1,43,-1
 408 0 l 2,0,1
EndSplineSet
EndChar

StartChar: uni0193
Encoding: 403 403 333
Width: 1359
GlyphClass: 2
Flags: HW
LayerCount: 2
Fore
SplineSet
1257 549 m 1,0,1
 1144.77272727 549 1144.77272727 549 1128 508 c 1,2,-1
 1128 164 l 1,3,4
 1096.66666667 107.6 1096.66666667 107.6 1022.83333333 63.3 c 0,5,6
 884 -20 884 -20 727 -20 c 128,-1,7
 570 -20 570 -20 448.5 30.5 c 128,-1,8
 327 81 327 81 245 164.5 c 128,-1,9
 163 248 163 248 115.5 357 c 128,-1,10
 68 466 68 466 68 581.5 c 128,-1,11
 68 697 68 697 106.5 800 c 128,-1,12
 145 903 145 903 211.5 978 c 128,-1,13
 278 1053 278 1053 363.5 1108.5 c 0,14,15
 533.72972973 1219 533.72972973 1219 739 1219 c 0,16,17
 809 1219 809 1219 884 1188 c 128,-1,18
 959 1157 959 1157 969 1157 c 128,-1,19
 979 1157 979 1157 983 1161 c 1,20,21
 996 1263 996 1263 1048 1330 c 128,-1,22
 1100 1397 1100 1397 1178 1397 c 128,-1,23
 1256 1397 1256 1397 1313 1358.5 c 128,-1,24
 1370 1320 1370 1320 1370 1251 c 0,25,26
 1370 1211 1370 1211 1345.5 1184 c 128,-1,27
 1321 1157 1321 1157 1291.5 1157 c 128,-1,28
 1262 1157 1262 1157 1245.5 1165.5 c 128,-1,29
 1229 1174 1229 1174 1222.5 1182.5 c 128,-1,30
 1216 1191 1216 1191 1203 1216 c 128,-1,31
 1190 1241 1190 1241 1147.5 1241 c 128,-1,32
 1105 1241 1105 1241 1083 1219 c 1,33,34
 1044 1185 1044 1185 1044 973 c 2,35,-1
 1044 901 l 1,36,-1
 999 901 l 1,37,38
 990 1009 990 1009 915 1079 c 128,-1,39
 840 1149 840 1149 733.5 1149 c 128,-1,40
 627 1149 627 1149 537.5 1073 c 128,-1,41
 448 997 448 997 400 869 c 128,-1,42
 352 741 352 741 352 592 c 128,-1,43
 352 443 352 443 383 335.5 c 128,-1,44
 414 228 414 228 467 167.5 c 0,45,46
 570.809917355 49 570.809917355 49 713 49 c 0,47,48
 794 49 794 49 868 68 c 1,49,-1
 868 508 l 1,50,51
 851.227272727 549 851.227272727 549 739 549 c 1,52,-1
 739 592 l 1,53,-1
 1257 592 l 1,54,-1
 1257 549 l 1,0,1
EndSplineSet
EndChar

StartChar: uni0194
Encoding: 404 404 334
Width: 1067
GlyphClass: 2
Flags: HW
LayerCount: 2
Fore
SplineSet
469 1198 m 1,0,-1
 469 1155 l 1,1,2
 387 1155 387 1155 360 1137 c 1,3,-1
 612 684 l 1,4,-1
 901 1135 l 1,5,6
 875 1155 875 1155 786 1155 c 1,7,-1
 786 1198 l 1,8,-1
 1100 1198 l 1,9,-1
 1100 1155 l 1,10,11
 995.227272727 1155 995.227272727 1155 971 1114 c 1,12,-1
 657 625 l 1,13,-1
 649 614 l 1,14,15
 788 333 788 333 788 180 c 0,16,17
 788 82 788 82 725 31 c 128,-1,18
 662 -20 662 -20 558.5 -20 c 128,-1,19
 455 -20 455 -20 407.5 31.5 c 128,-1,20
 360 83 360 83 360 178 c 128,-1,21
 360 273 360 273 453 436 c 1,22,23
 413.333333333 521 413.333333333 521 374.166666667 593.5 c 128,-1,24
 335 666 335 666 332 672 c 2,25,-1
 94 1114 l 2,26,27
 72.5238095238 1155 72.5238095238 1155 -37 1155 c 1,28,-1
 -37 1198 l 1,29,-1
 469 1198 l 1,0,-1
444 219 m 0,30,31
 444 76 444 76 496 76 c 0,32,33
 528 76 528 76 528 190 c 0,34,35
 528 252 528 252 487 352 c 1,36,37
 444 264 444 264 444 219 c 0,30,31
EndSplineSet
EndChar

StartChar: uni0196
Encoding: 406 406 335
Width: 616
GlyphClass: 2
Flags: HW
AnchorPoint: "Anchor-5" 305 602 basechar 0
AnchorPoint: "Anchor-4" 393 0 basechar 0
AnchorPoint: "Anchor-3" 420 0 basechar 0
AnchorPoint: "Anchor-2" 393 0 basechar 0
AnchorPoint: "Anchor-1" 305 1270 basechar 0
LayerCount: 2
Fore
SplineSet
172 1114 m 1,0,1
 155.227272727 1155 155.227272727 1155 43 1155 c 1,2,-1
 43 1198 l 1,3,-1
 432 1198 l 1,4,-1
 432 172 l 2,5,6
 432 45 432 45 489 45 c 0,7,8
 512 45 512 45 525.5 61 c 128,-1,9
 539 77 539 77 539 94 c 1,10,-1
 575 94 l 1,11,12
 575 36 575 36 533 10 c 128,-1,13
 491 -16 491 -16 420 -16 c 128,-1,14
 349 -16 349 -16 314 -5 c 128,-1,15
 279 6 279 6 245.5 32 c 0,16,17
 172 89.0447761194 172 89.0447761194 172 229 c 2,18,-1
 172 1114 l 1,0,1
EndSplineSet
EndChar

StartChar: uni0197
Encoding: 407 407 336
Width: 696
GlyphClass: 2
Flags: HW
AnchorPoint: "Anchor-1" 360 1270 basechar 0
LayerCount: 2
Fore
SplineSet
485 84 m 1,0,1
 501.772727273 43 501.772727273 43 614 43 c 1,2,-1
 614 0 l 1,3,-1
 96 0 l 1,4,-1
 96 43 l 1,5,6
 208.227272727 43 208.227272727 43 225 84 c 1,7,-1
 225 567 l 1,8,-1
 39 567 l 1,9,-1
 39 637 l 1,10,-1
 225 637 l 1,11,-1
 225 1114 l 1,12,13
 208.227272727 1155 208.227272727 1155 96 1155 c 1,14,-1
 96 1198 l 1,15,-1
 614 1198 l 1,16,-1
 614 1155 l 1,17,18
 501.772727273 1155 501.772727273 1155 485 1114 c 1,19,-1
 485 637 l 1,20,-1
 651 637 l 1,21,-1
 651 567 l 1,22,-1
 485 567 l 1,23,-1
 485 84 l 1,0,1
EndSplineSet
EndChar

StartChar: uni0198
Encoding: 408 408 337
Width: 1519
GlyphClass: 2
Flags: HW
LayerCount: 2
Fore
SplineSet
694 84 m 1,0,1
 710.772727273 43 710.772727273 43 823 43 c 1,2,-1
 823 0 l 1,3,-1
 309 0 l 1,4,-1
 309 43 l 1,5,6
 421.227272727 43 421.227272727 43 438 84 c 1,7,-1
 438 1128 l 1,8,9
 242 1128 242 1128 209 1090 c 1,10,11
 186 1067 186 1067 186 1025 c 128,-1,12
 186 983 186 983 221 964 c 128,-1,13
 256 945 256 945 256 900.5 c 128,-1,14
 256 856 256 856 228.5 829.5 c 128,-1,15
 201 803 201 803 160 803 c 0,16,17
 91 803 91 803 52.5 860 c 128,-1,18
 14 917 14 917 14 968.5 c 0,19,20
 14 1079.25 14 1079.25 82 1126 c 0,21,22
 125 1155 125 1155 152 1167 c 0,23,24
 221.75 1198 221.75 1198 438 1198 c 2,25,-1
 823 1198 l 1,26,-1
 823 1155 l 1,27,28
 710.772727273 1155 710.772727273 1155 694 1114 c 1,29,-1
 694 84 l 1,0,1
1096 0 m 1,30,-1
 1096 43 l 1,31,32
 1144 43 1144 43 1171 49 c 1,33,-1
 705 643 l 1,34,-1
 1206 1141 l 1,35,36
 1178 1155 1178 1155 1102 1155 c 1,37,-1
 1102 1198 l 1,38,-1
 1423 1198 l 1,39,-1
 1423 1155 l 1,40,41
 1348.375 1155 1348.375 1155 1317.5 1129 c 0,42,43
 1308 1121 1308 1121 1296 1108 c 2,44,-1
 924 741 l 1,45,-1
 1438 76 l 1,46,47
 1471 43 1471 43 1567 43 c 1,48,-1
 1567 0 l 1,49,-1
 1096 0 l 1,30,-1
EndSplineSet
EndChar

StartChar: uni0199
Encoding: 409 409 338
Width: 1126
GlyphClass: 2
Flags: HW
LayerCount: 2
Fore
SplineSet
29 43 m 1,0,1
 141.227272727 43 141.227272727 43 158 84 c 1,2,-1
 156 971 l 2,3,4
 156 1051 156 1051 187 1115 c 128,-1,5
 218 1179 218 1179 267 1215.5 c 0,6,7
 367.01369863 1290 367.01369863 1290 481 1290 c 0,8,9
 622.454545455 1290 622.454545455 1290 707 1228 c 0,10,11
 752 1195 752 1195 752 1159 c 128,-1,12
 752 1123 752 1123 725.5 1100 c 128,-1,13
 699 1077 699 1077 668 1077 c 128,-1,14
 637 1077 637 1077 616 1099 c 128,-1,15
 595 1121 595 1121 577.5 1155 c 128,-1,16
 560 1189 560 1189 557 1195 c 128,-1,17
 554 1201 554 1201 545 1212 c 0,18,19
 531.090909091 1229 531.090909091 1229 497.045454545 1229 c 128,-1,20
 463 1229 463 1229 437.5 1170 c 128,-1,21
 412 1111 412 1111 412 999 c 2,22,-1
 414 84 l 1,23,24
 430.772727273 43 430.772727273 43 543 43 c 1,25,-1
 543 0 l 1,26,-1
 29 0 l 1,27,-1
 29 43 l 1,0,1
692 0 m 1,28,-1
 692 43 l 1,29,30
 743 43 743 43 770 49 c 1,31,-1
 428 520 l 1,32,-1
 791 846 l 1,33,34
 761 858 761 858 690 858 c 1,35,-1
 690 901 l 1,36,-1
 1012 901 l 1,37,-1
 1012 858 l 1,38,39
 936 858 936 858 901 831 c 1,40,-1
 653 610 l 1,41,-1
 1034 82 l 1,42,43
 1044 58 1044 58 1072.5 50.5 c 128,-1,44
 1101 43 1101 43 1163 43 c 1,45,-1
 1163 0 l 1,46,-1
 692 0 l 1,28,-1
EndSplineSet
EndChar

StartChar: uni019D
Encoding: 413 413 339
Width: 1253
GlyphClass: 2
Flags: HW
LayerCount: 2
Fore
SplineSet
1004 1114 m 1,0,1
 987.227272727 1155 987.227272727 1155 874 1155 c 1,2,-1
 874 1198 l 1,3,-1
 1202 1198 l 1,4,-1
 1202 1155 l 1,5,6
 1089.77272727 1155 1089.77272727 1155 1073 1114 c 1,7,-1
 1073 0 l 1,8,-1
 983 0 l 1,9,-1
 250 1014 l 1,10,-1
 250 -25 l 2,11,12
 250 -158 250 -158 233 -220 c 128,-1,13
 216 -282 216 -282 186 -328 c 0,14,15
 132.52173913 -410 132.52173913 -410 35 -410 c 0,16,17
 -31 -410 -31 -410 -88 -371.5 c 128,-1,18
 -145 -333 -145 -333 -145 -264 c 0,19,20
 -145 -224 -145 -224 -120.5 -197 c 128,-1,21
 -96 -170 -96 -170 -66.5 -170 c 128,-1,22
 -37 -170 -37 -170 -21 -178.5 c 128,-1,23
 -5 -187 -5 -187 1 -195.5 c 128,-1,24
 7 -204 7 -204 18 -223 c 1,25,26
 34 -254 34 -254 76 -254 c 128,-1,27
 118 -254 118 -254 141 -231 c 1,28,29
 180 -197 180 -197 180 14 c 2,30,-1
 180 1114 l 1,31,32
 163.227272727 1155 163.227272727 1155 51 1155 c 1,33,-1
 51 1198 l 1,34,-1
 397 1198 l 1,35,-1
 1004 369 l 1,36,-1
 1004 1114 l 1,0,1
EndSplineSet
EndChar

StartChar: uni019F
Encoding: 415 415 340
Width: 1359
GlyphClass: 2
Flags: HW
AnchorPoint: "Anchor-5" 700 602 basechar 0
AnchorPoint: "Anchor-4" 690 0 basechar 0
AnchorPoint: "Anchor-3" 750 0 basechar 0
AnchorPoint: "Anchor-2" 690 0 basechar 0
AnchorPoint: "Anchor-1" 688 1270 basechar 0
LayerCount: 2
Fore
SplineSet
152 291 m 128,-1,1
 72 433 72 433 72 577 c 128,-1,2
 72 721 72 721 120 835.5 c 128,-1,3
 168 950 168 950 249 1034 c 128,-1,4
 330 1118 330 1118 443 1168.5 c 128,-1,5
 556 1219 556 1219 680 1219 c 128,-1,6
 804 1219 804 1219 917 1168.5 c 128,-1,7
 1030 1118 1030 1118 1111 1034 c 128,-1,8
 1192 950 1192 950 1240 835.5 c 128,-1,9
 1288 721 1288 721 1288 577.5 c 128,-1,10
 1288 434 1288 434 1206.5 291.5 c 128,-1,11
 1125 149 1125 149 984.5 64.5 c 128,-1,12
 844 -20 844 -20 678.5 -20 c 128,-1,13
 513 -20 513 -20 372.5 64.5 c 128,-1,0
 232 149 232 149 152 291 c 128,-1,1
348 639 m 1,14,-1
 1010 639 l 1,15,16
 999.708619375 834.536231884 999.708619375 834.536231884 924.5 983 c 0,17,18
 886 1059 886 1059 821 1104 c 128,-1,19
 756 1149 756 1149 678 1149 c 128,-1,20
 600 1149 600 1149 543.5 1118 c 128,-1,21
 487 1087 487 1087 451.5 1037 c 128,-1,22
 416 987 416 987 392.5 918.5 c 0,23,24
 350.077922078 794.844155844 350.077922078 794.844155844 348 639 c 1,14,-1
1012 569 m 1,25,-1
 348 569 l 1,26,27
 358.254727475 309.213570634 358.254727475 309.213570634 466.5 162 c 0,28,29
 549.588235294 49 549.588235294 49 688 49 c 0,30,31
 889.870503597 49 889.870503597 49 969.5 284.5 c 0,32,33
 1009.82580833 403.761433149 1009.82580833 403.761433149 1012 569 c 1,25,-1
EndSplineSet
EndChar

StartChar: Ohorn
Encoding: 416 416 341
Width: 1398
GlyphClass: 2
Flags: HW
AnchorPoint: "Anchor-5" 700 602 basechar 0
AnchorPoint: "Anchor-4" 690 0 basechar 0
AnchorPoint: "Anchor-3" 750 0 basechar 0
AnchorPoint: "Anchor-2" 690 0 basechar 0
AnchorPoint: "Anchor-1" 688 1270 basechar 0
LayerCount: 2
Fore
SplineSet
1249 1092 m 2,0,-1
 1217 1087 l 1,1,2
 1169 1087 1169 1087 1140.5 1113 c 128,-1,3
 1112 1139 1112 1139 1112 1186 c 128,-1,4
 1112 1233 1112 1233 1143 1261.5 c 128,-1,5
 1174 1290 1174 1290 1206 1290 c 0,6,7
 1286 1290 1286 1290 1332 1238 c 128,-1,8
 1378 1186 1378 1186 1378 1106 c 0,9,10
 1378 955 1378 955 1206 907 c 1,11,12
 1288 765 1288 765 1288 599.5 c 128,-1,13
 1288 434 1288 434 1206.5 291.5 c 128,-1,14
 1125 149 1125 149 984.5 64.5 c 128,-1,15
 844 -20 844 -20 678.5 -20 c 128,-1,16
 513 -20 513 -20 372.5 64.5 c 128,-1,17
 232 149 232 149 152 291 c 128,-1,18
 72 433 72 433 72 577 c 128,-1,19
 72 721 72 721 120 835.5 c 128,-1,20
 168 950 168 950 249 1034 c 128,-1,21
 330 1118 330 1118 443 1168.5 c 128,-1,22
 556 1219 556 1219 691.5 1219 c 128,-1,23
 827 1219 827 1219 953.5 1152 c 128,-1,24
 1080 1085 1080 1085 1165 969 c 1,25,26
 1260 999.97826087 1260 999.97826087 1260 1087 c 1,27,28
 1255 1092 1255 1092 1249 1092 c 2,0,-1
357 761.5 m 128,-1,30
 348 691 348 691 348 612.5 c 128,-1,31
 348 534 348 534 358.5 458 c 128,-1,32
 369 382 369 382 394.5 306.5 c 128,-1,33
 420 231 420 231 457.5 175 c 128,-1,34
 495 119 495 119 554.5 84 c 128,-1,35
 614 49 614 49 696.5 49 c 128,-1,36
 779 49 779 49 845.5 97.5 c 128,-1,37
 912 146 912 146 946.5 227.5 c 0,38,39
 1012 382.231884058 1012 382.231884058 1012 582 c 0,40,41
 1012 789.263157895 1012 789.263157895 937 959 c 0,42,43
 899 1045 899 1045 830.5 1097 c 128,-1,44
 762 1149 762 1149 680 1149 c 128,-1,45
 598 1149 598 1149 540 1115.5 c 128,-1,46
 482 1082 482 1082 447 1029.5 c 128,-1,47
 412 977 412 977 389 904.5 c 128,-1,29
 366 832 366 832 357 761.5 c 128,-1,30
EndSplineSet
EndChar

StartChar: ohorn
Encoding: 417 417 342
Width: 1177
GlyphClass: 2
Flags: HW
AnchorPoint: "Anchor-5" 557 471 basechar 0
AnchorPoint: "Anchor-4" 573 0 basechar 0
AnchorPoint: "Anchor-3" 573 0 basechar 0
AnchorPoint: "Anchor-2" 573 0 basechar 0
AnchorPoint: "Anchor-1" 561 1055 basechar 0
LayerCount: 2
Fore
SplineSet
1098 831 m 2,0,-1
 1065 827 l 1,1,2
 1017 827 1017 827 989 853 c 128,-1,3
 961 879 961 879 961 926 c 128,-1,4
 961 973 961 973 992 1001.5 c 128,-1,5
 1023 1030 1023 1030 1055 1030 c 0,6,7
 1135 1030 1135 1030 1181 978 c 128,-1,8
 1227 926 1227 926 1227 862 c 128,-1,9
 1227 798 1227 798 1209.5 760.5 c 128,-1,10
 1192 723 1192 723 1161.5 699 c 0,11,12
 1103.330305 653.227125243 1103.330305 653.227125243 1020 639 c 1,13,14
 1053 542 1053 542 1053 445.5 c 128,-1,15
 1053 349 1053 349 1024 267.5 c 128,-1,16
 995 186 995 186 937.5 120.5 c 0,17,18
 814.160305344 -20 814.160305344 -20 574.580152672 -20 c 128,-1,19
 335 -20 335 -20 199 114.5 c 128,-1,20
 63 249 63 249 63 467 c 0,21,22
 63 655.896551724 63 655.896551724 180 785 c 0,23,24
 304.15625 922 304.15625 922 553 922 c 0,25,26
 712 922 712 922 823.5 864.5 c 128,-1,27
 935 807 935 807 993 702 c 1,28,29
 1108 726.642857143 1108 726.642857143 1108 827 c 1,30,31
 1104 831 1104 831 1098 831 c 2,0,-1
594 41 m 0,32,33
 686 41 686 41 735 138 c 128,-1,34
 784 235 784 235 784 395 c 0,35,36
 784 646 784 646 726 752 c 128,-1,37
 668 858 668 858 518 858 c 0,38,39
 459 858 459 858 416 808 c 0,40,41
 332 710.325581395 332 710.325581395 332 487.662790698 c 0,42,43
 332 41 332 41 594 41 c 0,32,33
EndSplineSet
EndChar

StartChar: uni01A4
Encoding: 420 420 343
Width: 1392
GlyphClass: 2
Flags: HW
LayerCount: 2
Fore
SplineSet
698 84 m 1,0,1
 714.772727273 43 714.772727273 43 827 43 c 1,2,-1
 827 0 l 1,3,-1
 309 0 l 1,4,-1
 309 43 l 1,5,6
 421.227272727 43 421.227272727 43 438 84 c 1,7,-1
 438 1128 l 1,8,9
 242 1128 242 1128 209 1090 c 1,10,11
 186 1067 186 1067 186 1025 c 128,-1,12
 186 983 186 983 221 964 c 128,-1,13
 256 945 256 945 256 900.5 c 128,-1,14
 256 856 256 856 228.5 829.5 c 128,-1,15
 201 803 201 803 160 803 c 0,16,17
 91 803 91 803 52.5 860 c 128,-1,18
 14 917 14 917 14 968.5 c 0,19,20
 14 1079.25 14 1079.25 82 1126 c 0,21,22
 125 1155 125 1155 152 1167 c 0,23,24
 221.75 1198 221.75 1198 438 1198 c 2,25,-1
 854 1198 l 2,26,27
 985 1198 985 1198 1088.5 1169 c 128,-1,28
 1192 1140 1192 1140 1251 1093.5 c 0,29,30
 1370 999.711864407 1370 999.711864407 1370 887 c 0,31,32
 1370 732 1370 732 1247.5 638.5 c 128,-1,33
 1125 545 1125 545 879 545 c 2,34,-1
 698 545 l 1,35,-1
 698 84 l 1,0,1
698 1128 m 1,36,-1
 698 614 l 1,37,-1
 807 614 l 2,38,39
 964 614 964 614 1029 677 c 128,-1,40
 1094 740 1094 740 1094 885 c 0,41,42
 1094 1128 1094 1128 782 1128 c 2,43,-1
 698 1128 l 1,36,-1
EndSplineSet
EndChar

StartChar: uni01A5
Encoding: 421 421 344
Width: 1132
GlyphClass: 2
Flags: HW
LayerCount: 2
Fore
SplineSet
373 -309 m 1,0,1
 389.772727273 -350 389.772727273 -350 502 -350 c 1,2,-1
 502 -393 l 1,3,-1
 -12 -393 l 1,4,-1
 -12 -350 l 1,5,6
 100.227272727 -350 100.227272727 -350 117 -309 c 1,7,-1
 115 971 l 2,8,9
 115 1051 115 1051 146 1115 c 128,-1,10
 177 1179 177 1179 226 1215.5 c 0,11,12
 326.01369863 1290 326.01369863 1290 440 1290 c 0,13,14
 581.454545455 1290 581.454545455 1290 666 1228 c 0,15,16
 711 1195 711 1195 711 1159 c 128,-1,17
 711 1123 711 1123 684.5 1100 c 128,-1,18
 658 1077 658 1077 627 1077 c 128,-1,19
 596 1077 596 1077 575 1099 c 128,-1,20
 554 1121 554 1121 536.5 1155 c 128,-1,21
 519 1189 519 1189 516 1195 c 128,-1,22
 513 1201 513 1201 504 1212 c 0,23,24
 490.090909091 1229 490.090909091 1229 456.045454545 1229 c 128,-1,25
 422 1229 422 1229 396.5 1170 c 128,-1,26
 371 1111 371 1111 371 999 c 2,27,-1
 371 866 l 1,28,29
 467 922 467 922 598 922 c 0,30,31
 949.414201183 922 949.414201183 922 1040 638.5 c 0,32,33
 1067 554 1067 554 1067 446 c 0,34,35
 1067 214 1067 214 933 97 c 128,-1,36
 799 -20 799 -20 553 -20 c 0,37,38
 450 -20 450 -20 373 14 c 1,39,-1
 373 -309 l 1,0,1
371 801 m 1,40,-1
 373 80 l 1,41,42
 449 49 449 49 550.5 49 c 128,-1,43
 652 49 652 49 726.5 152.5 c 128,-1,44
 801 256 801 256 801 446 c 0,45,46
 801 566.888888889 801 566.888888889 744 702 c 0,47,48
 717 766 717 766 673 809 c 128,-1,49
 629 852 629 852 578 852 c 0,50,51
 450 852 450 852 371 801 c 1,40,-1
EndSplineSet
EndChar

StartChar: uni01A9
Encoding: 425 425 345
Width: 937
GlyphClass: 2
Flags: HW
LayerCount: 2
Fore
SplineSet
770 1008 m 1,0,1
 770 1120.22727273 770 1120.22727273 729 1137 c 1,2,-1
 381 1137 l 1,3,-1
 686 733 l 1,4,-1
 272 190 l 1,5,-1
 733 190 l 2,6,7
 749.526315789 190 749.526315789 190 777.763157895 208.5 c 128,-1,8
 806 227 806 227 814 237 c 0,9,10
 838.444444444 267.555555556 838.444444444 267.555555556 848 301 c 1,11,-1
 891 301 l 1,12,-1
 817 0 l 1,13,-1
 -10 0 l 1,14,-1
 467 621 l 1,15,-1
 31 1198 l 1,16,-1
 813 1198 l 1,17,-1
 813 1008 l 1,18,-1
 770 1008 l 1,0,1
EndSplineSet
EndChar

